<?xml version="1.0" encoding="UTF-8"?>
<svg id="Layer_1" data-name="Layer 1" xmlns="http://www.w3.org/2000/svg" viewBox="0 0 128 34">
  <defs>
    <style>
      .cls-1 {
        fill: #fff;
      }

      .cls-1, .cls-2 {
        fill-rule: evenodd;
      }

      .cls-2 {
        fill: #f49200;
      }
    </style>
  </defs>
  <path class="cls-2" d="m48.72,5.65c-1.08,0-2.09.21-3.06.64-.96.42-1.79.98-2.48,1.68-.7.69-1.25,1.52-1.68,2.48-.43.96-.64,1.98-.64,3.05v6.85c0,1.07.21,2.09.64,3.06.43.96.98,1.8,1.68,2.52.69.72,1.52,1.29,2.48,1.71.96.43,1.98.64,3.06.64h5.71c.76,0,1.39.24,1.88.71.49.47.74,1.09.74,1.85,0,.81-.25,1.44-.74,1.91-.49.47-1.12.71-1.88.71h-5.71c-1.84,0-3.56-.34-5.17-1.01-1.61-.67-3.01-1.6-4.2-2.79-1.19-1.19-2.11-2.57-2.79-4.16-.67-1.59-1.01-3.3-1.01-5.14v-6.85c0-1.79.33-3.48,1.01-5.07.67-1.59,1.6-2.98,2.79-4.16,1.18-1.18,2.58-2.12,4.2-2.82,1.61-.69,3.33-1.04,5.17-1.04h5.71c.76,0,1.39.24,1.88.7.49.47.74,1.11.74,1.91,0,.76-.25,1.39-.74,1.88-.49.49-1.12.74-1.88.74h-5.71Z"/>
  <path class="cls-2" d="m74.36.42c1.03,0,2.06.2,3.09.6,1.03.4,1.92.98,2.68,1.74,1.57,1.66,2.35,3.6,2.35,5.84v22.22c0,.81-.24,1.44-.71,1.91-.47.47-1.09.7-1.85.7-1.3,0-2.17-.51-2.62-1.55-1.7,1.03-3.63,1.55-5.78,1.55h-3.09c-1.52,0-2.96-.28-4.3-.84-1.34-.56-2.51-1.33-3.49-2.32-.98-.98-1.77-2.15-2.35-3.49-.58-1.34-.87-2.78-.87-4.3s.27-2.93.8-4.23c.54-1.3,1.32-2.46,2.35-3.49,1.03-1.03,2.22-1.82,3.56-2.38,1.34-.56,2.77-.84,4.3-.84h6.85c.63,0,1.12-.18,1.48-.54h-.07c.31-.31.47-.83.47-1.54v-.87c0-.94-.27-1.66-.81-2.15-.49-.54-1.16-.81-2.01-.81h-11.95c-.76,0-1.4-.25-1.91-.74-.52-.49-.77-1.12-.77-1.88,0-.81.26-1.44.77-1.91.51-.47,1.15-.7,1.91-.7h11.95Zm1.14,26.18c1.12-1.07,1.68-2.44,1.68-4.09v-5.84c-.27.09-.56.15-.87.17-.31.02-.65.03-1.01.03h-6.85c-1.61,0-2.97.54-4.06,1.61-1.1,1.07-1.65,2.42-1.65,4.03,0,.81.15,1.55.44,2.25.29.7.69,1.3,1.21,1.81.51.52,1.12.93,1.81,1.24.69.31,1.44.47,2.25.47h3.09c.76,0,1.49-.14,2.18-.44.69-.29,1.29-.71,1.78-1.24Z"/>
  <path class="cls-2" d="m101.15.42c.76,0,1.38.24,1.85.7.47.47.7,1.11.7,1.91,0,.76-.24,1.39-.7,1.88-.47.49-1.09.74-1.85.74h-4.3c-.76,0-1.49.13-2.18.4-.69.27-1.29.67-1.78,1.21-1.16,1.25-1.74,2.6-1.74,4.03v19.53c0,.81-.26,1.44-.77,1.91-.52.47-1.15.7-1.91.7-.63,0-1.22-.24-1.78-.7-.56-.47-.84-1.11-.84-1.91V3.03c0-.81.28-1.44.84-1.91.56-.47,1.15-.7,1.78-.7s1.15.15,1.58.44c.43.29.75.68.97,1.17,1.75-1.07,3.69-1.61,5.84-1.61h4.3Z"/>
  <path class="cls-2" d="m114.84.42c3.63,0,6.74,1.3,9.33,3.89,1.21,1.21,2.15,2.61,2.82,4.2.67,1.59,1.01,3.26,1.01,5v3.09c0,.76-.26,1.4-.77,1.91-.51.52-1.15.77-1.91.77h-18.39v1.07c0,1.07.21,2.09.64,3.06.42.96.99,1.8,1.71,2.52.71.72,1.55,1.29,2.52,1.71.96.43,1.98.64,3.06.64h6.91c.76,0,1.38.24,1.85.71.47.47.71,1.08.71,1.85,0,.8-.24,1.44-.71,1.91-.47.47-1.09.71-1.85.71h-6.91c-1.84,0-3.55-.34-5.14-1.01-1.59-.67-2.98-1.6-4.16-2.79-1.18-1.19-2.13-2.57-2.82-4.16-.7-1.59-1.04-3.3-1.04-5.14v-6.85c0-1.79.32-3.47.97-5.04.65-1.57,1.62-2.98,2.92-4.23v.07c1.25-1.3,2.67-2.27,4.26-2.92,1.59-.65,3.26-.97,5-.97Zm7.85,13.09c0-1.03-.2-2.02-.6-2.99-.4-.96-.98-1.82-1.74-2.58-1.48-1.52-3.31-2.28-5.51-2.28s-4.05.76-5.57,2.28c-.76.76-1.34,1.62-1.75,2.58-.4.96-.6,1.96-.6,2.99v.54h15.78v-.54Z"/>
  <path class="cls-1" d="m28.44,7.24C25.26,2.66,20.81.15,15.18.06,13.01.02,2.17,0,0,0v24.97h7.41V8.46c1.44,0,3.44,0,3.69,0,1.55,0,3.11-.02,4.66.14,3.77.37,7.05,3.65,7.14,7.97.1,4.56-3.65,8.33-8.2,8.38-2.01.02-4.02,0-6.03,0v8.42c2.13,0,4.26,0,6.39,0,4.5-.03,8.34-1.74,11.47-4.88,5.7-5.73,6.51-14.64,1.9-21.25Z"/>
  <path class="cls-1" d="m6.43,28.3c.14.49.44.69.81.79.17.05.25.14.23.31,0,.05,0,.1,0,.15q0,.51-.47.7c-.52.22-.71.73-.46,1.27.06.13.15.32.1.39-.16.22-.38.4-.59.57-.03.03-.16-.04-.24-.08-.74-.35-1.2-.17-1.47.6-.07.19-.16.28-.36.25-.08-.01-.16-.01-.24,0-.31.04-.47-.07-.56-.39-.18-.6-.72-.8-1.3-.55-.13.05-.32.15-.39.1-.22-.16-.4-.38-.57-.59-.03-.04.05-.18.09-.26.33-.7.15-1.18-.58-1.43-.21-.07-.32-.17-.28-.4,0-.07,0-.14,0-.21-.05-.31.08-.47.39-.56.6-.18.8-.72.54-1.3-.06-.13-.15-.32-.1-.39.16-.22.38-.4.59-.57.03-.03.16.05.23.08.74.35,1.19.17,1.47-.6.07-.19.16-.28.36-.25.08,0,.16.01.24,0,.31-.05.46.08.57.39.1.26.34.47.52.71-.13.13-.31.33-.51.49-.07.06-.21.07-.31.05-1.02-.12-1.9.38-2.24,1.3-.34.89-.01,1.9.8,2.41.71.45,1.46.46,2.18.01.75-.47,1.05-1.18.93-2.05-.03-.18.01-.29.14-.41.16-.16.3-.34.49-.56Z"/>
  <path class="cls-1" d="m3.4,31.18c.29-.3.57-.57.84-.86.06-.07.07-.2.09-.3,0-.03,0-.06-.01-.09-.19-.75-.24-.8-1.01-.93-.08-.01-.19.04-.24.09-.27.28-.53.58-.8.87-.03-.02-.07-.05-.1-.07,0-.13-.02-.26,0-.39.19-.92,1.01-1.51,1.95-1.43.12.01.28-.05.38-.13.47-.43.93-.88,1.47-1.4.31.32.61.63.89.91-.48.49-.88.93-1.3,1.34-.2.19-.29.36-.28.66.04,1.02-.9,1.87-1.88,1.74Z"/>
</svg>