<?xml version="1.0" encoding="UTF-8"?>
<svg id="Layer_1" data-name="Layer 1" xmlns="http://www.w3.org/2000/svg" viewBox="0 0 68 18">
  <defs>
    <style>
      .cls-1 {
        fill: #fff;
      }

      .cls-1, .cls-2 {
        fill-rule: evenodd;
      }

      .cls-2 {
        fill: #f49200;
      }
    </style>
  </defs>
  <path class="cls-2" d="m25.88,3c-.57,0-1.11.11-1.62.34-.51.23-.95.52-1.32.89-.37.37-.67.81-.89,1.32-.23.51-.34,1.05-.34,1.62v3.64c0,.57.11,1.11.34,1.62.23.51.52.96.89,1.34.37.38.81.68,1.32.91.51.23,1.05.34,1.62.34h3.03c.4,0,.74.13,1,.37.26.25.39.58.39.98,0,.43-.13.77-.39,1.02-.26.25-.6.37-1,.37h-3.03c-.98,0-1.89-.18-2.75-.54-.86-.36-1.6-.85-2.23-1.48-.63-.63-1.12-1.37-1.48-2.21-.36-.84-.53-1.75-.53-2.73v-3.64c0-.95.18-1.85.53-2.69.36-.84.85-1.58,1.48-2.21.63-.63,1.37-1.13,2.23-1.5.86-.37,1.77-.55,2.75-.55h3.03c.4,0,.74.12,1,.37.26.25.39.59.39,1.02,0,.4-.13.74-.39,1-.26.26-.6.39-1,.39h-3.03Z"/>
  <path class="cls-2" d="m39.51.22c.55,0,1.09.11,1.64.32.55.21,1.02.52,1.43.93.83.88,1.25,1.91,1.25,3.1v11.8c0,.43-.12.77-.37,1.02-.25.25-.58.37-.98.37-.69,0-1.15-.27-1.39-.82-.9.55-1.93.82-3.07.82h-1.64c-.81,0-1.57-.15-2.28-.45-.71-.3-1.33-.71-1.85-1.23-.52-.52-.94-1.14-1.25-1.85-.31-.71-.46-1.47-.46-2.28s.14-1.56.43-2.25c.29-.69.7-1.31,1.25-1.85.55-.55,1.18-.97,1.89-1.27.71-.3,1.47-.45,2.28-.45h3.64c.33,0,.59-.09.78-.29h-.03c.17-.17.25-.44.25-.82v-.46c0-.5-.14-.88-.43-1.14-.26-.28-.62-.43-1.07-.43h-6.35c-.4,0-.74-.13-1.02-.39-.27-.26-.41-.59-.41-1,0-.43.14-.77.41-1.02.27-.25.61-.37,1.02-.37h6.35Zm.61,13.91c.59-.57.89-1.3.89-2.18v-3.1c-.14.05-.3.08-.46.09-.17.01-.35.02-.54.02h-3.64c-.86,0-1.58.29-2.16.86-.58.57-.87,1.28-.87,2.14,0,.43.08.83.23,1.19.15.37.37.69.64.96.27.27.59.49.96.66.37.17.77.25,1.19.25h1.64c.4,0,.79-.08,1.16-.23.37-.16.68-.37.95-.66Z"/>
  <path class="cls-2" d="m53.73.22c.4,0,.73.12.98.37.25.25.37.59.37,1.02,0,.4-.13.74-.37,1-.25.26-.58.39-.98.39h-2.28c-.4,0-.79.07-1.16.21-.37.14-.68.36-.95.64-.62.67-.93,1.38-.93,2.14v10.38c0,.43-.14.77-.41,1.02-.27.25-.61.37-1.02.37-.33,0-.65-.12-.95-.37-.3-.25-.45-.59-.45-1.02V1.61c0-.43.15-.77.45-1.02.3-.25.61-.37.95-.37s.61.08.84.23c.23.16.4.36.52.62.93-.57,1.96-.86,3.1-.86h2.28Z"/>
  <path class="cls-2" d="m61.01.22c1.93,0,3.58.69,4.96,2.07.64.64,1.14,1.39,1.5,2.23.36.84.53,1.73.53,2.66v1.64c0,.4-.14.74-.41,1.02-.27.27-.61.41-1.02.41h-9.77v.57c0,.57.11,1.11.34,1.62.23.51.53.96.91,1.34.38.38.83.68,1.34.91.51.23,1.05.34,1.62.34h3.67c.4,0,.73.12.98.37.25.25.37.58.37.98,0,.43-.12.77-.37,1.02-.25.25-.58.37-.98.37h-3.67c-.98,0-1.88-.18-2.73-.53-.84-.36-1.58-.85-2.21-1.48-.63-.63-1.13-1.37-1.5-2.21-.37-.84-.55-1.75-.55-2.73v-3.64c0-.95.17-1.84.52-2.67.34-.83.86-1.58,1.55-2.25v.04c.66-.69,1.42-1.21,2.26-1.55.84-.34,1.73-.52,2.66-.52Zm4.17,6.95c0-.55-.11-1.08-.32-1.59-.21-.51-.52-.97-.93-1.37-.78-.81-1.76-1.21-2.92-1.21s-2.15.4-2.96,1.21c-.4.4-.71.86-.93,1.37-.21.51-.32,1.04-.32,1.59v.28h8.38v-.28Z"/>
  <path class="cls-1" d="m15.11,3.84C13.42,1.42,11.05.08,8.06.03,6.91.01,1.15,0,0,0v13.26h3.94V4.5c.76,0,1.83,0,1.96,0,.83,0,1.65,0,2.47.07,2.01.2,3.75,1.94,3.79,4.23.05,2.42-1.94,4.43-4.36,4.45-1.07,0-2.13,0-3.2,0v4.47c1.13,0,2.26,0,3.4,0,2.39-.01,4.43-.92,6.09-2.59,3.03-3.04,3.46-7.78,1.01-11.29Z"/>
  <path class="cls-1" d="m3.41,15.03c.08.26.23.37.43.42.09.02.13.07.12.17,0,.03,0,.05,0,.08q0,.27-.25.37c-.28.11-.37.39-.25.68.03.07.08.17.05.21-.09.12-.2.21-.31.31-.02.01-.08-.02-.12-.04-.39-.19-.64-.09-.78.32-.04.1-.08.15-.19.14-.04,0-.08,0-.12,0-.16.02-.25-.04-.3-.21-.09-.32-.38-.43-.69-.29-.07.03-.17.08-.21.05-.12-.09-.21-.2-.3-.31-.02-.02.03-.09.05-.14.18-.37.08-.62-.31-.76-.11-.04-.17-.09-.15-.21,0-.04,0-.07,0-.11-.02-.17.04-.25.21-.3.32-.1.43-.38.29-.69-.03-.07-.08-.17-.05-.21.09-.12.2-.21.31-.3.02-.01.08.02.12.04.39.19.63.09.78-.32.04-.1.08-.15.19-.13.04,0,.08,0,.13,0,.17-.02.24.04.3.21.05.14.18.25.28.38-.07.07-.16.17-.27.26-.04.03-.11.04-.17.03-.54-.06-1.01.2-1.19.69-.18.47,0,1.01.43,1.28.38.24.78.25,1.16,0,.4-.25.56-.63.49-1.09-.01-.1,0-.15.07-.22.09-.08.16-.18.26-.3Z"/>
  <path class="cls-1" d="m1.81,16.56c.16-.16.3-.3.45-.46.03-.04.04-.1.05-.16,0-.01,0-.03,0-.05-.1-.4-.13-.42-.54-.5-.04,0-.1.02-.13.05-.14.15-.28.31-.42.46-.02-.01-.04-.03-.05-.04,0-.07-.01-.14,0-.2.1-.49.54-.8,1.04-.76.06,0,.15-.02.2-.07.25-.23.49-.47.78-.74.17.17.32.33.47.48-.25.26-.47.49-.69.71-.1.1-.15.19-.15.35.02.54-.48.99-1,.92Z"/>
</svg>