<?xml version="1.0" encoding="UTF-8"?>
<svg version="1.1" xmlns="http://www.w3.org/2000/svg" width="512" height="512">
<path d="M0 0 C0.82335846 -0.00730133 1.64671692 -0.01460266 2.49502563 -0.02212524 C5.20903763 -0.03830123 7.92064767 -0.01115654 10.63452148 0.01806641 C12.52351378 0.01910399 14.41250825 0.01806712 16.30149841 0.01504517 C20.25682899 0.01522444 24.21134281 0.03604786 28.16650391 0.07226562 C33.23661029 0.1176726 38.30552532 0.11872157 43.37577915 0.10523033 C47.27490329 0.09854837 51.17375569 0.11181446 55.07282829 0.1314888 C56.94232702 0.13918677 58.81185599 0.14149171 60.68136787 0.13831711 C63.29337322 0.13757544 65.90384942 0.16281857 68.515625 0.1953125 C69.28820145 0.19035767 70.06077789 0.18540283 70.85676575 0.18029785 C74.35815875 0.24983544 76.34824428 0.49098686 79.20420837 2.59146118 C80.69311523 4.74462891 80.69311523 4.74462891 80.69311523 7.74462891 C81.35311523 7.74462891 82.01311523 7.74462891 82.69311523 7.74462891 C82.72006375 9.70288764 82.73948742 11.66125117 82.75561523 13.61962891 C82.7672168 14.71017578 82.77881836 15.80072266 82.79077148 16.92431641 C82.69311523 19.74462891 82.69311523 19.74462891 81.69311523 21.74462891 C82.88275879 21.72368164 84.07240234 21.70273437 85.2980957 21.68115234 C89.75223543 21.60822784 94.20632342 21.5626401 98.66088867 21.52490234 C100.58122663 21.50490554 102.50150462 21.47769885 104.42163086 21.44287109 C128.47840909 21.01775131 128.47840909 21.01775131 138.15795898 30.03369141 C143.25842169 35.71817655 145.7724849 41.08139016 145.88598633 48.70922852 C145.91008072 50.18612404 145.91008072 50.18612404 145.93466187 51.69285583 C145.97925554 56.17323962 146.02014136 60.65347953 146.04321289 65.1340332 C146.05980259 67.49773992 146.08713174 69.86139586 146.12524414 72.22485352 C146.17994716 75.6366573 146.2018737 79.04728973 146.21655273 82.45947266 C146.23922211 83.51480698 146.26189148 84.5701413 146.2852478 85.65745544 C146.26417442 92.96094644 146.26417442 92.96094644 143.38305664 96.91479492 C139.85417377 99.31531925 137.87852984 99.42951493 133.69311523 98.74462891 C131.32814084 96.87754386 130.03280808 95.4240146 128.69311523 92.74462891 C128.59052624 91.32116415 128.54728658 89.89317171 128.53540039 88.46606445 C128.52000717 87.13909798 128.52000717 87.13909798 128.50430298 85.7853241 C128.49700165 84.82701187 128.48970032 83.86869965 128.48217773 82.88134766 C128.45410648 80.85985522 128.425442 78.83837095 128.39624023 76.81689453 C128.35498702 73.6239446 128.31810713 70.4311467 128.29174805 67.23803711 C128.26412746 64.16048515 128.21825162 61.08363071 128.16967773 58.00634766 C128.16479843 56.57798836 128.16479843 56.57798836 128.15982056 55.12077332 C128.06905226 50.22196145 127.96090668 46.68008206 124.69311523 42.74462891 C124.03311523 42.41462891 123.37311523 42.08462891 122.69311523 41.74462891 C122.69311523 41.08462891 122.69311523 40.42462891 122.69311523 39.74462891 C109.49311523 39.74462891 96.29311523 39.74462891 82.69311523 39.74462891 C82.69311523 42.05462891 82.69311523 44.36462891 82.69311523 46.74462891 C81.48173412 50.0259428 79.91147078 53.13545114 76.69311523 54.74462891 C74.06509486 54.85331643 71.46316998 54.90194753 68.83447266 54.90576172 C67.61713188 54.91320908 67.61713188 54.91320908 66.37519836 54.92080688 C63.68298502 54.93544452 60.99083063 54.94223354 58.29858398 54.94775391 C56.43011981 54.95350451 54.56165566 54.95926226 52.69319153 54.96502686 C48.77153243 54.97554172 44.84989387 54.98138105 40.92822266 54.98486328 C35.9043189 54.99034579 30.88068648 55.01436655 25.85686779 55.04283524 C21.99554148 55.06146512 18.13428044 55.06666743 14.27291298 55.06819916 C12.42095775 55.07122596 10.56900368 55.07925544 8.71709251 55.09238434 C6.12449944 55.10945047 3.53256796 55.10756318 0.93994141 55.10107422 C-0.20657394 55.11489639 -0.20657394 55.11489639 -1.37625122 55.1289978 C-5.84290271 55.09399999 -8.80268795 54.59516974 -12.30688477 51.74462891 C-13.26758911 48.86251589 -13.4127036 47.04612847 -13.36938477 44.05712891 C-13.36036133 43.24888672 -13.35133789 42.44064453 -13.34204102 41.60791016 C-13.32463867 40.68558594 -13.32463867 40.68558594 -13.30688477 39.74462891 C-18.48466878 39.67031759 -23.66214045 39.61595082 -28.84033203 39.57983398 C-30.60080373 39.56477338 -32.36123806 39.54432065 -34.12158203 39.51831055 C-36.65609979 39.48180662 -39.19012028 39.46487536 -41.72485352 39.45166016 C-42.90013863 39.42843437 -42.90013863 39.42843437 -44.09916687 39.40473938 C-48.70658394 39.4033293 -51.6382601 39.90123956 -55.30688477 42.74462891 C-58.42260131 46.30544781 -59.43114917 49.31667841 -59.43551922 54.00414848 C-59.44035589 55.3147563 -59.44035589 55.3147563 -59.44529027 56.65184104 C-59.44374167 57.612429 -59.44219306 58.57301695 -59.44059753 59.56271362 C-59.44399587 61.09259893 -59.44399587 61.09259893 -59.44746286 62.653391 C-59.4538171 66.08729807 -59.45297258 69.52116581 -59.45214844 72.95507812 C-59.45513904 75.41043143 -59.45854133 77.86578426 -59.46232605 80.32113647 C-59.4702597 86.30819471 -59.47338114 92.29523735 -59.47393843 98.28229938 C-59.47441334 103.14822426 -59.47646682 108.01414588 -59.47963905 112.88006973 C-59.48844721 126.67140072 -59.49305819 140.46272393 -59.49230858 154.25405775 C-59.49226862 154.99779682 -59.49222867 155.74153589 -59.4921875 156.5078125 C-59.49212618 157.62478095 -59.49212618 157.62478095 -59.49206362 158.76431443 C-59.49165712 170.83376418 -59.50122709 182.90318273 -59.51532587 194.97262345 C-59.52968326 207.36107075 -59.5365964 219.74950282 -59.53573209 232.13795865 C-59.53539989 239.09488372 -59.53815681 246.0517761 -59.54891014 253.0086937 C-59.55895667 259.550349 -59.55868629 266.09194694 -59.55139351 272.63360977 C-59.55034477 275.03744863 -59.55272759 277.44129175 -59.55875397 279.84512329 C-59.56643601 283.12102338 -59.56185414 286.39668225 -59.55412292 289.6725769 C-59.56183827 291.10676667 -59.56183827 291.10676667 -59.56970948 292.56992996 C-59.54179383 297.90536465 -59.39436956 302.20334307 -55.86938477 306.49462891 C-52.40620575 309.26517212 -48.73189786 308.87499102 -44.49467468 308.8850708 C-43.44974868 308.88952748 -43.44974868 308.88952748 -42.38371307 308.8940742 C-40.04388255 308.90276233 -37.70410319 308.90426954 -35.36425781 308.90576172 C-33.68884166 308.91038981 -32.01342656 308.91541446 -30.3380127 308.92080688 C-25.78214805 308.93393371 -21.22629815 308.94037639 -16.67041755 308.94481754 C-13.82453001 308.9477478 -10.97864651 308.95185252 -8.132761 308.95632172 C0.77008938 308.96999737 9.67293055 308.9796637 18.5757907 308.98352361 C28.85520068 308.98800472 39.13447772 309.00555479 49.41384727 309.0345242 C57.3578876 309.05613556 65.30189052 309.0662276 73.24595994 309.06756473 C77.99133455 309.06861314 82.73658419 309.07452875 87.48192787 309.09238434 C91.94625256 309.10885559 96.41035822 309.11102514 100.87470245 309.10224533 C102.5121615 309.10147445 104.14963227 309.10582443 105.78706169 309.11570358 C108.02495326 309.1284124 110.26206784 309.12255267 112.49995422 309.11212158 C113.75153981 309.11358814 115.0031254 309.1150547 116.29263783 309.1165657 C120.07023811 308.70338003 122.47984498 307.74959831 125.69311523 305.74462891 C127.1186888 303.18741154 127.1186888 303.18741154 127.69311523 300.74462891 C126.94288086 300.88900391 126.19264648 301.03337891 125.41967773 301.18212891 C107.06147704 304.51157588 89.6423862 302.23429999 73.94311523 291.49462891 C65.06143829 285.1513302 58.57292696 278.50425236 53.69311523 268.74462891 C53.03311523 267.75462891 52.37311523 266.76462891 51.69311523 265.74462891 C51.69311523 264.75462891 51.69311523 263.76462891 51.69311523 262.74462891 C51.03311523 262.74462891 50.37311523 262.74462891 49.69311523 262.74462891 C49.04150511 260.87162865 48.39709328 258.99612341 47.75561523 257.11962891 C47.3959668 256.07548828 47.03631836 255.03134766 46.66577148 253.95556641 C41.75217458 237.73477663 43.5640849 218.16086621 51.37792969 203.1628418 C60.66476578 186.55417097 74.80841241 174.62819044 92.94311523 168.99462891 C104.69509419 166.06917184 115.9058633 166.54700567 127.69311523 168.74462891 C127.70769775 168.16495361 127.72228027 167.58527832 127.73730469 166.98803711 C127.81210052 164.34375338 127.90865421 161.70068889 128.00561523 159.05712891 C128.02817383 158.14511719 128.05073242 157.23310547 128.07397461 156.29345703 C128.27076035 151.37381359 128.43098879 147.6994538 131.69311523 143.74462891 C134.83182711 142.17527297 137.23167345 142.39261788 140.69311523 142.74462891 C144.07383249 145.35254091 145.53287551 146.80696808 146.26074219 151.06616211 C146.23455811 152.29681396 146.20837402 153.52746582 146.18139648 154.79541016 C146.17432175 155.45421677 146.16724701 156.11302338 146.15995789 156.79179382 C146.13212502 158.88142925 146.06942342 160.96831367 146.00561523 163.05712891 C145.98051728 164.47961604 145.95770672 165.9021455 145.93725586 167.32470703 C145.88233969 170.79889752 145.79615209 174.27149441 145.69311523 177.74462891 C146.31476563 178.04554443 146.93641602 178.34645996 147.5769043 178.65649414 C158.72898275 184.39078275 167.19744648 196.40328272 171.69311523 207.74462891 C171.69311523 208.73462891 171.69311523 209.72462891 171.69311523 210.74462891 C172.35311523 210.74462891 173.01311523 210.74462891 173.69311523 210.74462891 C174.02644857 212.07796224 174.3597819 213.41129557 174.69311523 214.74462891 C174.9517334 215.58429199 174.9517334 215.58429199 175.21557617 216.44091797 C176.28517513 221.60080333 175.91933671 227.02163447 175.93334961 232.27880859 C175.94302227 234.47353498 175.97405381 236.6673108 176.00561523 238.86181641 C176.0612801 246.06214887 175.94120778 252.16573776 172.69311523 258.74462891 C172.17233398 259.90865234 171.65155273 261.07267578 171.11499023 262.27197266 C166.1927499 272.31196286 159.58081997 284.9617501 149.01342773 290.02978516 C146.36798555 291.57328685 146.36798555 291.57328685 146.16186523 294.74853516 C146.17217773 295.92287109 146.18249023 297.09720703 146.19311523 298.30712891 C145.92719059 305.27866692 144.51861985 309.94399963 140.69311523 315.74462891 C140.25999023 316.40205078 139.82686523 317.05947266 139.38061523 317.73681641 C135.08689646 323.42111456 128.88815999 326.90658195 121.92504883 328.29760742 C118.70611006 328.74283154 115.66728973 328.85836244 112.41967773 328.84228516 C111.2659668 328.8390625 110.11225586 328.83583984 108.92358398 328.83251953 C107.7337793 328.82414062 106.54397461 328.81576172 105.31811523 328.80712891 C104.10510742 328.80261719 102.89209961 328.79810547 101.64233398 328.79345703 C98.65921017 328.78171245 95.67618844 328.76528731 92.69311523 328.74462891 C92.70310799 330.450187 92.70310799 330.450187 92.71330261 332.19020081 C92.77416988 342.9160594 92.8191149 353.64188285 92.84855175 364.3678751 C92.86419438 369.88196078 92.88540725 375.3959068 92.91943359 380.90991211 C92.95207675 386.23320319 92.9699788 391.55636011 92.97774696 396.87974358 C92.98328155 398.90868173 92.99408925 400.93761271 93.0103054 402.96649361 C93.03214538 405.81270224 93.03507939 408.65835946 93.03369141 411.50463867 C93.04987015 412.75729019 93.04987015 412.75729019 93.06637573 414.0352478 C93.02471111 421.95320424 90.28619445 429.00112458 84.69311523 434.74462891 C81.81137542 436.68243662 78.82629532 438.25498336 75.69311523 439.74462891 C75.03311523 440.07462891 74.37311523 440.40462891 73.69311523 440.74462891 C71.83693517 440.86117749 69.97663425 440.91430925 68.11694336 440.9375 C66.36371765 440.96159439 66.36371765 440.96159439 64.57507324 440.98617554 C59.20230591 441.03067183 53.82968613 441.07216853 48.45678711 441.09472656 C45.62832879 441.10800723 42.80060202 441.13574578 39.97241211 441.17675781 C35.8896081 441.2359558 31.80757674 441.25343921 27.72436523 441.26806641 C26.46982544 441.29073578 25.21528564 441.31340515 23.92272949 441.33676147 C15.32834547 441.31624757 8.25049997 439.9916947 1.78967285 433.97079468 C-4.38699338 427.27227953 -6.46804957 420.41062603 -6.36938477 411.43212891 C-6.36036133 410.36349609 -6.35133789 409.29486328 -6.34204102 408.19384766 C-6.32463867 406.98148437 -6.32463867 406.98148437 -6.30688477 405.74462891 C-7.40677734 405.77081299 -8.50666992 405.79699707 -9.63989258 405.82397461 C-13.72480894 405.91454769 -17.8096368 405.97190324 -21.89526367 406.01928711 C-23.66266815 406.04441531 -25.42996887 406.07852407 -27.19702148 406.12182617 C-29.73911126 406.18255625 -32.27982642 406.21085406 -34.82250977 406.23291016 C-36.0055368 406.2716198 -36.0055368 406.2716198 -37.21246338 406.31111145 C-41.16465727 406.31312716 -42.89408903 406.13936811 -45.80175781 403.35888672 C-47.33510543 400.69561238 -47.87467361 399.22321338 -47.86938477 396.18212891 C-47.89129883 395.43833984 -47.91321289 394.69455078 -47.93579102 393.92822266 C-46.97690629 390.59892723 -45.17298145 389.61019172 -42.30688477 387.74462891 C-38.96357727 387.24583435 -38.96357727 387.24583435 -35.10498047 387.24633789 C-34.39854904 387.24081909 -33.69211761 387.23530029 -32.96427917 387.22961426 C-31.43601059 387.22031691 -29.90766453 387.22017041 -28.37938881 387.22820854 C-25.95209521 387.24088228 -23.52593178 387.22950724 -21.09867859 387.21217346 C-16.81333741 387.18548232 -12.52827419 387.17987672 -8.24285889 387.18127441 C-1.40255681 387.18350237 5.4373985 387.16910122 12.27756691 387.12568855 C14.6538771 387.11593188 17.02963167 387.12452785 19.40592957 387.13438416 C29.81664803 387.12043835 39.75487014 386.76692878 47.68920898 379.21728516 C51.77106747 374.18060598 54.68398023 368.40037964 57.6809082 362.67480469 C59.0448184 360.07396677 60.46323676 357.50413423 61.88061523 354.93212891 C62.34338867 354.07103516 62.80616211 353.20994141 63.28295898 352.32275391 C64.266303 350.52495044 65.28207465 348.74466904 66.32202148 346.97900391 C66.85698242 346.05603516 67.39194336 345.13306641 67.94311523 344.18212891 C68.42264648 343.37646484 68.90217773 342.57080078 69.39624023 341.74072266 C70.61049756 338.93549565 71.20399132 336.54353958 71.77416992 333.55737305 C72.03505402 332.20573814 72.03505402 332.20573814 72.3012085 330.82679749 C72.43053772 330.13968185 72.55986694 329.45256622 72.69311523 328.74462891 C71.76380912 328.74739429 71.76380912 328.74739429 70.81572914 328.75021553 C55.70741639 328.79447709 40.59912368 328.8275255 25.49076271 328.84825325 C18.18432912 328.8585447 10.87793893 328.87256404 3.5715332 328.89550781 C-2.80030461 328.91550721 -9.17211096 328.92836082 -15.54397929 328.9328059 C-18.91458637 328.93540224 -22.2851035 328.94145979 -25.65568161 328.95608902 C-29.42797879 328.97066136 -33.20009119 328.97260442 -36.97241211 328.97167969 C-38.07724945 328.97887024 -39.18208679 328.98606079 -40.32040405 328.99346924 C-50.25024262 328.96722576 -58.60242439 328.44415967 -66.30688477 321.74462891 C-66.30688477 321.08462891 -66.30688477 320.42462891 -66.30688477 319.74462891 C-66.96688477 319.74462891 -67.62688477 319.74462891 -68.30688477 319.74462891 C-72.32735841 316.05191127 -75.15921951 312.1386556 -76.30688477 306.74462891 C-76.3314228 304.74477944 -76.33462135 302.74443657 -76.30688477 300.74462891 C-76.97703771 300.74831608 -77.64719065 300.75200325 -78.33765125 300.75580215 C-94.68137804 300.84433078 -111.02502838 300.91042456 -127.3689394 300.95187759 C-135.27290294 300.97245937 -143.17670594 301.00049547 -151.08056641 301.04638672 C-157.97356584 301.08638948 -164.86644894 301.11209356 -171.75956124 301.12098289 C-175.40585154 301.12617505 -179.05180917 301.13828548 -182.69799232 301.16754913 C-186.77911448 301.20003461 -190.85966676 301.20057976 -194.94091797 301.19873047 C-196.13566742 301.21311157 -197.33041687 301.22749268 -198.56137085 301.24230957 C-209.77563981 301.18753609 -218.49095124 298.13876934 -227.24438477 291.18212891 C-227.92259277 290.6590918 -228.60080078 290.13605469 -229.29956055 289.59716797 C-234.63408998 285.42450332 -239.61915825 280.9418202 -244.54125977 276.29541016 C-248.0005021 273.10489427 -251.63402459 270.19227574 -255.34594727 267.30322266 C-259.2187836 264.2250121 -259.2187836 264.2250121 -259.67797852 261.72119141 C-259.85628236 255.40713777 -259.85628236 255.40713777 -257.18188477 252.18212891 C-253.6753008 250.42883692 -252.17675253 249.98583131 -248.30688477 250.74462891 C-245.39189882 252.43081515 -242.89617061 254.60205691 -240.30688477 256.74462891 C-238.69208605 258.01311169 -237.07704255 259.28129321 -235.45825195 260.54467773 C-231.07781119 263.96606928 -226.72057462 267.4170903 -222.36157227 270.86572266 C-221.72429199 271.36885986 -221.08701172 271.87199707 -220.43041992 272.39038086 C-219.20231356 273.36003117 -217.97538128 274.33117078 -216.74975586 275.30395508 C-213.67791838 277.75187321 -213.67791838 277.75187321 -210.30688477 279.74462891 C-210.30688477 280.40462891 -210.30688477 281.06462891 -210.30688477 281.74462891 C-144.47188477 282.23962891 -144.47188477 282.23962891 -77.30688477 282.74462891 C-77.30688477 267.89462891 -77.30688477 253.04462891 -77.30688477 237.74462891 C-82.51091064 237.76557617 -87.71493652 237.78652344 -93.07666016 237.80810547 C-110.25553925 237.87433398 -127.43442332 237.91875153 -144.61339664 237.95187759 C-155.0307421 237.97249935 -165.44796657 238.00061265 -175.86523438 238.04638672 C-184.94534509 238.08626621 -194.02536819 238.11206453 -203.10556406 238.12098289 C-207.91311295 238.12619573 -212.72041119 238.13843989 -217.52787971 238.16754913 C-222.05457344 238.19473575 -226.58091366 238.20306733 -231.10768127 238.19705963 C-232.76730712 238.19815842 -234.42694501 238.20609304 -236.08650017 238.22145081 C-238.35721561 238.24143037 -240.62660635 238.23654022 -242.89735413 238.22564697 C-244.16666306 238.22933414 -245.435972 238.23302132 -246.74374485 238.23682022 C-251.24803169 237.61462437 -253.58251549 236.33525533 -257.30688477 233.74462891 C-259.92493524 226.61771372 -256.55791025 218.93723365 -253.91455078 212.19140625 C-252.12430417 207.43058833 -250.85800993 202.57826787 -249.59985352 197.65478516 C-249.0908556 195.71643236 -248.58106546 193.77828745 -248.07055664 191.84033203 C-247.27965764 188.8231443 -246.49384089 185.80500032 -245.72167969 182.78295898 C-244.96733546 179.84012961 -244.19155223 176.90361736 -243.41235352 173.96728516 C-243.19024704 173.07638687 -242.96814056 172.18548859 -242.73930359 171.26759338 C-240.11146787 161.51040412 -235.14779687 153.84972586 -226.30688477 148.74462891 C-218.48548243 145.41255515 -210.79725023 145.33248815 -202.41186523 145.40405273 C-201.04094969 145.40490074 -199.6700328 145.40442049 -198.29911804 145.40272522 C-194.60755726 145.40187059 -190.91629373 145.4194091 -187.22480154 145.44044709 C-183.35578545 145.45930352 -179.48676125 145.46097135 -175.6177063 145.46452332 C-168.30457694 145.47381761 -160.99158341 145.49839563 -153.67851365 145.52857178 C-145.34714146 145.56219764 -137.01576252 145.57862231 -128.68433928 145.59365809 C-111.55844277 145.62494778 -94.43267817 145.6776569 -77.30688477 145.74462891 C-77.30688477 144.42462891 -77.30688477 143.10462891 -77.30688477 141.74462891 C-79.03974731 141.76819458 -79.03974731 141.76819458 -80.80761719 141.79223633 C-85.10328164 141.8466326 -89.39891577 141.88101424 -93.69482422 141.90942383 C-95.55229822 141.92448837 -97.40973677 141.944944 -99.26708984 141.97094727 C-101.94060016 142.00743349 -104.61363921 142.0243786 -107.28735352 142.03759766 C-108.11462448 142.05308151 -108.94189545 142.06856537 -109.79423523 142.08451843 C-114.49027516 142.0858819 -117.46439667 141.73970342 -121.30688477 138.74462891 C-123.68814389 136.36336979 -123.65210118 135.63755353 -123.74438477 132.36962891 C-123.7843457 131.59876953 -123.82430664 130.82791016 -123.86547852 130.03369141 C-123.00454857 126.50568476 -121.36761184 125.64248508 -118.30688477 123.74462891 C-115.1564063 123.14522802 -112.05027127 123.13976834 -108.84985352 123.13525391 C-107.94689041 123.11871765 -107.04392731 123.1021814 -106.11360168 123.08514404 C-103.24045988 123.03670834 -100.3678472 123.01530303 -97.49438477 122.99462891 C-95.54188425 122.96646551 -93.58940834 122.93653756 -91.63696289 122.90478516 C-86.86031375 122.83095054 -82.08395758 122.78134884 -77.30688477 122.74462891 C-77.31687752 121.37186043 -77.31687752 121.37186043 -77.32707214 119.97135925 C-77.3874178 111.30700508 -77.43297776 102.64272246 -77.46232128 93.97820568 C-77.47791469 89.52468519 -77.49903603 85.07133972 -77.53320312 80.61791992 C-77.56602396 76.31257237 -77.58378523 72.00739218 -77.59151649 67.70192909 C-77.59701952 66.06704388 -77.60776453 64.43216685 -77.62407494 62.79735374 C-77.84867033 39.33263596 -77.84867033 39.33263596 -69.19750977 30.46337891 C-61.31624529 23.29859302 -54.40623941 21.41969763 -43.87329102 21.54931641 C-42.99535385 21.5521463 -42.11741669 21.5549762 -41.21287537 21.55789185 C-38.43156832 21.56901292 -35.65059313 21.59410219 -32.86938477 21.61962891 C-30.97420715 21.62966915 -29.07902445 21.63879317 -27.18383789 21.64697266 C-22.55806059 21.66892576 -17.93252879 21.70339931 -13.30688477 21.74462891 C-13.39389648 20.22482422 -13.39389648 20.22482422 -13.48266602 18.67431641 C-13.52959366 17.32280027 -13.57509059 15.97123392 -13.61938477 14.61962891 C-13.68222656 13.62189453 -13.68222656 13.62189453 -13.74633789 12.60400391 C-13.85763326 8.06315287 -12.93003377 5.38835204 -9.91308784 1.99412918 C-6.95543402 -0.30669399 -3.57057102 -0.07083883 0 0 Z M3.69311523 18.74462891 C3.69311523 24.68462891 3.69311523 30.62462891 3.69311523 36.74462891 C23.82311523 36.74462891 43.95311523 36.74462891 64.69311523 36.74462891 C64.69311523 30.80462891 64.69311523 24.86462891 64.69311523 18.74462891 C44.56311523 18.74462891 24.43311523 18.74462891 3.69311523 18.74462891 Z M-221.54772949 167.04469299 C-223.56545362 170.13908313 -223.56545362 170.13908313 -224.96435547 173.51123047 C-225.19410065 174.19995239 -225.42384583 174.88867432 -225.66055298 175.5982666 C-225.98048721 176.66071594 -225.98048721 176.66071594 -226.30688477 177.74462891 C-226.62210587 178.78629211 -226.62210587 178.78629211 -226.94369507 179.84899902 C-227.5848278 182.05250924 -228.19115133 184.26293081 -228.78735352 186.47900391 C-229.00506912 187.27945129 -229.22278473 188.07989868 -229.44709778 188.90460205 C-229.90190508 190.58138098 -230.35473799 192.25869659 -230.80566406 193.93652344 C-231.49672147 196.5033081 -232.19734155 199.067356 -232.89868164 201.63134766 C-233.34131629 203.26791036 -233.7833934 204.90462398 -234.22485352 206.54150391 C-234.43418015 207.30509216 -234.64350677 208.06868042 -234.85917664 208.85540771 C-235.77903495 212.30573336 -236.30688477 215.1458944 -236.30688477 218.74462891 C-237.29688477 219.23962891 -237.29688477 219.23962891 -238.30688477 219.74462891 C-184.84688477 219.74462891 -131.38688477 219.74462891 -76.30688477 219.74462891 C-76.63688477 201.59462891 -76.96688477 183.44462891 -77.30688477 164.74462891 C-95.60465564 164.63176759 -113.90214478 164.53966002 -132.20017529 164.48556805 C-140.69623969 164.4597848 -149.19207252 164.4246322 -157.68798828 164.36743164 C-165.09292563 164.31760009 -172.49769526 164.28533876 -179.90279561 164.27418643 C-183.82394472 164.26766715 -187.74461402 164.25234327 -191.66560936 164.21597862 C-195.35683243 164.18202254 -199.04737841 164.17157482 -202.73874283 164.1790905 C-204.73816312 164.17706057 -206.73750978 164.15016325 -208.73674011 164.12252808 C-215.58955798 164.05470247 -215.58955798 164.05470247 -221.54772949 167.04469299 Z M72.38061523 202.93212891 C63.39102944 214.86008624 60.84351309 226.98672495 61.69311523 241.74462891 C63.54959733 254.7400036 70.1785008 264.87455287 79.69311523 273.74462891 C82.88244195 276.08146263 86.16216818 277.97360358 89.69311523 279.74462891 C90.49233398 280.14552734 91.29155273 280.54642578 92.11499023 280.95947266 C103.75308806 286.4465624 116.66531689 286.05894788 128.69311523 281.74462891 C140.12435077 276.43726955 149.05937881 267.9750377 154.69311523 256.74462891 C155.04374023 256.04595703 155.39436523 255.34728516 155.75561523 254.62744141 C156.73863996 252.58978419 156.73863996 252.58978419 157.69311523 249.74462891 C157.36311523 249.08462891 157.03311523 248.42462891 156.69311523 247.74462891 C157.35311523 247.74462891 158.01311523 247.74462891 158.69311523 247.74462891 C160.60284502 237.71854755 161.03831033 227.14275921 156.69311523 217.74462891 C156.08983398 216.34664062 156.08983398 216.34664062 155.47436523 214.92041016 C150.20123249 203.48064162 143.32306302 194.09509305 131.69311523 188.74462891 C130.80108398 188.33341797 129.90905273 187.92220703 128.98999023 187.49853516 C108.76052991 179.51176735 85.77166854 186.01463254 72.38061523 202.93212891 Z M74.69311523 367.74462891 C73.80403531 369.1072987 72.96499509 370.50264284 72.14624023 371.90869141 C71.63061523 372.78396484 71.11499023 373.65923828 70.58374023 374.56103516 C69.50417286 376.40915169 68.42600877 378.25808878 67.34936523 380.10791016 C63.22932067 387.09362928 59.7155941 393.03917364 52.38061523 396.99462891 C49.78080668 398.36316233 49.78080668 398.36316233 47.69311523 399.74462891 C47.69311523 400.40462891 47.69311523 401.06462891 47.69311523 401.74462891 C39.65918793 404.74778192 32.09161591 405.27242734 23.56811523 405.43212891 C22.32545898 405.46628906 21.08280273 405.50044922 19.80249023 405.53564453 C16.76612226 405.6173929 13.73001656 405.68678012 10.69311523 405.74462891 C10.65756679 407.34863473 10.63217003 408.95286778 10.61108398 410.55712891 C10.59585693 411.45044922 10.58062988 412.34376953 10.56494141 413.26416016 C10.73135671 416.48469244 11.62367997 418.29196489 13.69311523 420.74462891 C16.9983998 422.94815195 18.06102271 423.00733011 21.91137695 423.05102539 C23.50851028 423.07500648 23.50851028 423.07500648 25.13790894 423.09947205 C26.86293137 423.1075161 26.86293137 423.1075161 28.62280273 423.11572266 C29.80528595 423.12475113 30.98776917 423.1337796 32.20608521 423.14308167 C34.7093858 423.15759962 37.21272448 423.16647472 39.71606445 423.17016602 C43.54630469 423.18206117 47.37493394 423.23123465 51.20483398 423.28173828 C53.63581569 423.2912023 56.06680731 423.29843744 58.49780273 423.30322266 C60.21675247 423.33252113 60.21675247 423.33252113 61.97042847 423.3624115 C66.66235198 423.33578718 69.79362456 423.25142058 73.92480469 420.92382812 C76.6045002 416.10607376 76.3124382 411.7414179 76.18139648 406.31884766 C76.17432175 405.21612015 76.16724701 404.11339264 76.15995789 402.97724915 C76.13201012 399.46151374 76.06926689 395.94738147 76.00561523 392.43212891 C75.98053304 390.04608423 75.95771974 387.66001454 75.93725586 385.27392578 C75.88218215 379.43028153 75.79855068 373.58756976 75.69311523 367.74462891 C75.36311523 367.74462891 75.03311523 367.74462891 74.69311523 367.74462891 Z " fill="#F7921C" transform="translate(335.306884765625,30.25537109375)"/>
<path d="M0 0 C1.3026757 -0.00287018 1.3026757 -0.00287018 2.63166809 -0.00579834 C4.4561899 -0.00715237 6.2807216 -0.0035109 8.10522461 0.00488281 C10.89654065 0.01563274 13.68721887 0.00494099 16.47851562 -0.0078125 C18.25651183 -0.00649153 20.03450765 -0.00393043 21.8125 0 C22.64484665 -0.00404846 23.4771933 -0.00809692 24.33476257 -0.01226807 C31.59689061 0.04658369 31.59689061 0.04658369 34.70703125 2.265625 C36.77169627 4.92019431 36.70388062 6.3538426 36.58203125 9.765625 C35.6295993 13.57535281 34.7849696 14.91190744 31.70703125 17.265625 C27.9920351 18.50395705 24.54030994 18.40103837 20.671875 18.40625 C19.04100183 18.42459361 17.41014211 18.44416533 15.77929688 18.46484375 C13.22088146 18.49366409 10.66332396 18.51562139 8.10473633 18.51611328 C-5.96930353 18.23930816 -5.96930353 18.23930816 -18.29296875 24.265625 C-24.39900441 30.39971881 -25.7907266 40.15208181 -27.91796875 48.265625 C-28.49167777 50.4131574 -29.06919552 52.55958455 -29.65048218 54.70507812 C-30.17592161 56.6504458 -30.69107077 58.59858442 -31.20556641 60.546875 C-31.97870202 63.19088077 -32.79726506 65.66519605 -33.78588867 68.22241211 C-35.32952437 72.23658114 -36.43575439 76.29235998 -37.4921875 80.45703125 C-37.90018804 81.9945407 -38.30974082 83.53163893 -38.72070312 85.06835938 C-39.35547311 87.45015768 -39.98159795 89.83262301 -40.58178711 92.22338867 C-44.760424 108.77636908 -44.760424 108.77636908 -53.29296875 114.265625 C-54.49676985 115.30961992 -55.6864275 116.37034845 -56.85546875 117.453125 C-61.39049115 121.42915855 -66.11533813 125.16598127 -70.83813477 128.91479492 C-72.07494905 129.89665258 -73.30769897 130.88365387 -74.53613281 131.87597656 C-76.15463739 133.15620559 -77.82742697 134.36700012 -79.50390625 135.5703125 C-84.14490393 140.05531026 -85.99150271 144.86339167 -86.7890625 151.21875 C-86.79497528 152.65116262 -86.77363703 154.08385079 -86.73046875 155.515625 C-86.71798096 156.32845947 -86.70549316 157.14129395 -86.69262695 157.97875977 C-86.44700431 167.40044185 -85.69818814 176.80782145 -84.98046875 186.203125 C-84.89259598 187.39536682 -84.89259598 187.39536682 -84.802948 188.61169434 C-83.76604906 202.38989519 -82.46822048 215.02826935 -74.91796875 226.953125 C-73.93009722 228.57939819 -72.94439395 230.20699058 -71.9609375 231.8359375 C-71.49606934 232.5980957 -71.03120117 233.36025391 -70.55224609 234.14550781 C-68.5520145 237.51309431 -66.84765013 241.00293177 -65.1953125 244.55078125 C-64.30182013 246.45443287 -64.30182013 246.45443287 -62.29296875 248.265625 C-61.75671875 249.338125 -61.22046875 250.410625 -60.66796875 251.515625 C-57.56924205 257.0129957 -53.03538718 260.35517136 -47.09136963 262.32852173 C-40.54749117 263.89389922 -33.81431081 263.54104996 -27.12792969 263.52099609 C-25.59631159 263.52374942 -24.06469492 263.52743139 -22.53308105 263.53196716 C-19.2483095 263.54004782 -15.96360589 263.54225564 -12.67882538 263.54001999 C-7.48506647 263.53717786 -2.29144257 263.55157021 2.90228271 263.56900024 C17.66628016 263.61594821 32.43026709 263.63998181 47.19433594 263.64648438 C55.35859698 263.65023185 63.52270396 263.66822959 71.68689895 263.70157874 C76.85083623 263.72181013 82.01437675 263.72415558 87.17833757 263.71329856 C90.38642998 263.71069541 93.5942901 263.72467461 96.80232239 263.74337959 C98.29064336 263.74871062 99.77900686 263.74718922 101.2673111 263.73834419 C103.29735101 263.72725121 105.32748492 263.74297552 107.35748291 263.76010132 C108.49380283 263.76119085 109.63012276 263.76228039 110.80087662 263.76340294 C114.37474982 264.38101562 115.51213012 265.4307027 117.70703125 268.265625 C118.95703125 271.515625 118.95703125 271.515625 119.70703125 274.265625 C119.04703125 274.265625 118.38703125 274.265625 117.70703125 274.265625 C117.55234375 275.4103125 117.55234375 275.4103125 117.39453125 276.578125 C116.64115587 279.52313784 116.15410027 280.51771856 113.70703125 282.265625 C110.35661987 283.09895623 107.26025076 283.38239805 103.81584167 283.34791565 C102.85816895 283.34087616 101.90049622 283.33383667 100.9138031 283.32658386 C99.87514603 283.31363785 98.83648895 283.30069183 97.76635742 283.28735352 C96.11203201 283.2729422 96.11203201 283.2729422 94.42428589 283.25823975 C90.78279156 283.22528727 87.14141859 283.18494042 83.5 283.14453125 C80.97366258 283.12022648 78.44732069 283.0963831 75.92097473 283.07298279 C69.95350547 283.01659507 63.98610133 282.95555784 58.01870281 282.89226145 C51.22310859 282.82044031 44.42746075 282.75456861 37.63180196 282.68919098 C23.65680882 282.55461158 9.68189935 282.41257919 -4.29296875 282.265625 C-4.27484131 283.21969238 -4.25671387 284.17375977 -4.23803711 285.15673828 C-4.22393799 286.41212402 -4.20983887 287.66750977 -4.1953125 288.9609375 C-4.16812134 290.82516357 -4.16812134 290.82516357 -4.14038086 292.72705078 C-4.47209712 300.41968362 -8.24118165 305.6663783 -13.0234375 311.44140625 C-20.62298539 317.54982082 -28.53529559 317.86987988 -37.98046875 317.83203125 C-39.27815186 317.83822983 -40.57583496 317.84442841 -41.9128418 317.85081482 C-44.64617824 317.86116308 -47.37899227 317.85673847 -50.11230469 317.84204102 C-53.59248455 317.82484665 -57.07101414 317.84838219 -60.55101013 317.88353062 C-63.9025899 317.91093131 -67.25378258 317.90076091 -70.60546875 317.89453125 C-71.84321045 317.90778946 -73.08095215 317.92104767 -74.35620117 317.93470764 C-83.15994013 317.8405235 -88.88627001 316.00758444 -95.59765625 310.30859375 C-96.11585937 309.69628906 -96.6340625 309.08398438 -97.16796875 308.453125 C-97.70164062 307.84855469 -98.2353125 307.24398438 -98.78515625 306.62109375 C-102.85895418 300.25710372 -103.73227752 294.40057609 -103.64941406 287.03564453 C-103.65248062 285.70734871 -103.65248062 285.70734871 -103.65560913 284.35221863 C-103.65859624 281.45074218 -103.64020872 278.54984556 -103.62109375 275.6484375 C-103.61803356 273.6244216 -103.61615942 271.60040358 -103.61541748 269.5763855 C-103.61082812 265.3483669 -103.59644953 261.12054022 -103.57421875 256.89257812 C-103.54582873 251.46508122 -103.53499482 246.03773449 -103.53053665 240.61017036 C-103.52638852 236.43757621 -103.51657789 232.26501256 -103.50466156 228.09243393 C-103.49895535 226.0900891 -103.4941978 224.08774134 -103.49039459 222.085392 C-103.48354732 219.29662109 -103.46992502 216.50797087 -103.45410156 213.71923828 C-103.4529837 212.88807999 -103.45186584 212.05692169 -103.45071411 211.20057678 C-103.4076694 205.49502629 -103.4076694 205.49502629 -102.29296875 203.265625 C-101.80710512 196.0437623 -102.62106918 188.82390443 -103.29296875 181.640625 C-104.03370968 172.89201571 -104.55705245 164.17103636 -104.66796875 155.390625 C-104.70664063 153.95855713 -104.70664063 153.95855713 -104.74609375 152.49755859 C-104.78578997 138.33841453 -98.11346946 129.17229944 -88.66796875 119.328125 C-82.14917503 112.92949338 -74.8894905 107.32997283 -67.29296875 102.265625 C-68.59471588 99.36172755 -69.72763298 97.18633447 -72.29296875 95.265625 C-75.48878645 94.80615532 -75.48878645 94.80615532 -79.15625 94.859375 C-79.82585251 94.84853882 -80.49545502 94.83770264 -81.18534851 94.82653809 C-83.32548643 94.79229214 -85.46509304 94.77669632 -87.60546875 94.765625 C-90.41456844 94.75098598 -93.22249496 94.7171351 -96.03125 94.671875 C-97.903573 94.66124023 -97.903573 94.66124023 -99.8137207 94.65039062 C-105.73344862 93.99573543 -109.90174114 91.15499802 -114.29296875 87.265625 C-116.07134488 83.70887275 -115.52043953 79.62039284 -115.54296875 75.703125 C-115.56359375 74.83365234 -115.58421875 73.96417969 -115.60546875 73.06835938 C-115.64203657 66.93867896 -114.58869335 61.94520611 -112.29296875 56.265625 C-111.63296875 56.265625 -110.97296875 56.265625 -110.29296875 56.265625 C-110.08671875 55.6675 -109.88046875 55.069375 -109.66796875 54.453125 C-107.7202185 51.35443142 -105.65564269 50.65673989 -102.29296875 49.265625 C-97.77554478 48.71736299 -93.26340907 48.75027001 -88.71777344 48.76464844 C-86.56177311 48.76561656 -84.40938996 48.72403902 -82.25390625 48.6796875 C-72.44550696 48.59317406 -65.29770573 50.15715181 -57.56640625 56.50390625 C-56.93992188 57.18839844 -56.3134375 57.87289062 -55.66796875 58.578125 C-55.01570313 59.27550781 -54.3634375 59.97289062 -53.69140625 60.69140625 C-53.22992188 61.21089844 -52.7684375 61.73039062 -52.29296875 62.265625 C-51.63296875 60.615625 -50.97296875 58.965625 -50.29296875 57.265625 C-49.63296875 57.265625 -48.97296875 57.265625 -48.29296875 57.265625 C-48.17977295 56.67064209 -48.06657715 56.07565918 -47.94995117 55.46264648 C-41.01228267 19.8044851 -41.01228267 19.8044851 -28.29296875 9.265625 C-27.63296875 9.265625 -26.97296875 9.265625 -26.29296875 9.265625 C-26.29296875 8.605625 -26.29296875 7.945625 -26.29296875 7.265625 C-24.77626511 6.46607499 -23.25434877 5.67641112 -21.73046875 4.890625 C-20.88355469 4.44976562 -20.03664063 4.00890625 -19.1640625 3.5546875 C-12.65477405 0.63214983 -7.05109074 -0.03454795 0 0 Z M-97.29296875 66.265625 C-97.95296875 69.565625 -98.61296875 72.865625 -99.29296875 76.265625 C-98.44065674 76.25515137 -97.58834473 76.24467773 -96.71020508 76.23388672 C-93.5326437 76.19969845 -90.35517643 76.17467427 -87.17749023 76.15576172 C-85.80506292 76.14573574 -84.4326568 76.13211144 -83.06030273 76.11474609 C-81.08196348 76.09034873 -79.10346508 76.08018016 -77.125 76.0703125 C-75.93624268 76.05983887 -74.74748535 76.04936523 -73.52270508 76.03857422 C-68.1929753 76.41325475 -65.10712603 78.05063494 -61.48046875 81.890625 C-60.87589844 82.52226562 -60.27132812 83.15390625 -59.6484375 83.8046875 C-59.20113281 84.28679687 -58.75382812 84.76890625 -58.29296875 85.265625 C-58.29296875 80.71230644 -61.03845816 78.54893931 -63.91796875 75.203125 C-64.70107422 74.24696289 -64.70107422 74.24696289 -65.5 73.27148438 C-68.7778601 69.4311273 -71.15098495 67.16547217 -76.29296875 66.265625 C-79.92439931 66.06024379 -83.53232139 66.07658243 -87.16796875 66.140625 C-88.1425 66.14964844 -89.11703125 66.15867187 -90.12109375 66.16796875 C-92.51182547 66.1914073 -94.90242974 66.22727411 -97.29296875 66.265625 Z M-86.29296875 244.265625 C-86.4198069 251.29464438 -86.50733619 258.3233684 -86.56762695 265.35327148 C-86.5927619 267.74433419 -86.62687508 270.13532014 -86.67016602 272.52612305 C-86.73085936 275.96422264 -86.75918947 279.40130596 -86.78125 282.83984375 C-86.80705643 283.90772629 -86.83286285 284.97560883 -86.85945129 286.07585144 C-86.86114463 290.562616 -86.73082643 293.47381817 -84.53613281 297.44262695 C-79.46435168 300.29349941 -74.63607757 299.93992251 -68.9140625 299.859375 C-67.10773094 299.85943542 -67.10773094 299.85943542 -65.26490784 299.85949707 C-62.72220635 299.85414109 -60.17950534 299.83655539 -57.63696289 299.80761719 C-53.74118588 299.7657402 -49.84713613 299.76655113 -45.95117188 299.7734375 C-43.48045672 299.76294593 -41.00975048 299.75000801 -38.5390625 299.734375 C-37.37233505 299.73417358 -36.2056076 299.73397217 -35.00352478 299.73376465 C-33.91882401 299.71785278 -32.83412323 299.70194092 -31.71655273 299.68554688 C-30.2868943 299.67291809 -30.2868943 299.67291809 -28.82835388 299.66003418 C-25.83071746 299.19371634 -24.46474991 298.35893955 -22.29296875 296.265625 C-21.24319911 293.11631607 -21.1916528 290.87748044 -21.23046875 287.578125 C-21.23949219 286.58425781 -21.24851562 285.59039062 -21.2578125 284.56640625 C-21.26941406 283.80714844 -21.28101562 283.04789062 -21.29296875 282.265625 C-22.35773438 282.28882813 -23.4225 282.31203125 -24.51953125 282.3359375 C-36.08264848 282.51002033 -47.27180206 282.19821521 -58.29296875 278.265625 C-58.29296875 277.605625 -58.29296875 276.945625 -58.29296875 276.265625 C-60.08317694 274.95636763 -60.08317694 274.95636763 -62.35546875 273.640625 C-70.75370603 268.19098513 -75.3972589 260.81625873 -80.29296875 252.265625 C-81.22166205 250.71863724 -82.15845667 249.17646694 -83.10546875 247.640625 C-83.50378906 246.98835937 -83.90210938 246.33609375 -84.3125 245.6640625 C-84.63605469 245.20257813 -84.95960937 244.74109375 -85.29296875 244.265625 C-85.62296875 244.265625 -85.95296875 244.265625 -86.29296875 244.265625 Z " fill="#F7921C" transform="translate(115.29296875,153.734375)"/>
<path d="M0 0 C0.77193927 -0.00438225 1.54387854 -0.00876451 2.33920991 -0.01327956 C4.94004006 -0.02669237 7.5408363 -0.03285203 10.14169312 -0.03897095 C12.00090692 -0.04687009 13.86011919 -0.05513893 15.71932983 -0.06375122 C21.83845551 -0.08999763 27.95758811 -0.10528356 34.07675171 -0.11953735 C36.18217346 -0.12489635 38.28759516 -0.13027386 40.39301682 -0.13566971 C49.1515805 -0.15730414 57.91014232 -0.17604042 66.66872597 -0.1872921 C79.22457625 -0.20352708 91.78011684 -0.23668762 104.33585036 -0.29369295 C113.16142044 -0.3323969 121.98690771 -0.35192546 130.81256044 -0.35721266 C136.08459892 -0.36086608 141.35630729 -0.37288617 146.62825394 -0.4053154 C151.59086869 -0.43540307 156.55295374 -0.44170526 161.51564026 -0.42993164 C163.33449147 -0.42971095 165.1533673 -0.4380122 166.97213364 -0.45558548 C183.56037893 -0.60710378 183.56037893 -0.60710378 189.25003624 3.76328087 C192.82752116 7.4479889 194.78088012 11.0622473 195.28768921 16.21640015 C194.95698184 23.59371831 190.52530156 32.31818002 185.29940796 37.3843689 C179.53810492 41.16131575 175.05395195 42.52873652 168.16856384 42.53485107 C167.09612668 42.54187103 167.09612668 42.54187103 166.00202411 42.54903281 C163.62382706 42.56092883 161.24621205 42.55154709 158.86801147 42.54208374 C157.1558397 42.54615189 155.44367055 42.55149513 153.73150635 42.55801392 C149.09303615 42.57166543 144.45476661 42.56639753 139.816293 42.55687666 C134.95534818 42.54926763 130.09442024 42.55632924 125.23347473 42.56103516 C117.07011845 42.5664896 108.90684366 42.55930979 100.74349976 42.54501343 C91.31573246 42.52869299 81.88815987 42.53397228 72.4603973 42.55049264 C64.35657195 42.56412289 56.25280509 42.56601948 48.14897197 42.55817664 C43.31306865 42.55350788 38.47725672 42.5528532 33.64135933 42.5627861 C29.09323043 42.57147569 24.54535159 42.56539753 19.9972496 42.54810333 C18.3316114 42.54414888 16.66595202 42.54525464 15.00032234 42.55189133 C-2.85926901 42.61647157 -2.85926901 42.61647157 -9.57168579 37.49765015 C-14.90923874 31.26169719 -18.45513134 24.16972727 -18.83731079 15.84140015 C-18.18348484 10.33058145 -16.52490941 6.92491975 -12.33731079 3.34140015 C-8.00398647 0.11445651 -5.24727169 0.00358774 0 0 Z M-0.39981079 18.15390015 C-0.06981079 19.80390015 0.26018921 21.45390015 0.60018921 23.15390015 C3.51341464 24.61051286 6.06395505 24.28663628 9.31906128 24.29434204 C10.36693904 24.29879872 10.36693904 24.29879872 11.43598604 24.30334544 C13.78825845 24.31205099 16.14048007 24.31354223 18.49276733 24.31503296 C20.17452606 24.31965971 21.85628372 24.32468418 23.53804016 24.33007812 C28.11435595 24.34321534 32.69065705 24.34964931 37.26698875 24.35408878 C40.1230578 24.35701655 42.9791228 24.36112073 45.83518982 24.36559296 C54.76259642 24.37926955 63.68999383 24.38893619 72.61741018 24.39279485 C82.9393203 24.39728027 93.26109831 24.41484987 103.58296824 24.44379544 C111.55155413 24.46537001 119.52010274 24.47549681 127.48871756 24.47683597 C132.25298224 24.47788677 137.01712275 24.48385298 141.78135681 24.50165558 C146.25960888 24.51806407 150.73764247 24.52032721 155.21591377 24.51151657 C156.86311488 24.51074238 158.51032739 24.51513883 160.15749931 24.52497482 C162.39903671 24.53757938 164.63978668 24.53188146 166.88131714 24.52139282 C168.13788872 24.52285938 169.3944603 24.52432594 170.6891098 24.52583694 C171.64976601 24.4030978 172.61042221 24.28035866 173.60018921 24.15390015 C175.87753931 21.33880021 175.87753931 21.33880021 175.60018921 18.15390015 C117.52018921 18.15390015 59.44018921 18.15390015 -0.39981079 18.15390015 Z " fill="#F7921C" transform="translate(132.39981079101563,369.8460998535156)"/>
<path d="M0 0 C0.76054688 0.4125 1.52109375 0.825 2.3046875 1.25 C8.81349595 5.10707167 14.47616505 10.89168965 16.6875 18.3046875 C16.790625 18.86414063 16.89375 19.42359375 17 20 C17.66 20 18.32 20 19 20 C21.95653783 29.15458098 23.08120504 39.81186136 18.75 48.6875 C17.87319638 50.14965575 16.96103617 51.59177647 16 53 C15.38125 53.94875 14.7625 54.8975 14.125 55.875 C8.24683971 61.75316029 1.95827737 63.154818 -6.125 63.3125 C-17.05830267 63.30063174 -23.85562317 60.02340682 -31.734375 52.50390625 C-39.81864155 43.56939787 -42.86176031 33.90397294 -43 22 C-42.2412001 14.30360099 -39.4916921 6.99758426 -33.75 1.6875 C-23.74756303 -6.05700288 -10.82874493 -6.39335494 0 0 Z M-23.6875 16.875 C-25.84663002 22.01578577 -25.95548686 26.90808748 -24.3046875 32.25 C-21.55701177 38.34568397 -17.83204931 41.86718028 -11.5625 44.375 C-6.14680164 45.32512252 -2.66441504 45.13321875 1.9375 42 C4.36981967 38.46208048 4.67330917 36.47797562 4.421875 32.2734375 C3.11752792 25.24445603 -1.87746438 20.66333921 -7.125 16.1875 C-12.54407733 13.94918545 -18.76940945 13.44377404 -23.6875 16.875 Z " fill="#F7921C" transform="translate(79,302)"/>
<path d="M0 0 C1.28016998 -0.00861557 2.56033997 -0.01723114 3.87930298 -0.02610779 C7.38349893 -0.04858109 10.8872428 -0.0456674 14.39148331 -0.03678632 C17.31901068 -0.03167133 20.24645347 -0.03897299 23.17397213 -0.04625839 C30.08057506 -0.06325039 36.986957 -0.05969824 43.89355469 -0.04296875 C51.01526882 -0.02604116 58.1363703 -0.04189169 65.25801754 -0.07419163 C71.37708791 -0.10089145 77.4959676 -0.10816275 83.61509037 -0.09967655 C87.26781376 -0.0947492 90.92016841 -0.09695218 94.57284546 -0.11746407 C98.64530678 -0.13923944 102.7166067 -0.12041859 106.7890625 -0.09765625 C107.99752838 -0.10934845 109.20599426 -0.12104065 110.45108032 -0.13308716 C119.54183226 -0.02948239 119.54183226 -0.02948239 122.64306641 2.92811584 C124.45477874 5.62306634 125.05181617 6.88998688 124.95703125 10.09594727 C124.95832031 10.83973633 124.95960938 11.58352539 124.9609375 12.34985352 C124.17150478 15.39325275 122.81034275 16.55135732 120.39453125 18.53344727 C117.82357883 19.03960514 117.82357883 19.03960514 114.86000061 19.04811096 C113.17134636 19.06719765 113.17134636 19.06719765 111.44857788 19.08666992 C110.21781525 19.08014404 108.98705261 19.07361816 107.71899414 19.06689453 C106.41946304 19.0755101 105.11993195 19.08412567 103.78102112 19.09300232 C100.21891903 19.11550593 96.65726105 19.11255447 93.09511495 19.10368085 C90.12041694 19.09857065 87.14580237 19.10586381 84.17111295 19.11315292 C77.15281948 19.13015523 70.13474342 19.12658317 63.11645508 19.10986328 C55.8783177 19.09294249 48.64078342 19.10877457 41.40271193 19.14108616 C35.1859987 19.16778592 28.96947317 19.17505706 22.75270838 19.16657108 C19.0407275 19.16164275 15.32910946 19.16385174 11.61717415 19.1843586 C7.47755437 19.20613329 3.33907723 19.18731308 -0.80053711 19.16455078 C-2.02927551 19.17624298 -3.25801392 19.18793518 -4.52398682 19.19998169 C-13.76483112 19.09637156 -13.76483112 19.09637156 -16.87794495 16.13877869 C-18.73631144 13.33611941 -19.19876499 12.25473186 -18.73046875 8.97094727 C-18.65054687 8.2271582 -18.570625 7.48336914 -18.48828125 6.71704102 C-15.26459007 -1.25660222 -7.235742 -0.03907398 0 0 Z " fill="#F7921C" transform="translate(316.60546875,145.466552734375)"/>
<path d="M0 0 C1.10894119 -0.00852997 2.21788239 -0.01705994 3.36042786 -0.02584839 C4.57248901 -0.02494202 5.78455017 -0.02403564 7.03334045 -0.02310181 C8.31336441 -0.02981903 9.59338837 -0.03653625 10.91220093 -0.04345703 C14.4204715 -0.0611137 17.9286445 -0.06581221 21.43695521 -0.0670886 C23.62939324 -0.06851076 25.82180649 -0.07278154 28.01423836 -0.07808304 C35.66450195 -0.09658104 43.31469587 -0.1047538 50.96498108 -0.10317993 C58.09395868 -0.10197805 65.22263375 -0.12308993 72.35153478 -0.15466726 C78.47479963 -0.18082276 84.5979656 -0.19154756 90.72128588 -0.19026911 C94.37734749 -0.18975933 98.03314012 -0.19545128 101.68914604 -0.21662521 C105.76632745 -0.23959441 109.84283104 -0.23049128 113.9200592 -0.21841431 C115.13009613 -0.22965332 116.34013306 -0.24089233 117.58683777 -0.25247192 C125.74892432 -0.19088355 125.74892432 -0.19088355 129.78872681 2.14544678 C131.89552055 4.69616701 132.21647175 5.98252841 132.16639709 9.26742554 C132.17928772 10.11305054 132.19217834 10.95867554 132.20545959 11.82992554 C131.1906728 15.55479001 129.91067459 16.32026057 126.54139709 18.26742554 C122.30833645 18.87780572 118.09874526 18.81336033 113.82826233 18.78500366 C112.53673248 18.79201294 111.24520264 18.79902222 109.91453552 18.8062439 C106.37939852 18.8244517 102.84472937 18.81742112 99.30958438 18.80472755 C95.60787635 18.79458868 91.90620792 18.80399549 88.20449829 18.81027222 C81.98965778 18.81754516 75.77500754 18.80796937 69.56019592 18.78890991 C62.37604935 18.76713209 55.1923567 18.77420025 48.00822109 18.79621553 C41.83736869 18.81436831 35.66665291 18.81692881 29.49578243 18.80646086 C25.8112955 18.80022641 22.12702195 18.79938893 18.44254875 18.81260681 C14.33647143 18.82630896 10.23117675 18.80731787 6.12513733 18.78500366 C4.90372543 18.79310059 3.68231354 18.80119751 2.42388916 18.80953979 C1.30653381 18.7982605 0.18917847 18.7869812 -0.96203613 18.77536011 C-1.9326426 18.77385201 -2.90324907 18.7723439 -3.90326786 18.7707901 C-7.22099107 18.11724594 -8.39524363 16.89987138 -10.45860291 14.26742554 C-11.38672598 10.62122775 -11.66599429 8.11584484 -10.77110291 4.45492554 C-8.21641533 0.19711291 -4.67769784 0.01627664 0 0 Z " fill="#F7921C" transform="translate(309.45860290527344,103.73257446289063)"/>
<path d="M0 0 C2.21892228 0.00316433 4.43651527 -0.0203406 6.65527344 -0.0456543 C8.0745426 -0.04792723 9.49381532 -0.04863082 10.91308594 -0.04760742 C12.83701172 -0.05207886 12.83701172 -0.05207886 14.79980469 -0.05664062 C19.28922104 0.43126986 21.80015406 2.03278514 25.10058594 5.00317383 C26.82971334 8.55749126 26.173098 11.62737186 25.22558594 15.31567383 C24.31905981 17.82605389 23.31620512 20.27052606 22.26074219 22.72192383 C20.91213249 26.10108171 20.05386696 29.54948819 19.22949219 33.08911133 C17.80406395 36.25056696 16.13381505 37.43031898 13.22558594 39.31567383 C10.5013948 39.70631812 8.19230211 39.87824897 5.47558594 39.84692383 C4.73985352 39.85075073 4.00412109 39.85457764 3.24609375 39.85852051 C1.69627508 39.86123285 0.1464101 39.85391901 -1.40332031 39.8371582 C-3.76764549 39.81573516 -6.12893273 39.83697894 -8.49316406 39.86254883 C-10.0035874 39.85990543 -11.51400885 39.85478018 -13.02441406 39.84692383 C-13.72663086 39.85502075 -14.42884766 39.86311768 -15.15234375 39.87145996 C-19.95293385 39.78032794 -22.40076971 38.7115132 -25.77441406 35.31567383 C-29.0735014 28.71749915 -24.68079308 16.9668184 -22.77441406 10.31567383 C-20.17737246 3.08185409 -20.17737246 3.08185409 -16.59863281 1.12744141 C-11.21179866 -0.42090088 -5.56567523 -0.01664524 0 0 Z M-6.77441406 19.31567383 C-6.77441406 19.97567383 -6.77441406 20.63567383 -6.77441406 21.31567383 C-3.14441406 21.31567383 0.48558594 21.31567383 4.22558594 21.31567383 C4.22558594 20.65567383 4.22558594 19.99567383 4.22558594 19.31567383 C0.59558594 19.31567383 -3.03441406 19.31567383 -6.77441406 19.31567383 Z " fill="#F7921C" transform="translate(361.7744140625,372.684326171875)"/>
<path d="M0 0 C1.06886948 -0.0099852 1.06886948 -0.0099852 2.15933228 -0.02017212 C3.66381254 -0.03027538 5.16833741 -0.03498986 6.67285156 -0.03466797 C8.96234857 -0.03903539 11.24990702 -0.07535849 13.5390625 -0.11328125 C15.00520179 -0.11915134 16.47135017 -0.12311945 17.9375 -0.125 C18.61581879 -0.13937103 19.29413757 -0.15374207 19.99301147 -0.16854858 C24.96245473 -0.12131038 27.76543444 1.245934 31.6015625 4.3359375 C32.73828125 6.203125 32.73828125 6.203125 33.2890625 8.2109375 C33.505625 8.98953125 33.7221875 9.768125 33.9453125 10.5703125 C34.161875 11.48296875 34.3784375 12.395625 34.6015625 13.3359375 C34.88 14.47546875 35.1584375 15.615 35.4453125 16.7890625 C36.80971043 22.72672014 37.98075597 28.20936064 37.6015625 34.3359375 C35.73447745 36.70091189 34.28094819 37.99624465 31.6015625 39.3359375 C29.17923957 39.45879412 26.78674194 39.52426081 24.36328125 39.5390625 C23.64550003 39.54476257 22.92771881 39.55046265 22.18818665 39.55633545 C20.66754633 39.56578702 19.14688551 39.57232006 17.6262207 39.57617188 C15.30838861 39.58585675 12.99145125 39.6168683 10.67382812 39.6484375 C9.19531776 39.65496987 7.71680105 39.66021942 6.23828125 39.6640625 C5.54852707 39.6764093 4.85877289 39.6887561 4.14811707 39.70147705 C-0.20393516 39.68150167 -3.01208926 39.12381137 -6.3984375 36.3359375 C-7.59277344 34.19458008 -7.59277344 34.19458008 -8.3828125 31.73046875 C-8.82560547 30.37791992 -8.82560547 30.37791992 -9.27734375 28.99804688 C-9.56480469 28.05767578 -9.85226563 27.11730469 -10.1484375 26.1484375 C-10.45136719 25.22740234 -10.75429688 24.30636719 -11.06640625 23.35742188 C-15.4049864 9.77284536 -15.4049864 9.77284536 -13.2109375 4.4609375 C-9.47544315 0.0813924 -5.49412146 0.01791993 0 0 Z M6.6015625 19.3359375 C6.6015625 19.9959375 6.6015625 20.6559375 6.6015625 21.3359375 C10.5615625 21.3359375 14.5215625 21.3359375 18.6015625 21.3359375 C18.2715625 20.6759375 17.9415625 20.0159375 17.6015625 19.3359375 C13.9715625 19.3359375 10.3415625 19.3359375 6.6015625 19.3359375 Z " fill="#F7921C" transform="translate(67.3984375,372.6640625)"/>
<path d="M0 0 C0.79044708 -0.00817749 1.58089417 -0.01635498 2.39529419 -0.02478027 C5.0177535 -0.04964297 7.6401586 -0.06615353 10.26269531 -0.08056641 C11.15804237 -0.08589008 12.05338943 -0.09121376 12.97586823 -0.09669876 C17.7159998 -0.12343567 22.456105 -0.14280779 27.19628906 -0.15722656 C32.09024896 -0.17386509 36.98353422 -0.2186344 41.87723923 -0.26959801 C45.64167037 -0.30327312 49.40594154 -0.31480433 53.17050934 -0.32045364 C54.97422687 -0.32716668 56.77793386 -0.34239018 58.58150482 -0.36634445 C61.10958084 -0.39800218 63.6358399 -0.39803231 66.1640625 -0.390625 C66.90610931 -0.40703033 67.64815613 -0.42343567 68.41268921 -0.44033813 C72.28272658 -0.39403871 74.7938433 0.17048295 77.78936768 2.5418396 C80.72566631 5.59273697 81.34082031 6.99544068 81.34082031 11.19287109 C80.58885525 14.42632087 79.88323501 15.77160653 77.25585938 17.81214905 C73.57058956 19.55769453 70.31862691 19.62118664 66.32519531 19.59692383 C65.53270386 19.60378708 64.7402124 19.61065033 63.92370605 19.61772156 C61.31256024 19.63597469 58.70201603 19.63215471 56.09082031 19.62646484 C54.27148239 19.63102697 52.45214619 19.63633264 50.6328125 19.64234924 C46.82317088 19.65127712 43.01373894 19.64886045 39.20410156 19.63891602 C34.32473956 19.6274196 29.44610053 19.6476496 24.5668335 19.67683315 C20.81098849 19.69518692 17.05531707 19.69490447 13.29943848 19.68919563 C11.50051865 19.68904236 9.7015871 19.69509205 7.90270996 19.70748711 C5.38682786 19.72238214 2.87228576 19.71173237 0.35644531 19.69458008 C-0.75494812 19.70908203 -0.75494812 19.70908203 -1.88879395 19.72387695 C-6.74968202 19.6545584 -9.25279995 18.66108138 -12.65917969 15.19287109 C-13.82880081 12.53023129 -13.95804031 10.07632264 -13.65917969 7.19287109 C-10.02838043 0.30687249 -7.2823213 0.04135516 0 0 Z " fill="#F7921C" transform="translate(311.6591796875,187.80712890625)"/>
<path d="M0 0 C3.15050488 2.21386829 3.89003702 3.56926945 4.84765625 7.3203125 C5.03627769 11.87624585 4.14681158 12.93312938 1.125 16.25 C0.29355469 17.19230469 -0.53789062 18.13460938 -1.39453125 19.10546875 C-2.25433594 20.06066406 -3.11414063 21.01585937 -4 22 C-5.53142343 23.84542958 -7.05256073 25.69945103 -8.5625 27.5625 C-9.305 28.46355469 -10.0475 29.36460937 -10.8125 30.29296875 C-12.25967285 32.08384516 -13.67721948 33.89911147 -15.0625 35.73828125 C-19.85106027 42.05132458 -24.3923132 46.4641044 -32 49 C-39.91820851 49.52788057 -45.01532804 47.85624577 -51.0625 42.75 C-54.64727507 39.45871529 -58.20917556 36.00652447 -61 32 C-61 31.34 -61 30.68 -61 30 C-61.66 30 -62.32 30 -63 30 C-64.54586876 26.90826248 -64.29359521 24.40570448 -64 21 C-61.46041164 17.78318808 -59.40003946 16.26667418 -55.375 15.5 C-47.80768876 16.62108315 -42.6067168 24.35677192 -38 30 C-33.57787504 29.59610568 -31.42768144 26.58511505 -28.6875 23.4375 C-28.20112061 22.89246826 -27.71474121 22.34743652 -27.21362305 21.78588867 C-25.80029383 20.19809173 -24.39866892 18.60071045 -23 17 C-22.34257812 16.25492187 -21.68515625 15.50984375 -21.0078125 14.7421875 C-19.33150545 12.83413293 -17.66486226 10.91804408 -16 9 C-14.56623711 7.35091008 -13.12866841 5.70512206 -11.6875 4.0625 C-11.03136719 3.31097656 -10.37523437 2.55945313 -9.69921875 1.78515625 C-6.48685153 -1.58967552 -4.37417273 -1.13728491 0 0 Z " fill="#F7921C" transform="translate(477,240)"/>
<path d="M0 0 C1.39095991 -0.00337138 2.78191695 -0.00822669 4.17286682 -0.01449585 C7.08403653 -0.02185473 9.99443749 -0.01119694 12.90551758 0.01220703 C16.62601531 0.04066986 20.34470756 0.02430373 24.06513882 -0.00565529 C26.93668563 -0.02377895 29.80780895 -0.0179471 32.67936897 -0.00501633 C34.05041788 -0.00169481 35.42150598 -0.00572515 36.79250908 -0.01741409 C48.8167618 -0.09743048 48.8167618 -0.09743048 52.76977539 2.97509766 C55.43108476 6.27039405 55.86216901 8.46448896 55.94140625 12.6640625 C55.61140625 13.3240625 55.28140625 13.9840625 54.94140625 14.6640625 C54.28140625 14.6640625 53.62140625 14.6640625 52.94140625 14.6640625 C52.94140625 15.3240625 52.94140625 15.9840625 52.94140625 16.6640625 C49.48962054 18.76794716 46.77382844 18.91704711 42.76757812 18.92285156 C41.51948364 18.92915588 40.27138916 18.93546021 38.98547363 18.94195557 C37.62703307 18.93837565 36.26859379 18.93427366 34.91015625 18.9296875 C33.51297946 18.93103534 32.11580312 18.93297688 30.71862793 18.93548584 C27.79333014 18.93843149 24.86815465 18.93415752 21.94287109 18.92480469 C18.19688938 18.91341038 14.45119429 18.91997285 10.70522308 18.93194962 C7.82100269 18.93918336 4.93685002 18.93687335 2.05262756 18.93169403 C0.67155422 18.93036172 -0.70952531 18.93199058 -2.09059143 18.93665314 C-4.0219816 18.94174295 -5.95339339 18.93260723 -7.88476562 18.92285156 C-8.98300659 18.92126038 -10.08124756 18.91966919 -11.21276855 18.91802979 C-14.05083656 18.66475477 -15.68027297 18.19144253 -18.05859375 16.6640625 C-20.09103723 14.05092089 -20.05706436 12.57994584 -19.99609375 9.2265625 C-19.14192619 5.98072578 -18.45942565 3.99485528 -16.00460815 1.6963501 C-11.24023358 -0.83097178 -5.26678326 -0.04482728 0 0 Z " fill="#F7921C" transform="translate(318.05859375,272.3359375)"/>
<path d="M0 0 C1.16478378 -0.00637985 2.32956757 -0.0127597 3.52964783 -0.01933289 C4.78387039 -0.02044571 6.03809296 -0.02155853 7.33032227 -0.02270508 C8.62237076 -0.02603348 9.91441925 -0.02936188 11.24562073 -0.03279114 C13.97837154 -0.03877121 16.71109077 -0.04063216 19.44384766 -0.04003906 C22.93861085 -0.03993743 26.43317094 -0.05359572 29.92788601 -0.07081127 C33.2703678 -0.08462844 36.61281229 -0.08402054 39.95532227 -0.08520508 C41.2075206 -0.09239059 42.45971893 -0.09957611 43.74986267 -0.10697937 C44.91779861 -0.10390274 46.08573456 -0.10082611 47.2890625 -0.09765625 C48.31402328 -0.09908127 49.33898407 -0.10050629 50.39500427 -0.10197449 C54.73560432 0.27936043 57.61039581 1.74604187 61.20922852 4.14526367 C62.04825077 7.99078235 62.46283376 10.38444793 61.20922852 14.14526367 C57.47557502 17.86873179 54.96944175 18.65199582 49.75415039 18.69458008 C48.46931763 18.7136441 47.18448486 18.73270813 45.86071777 18.75234985 C44.46647024 18.75182702 43.07222264 18.74995301 41.67797852 18.74682617 C40.23978177 18.75460596 38.8015896 18.76327651 37.36340332 18.77279663 C34.35401488 18.78769328 31.34509583 18.78715875 28.33569336 18.77661133 C24.4849385 18.76501175 20.63610458 18.79891345 16.78566742 18.84530067 C13.81724886 18.87480572 10.84929178 18.87651537 7.88075256 18.87028122 C6.46139209 18.87130578 5.04200516 18.88174702 3.62278748 18.90190506 C-7.39871533 19.03927174 -7.39871533 19.03927174 -10.77905273 16.86834717 C-12.93129062 14.41719789 -13.76771103 12.27081503 -14.35327148 9.08276367 C-13.6512448 5.41662431 -12.45460225 3.73509914 -9.79077148 1.14526367 C-6.54551104 0.00012819 -3.4189106 0.0127247 0 0 Z " fill="#F7921C" transform="translate(311.790771484375,230.854736328125)"/>
<path d="M0 0 C1.19625 -0.0103125 2.3925 -0.020625 3.625 -0.03125 C7.59633943 0.59386824 9.27179857 1.57366104 12 4.5 C12.86952921 7.56765583 12.62951229 10.38677557 12 13.5 C9.80168636 16.53215675 8.55036806 17.31654398 5 18.5 C0.42073361 18.90359636 -3.66998677 19.06596308 -7.9375 17.25 C-11.73684211 14.02631579 -11.73684211 14.02631579 -13 11.5 C-13 7.38273073 -12.78056919 5.30352711 -9.875 2.3125 C-6.33825825 0.08281498 -4.1553116 -0.03582165 0 0 Z " fill="#F7921C" transform="translate(183,153.5)"/>
<path d="M0 0 C2.85211496 1.0947512 3.7276719 1.54611983 5.3125 4.1875 C6.42483701 8.73796958 5.99804275 12.3510598 3.5625 16.375 C-0.39475925 18.88448148 -4.37590898 19.06766962 -9 19 C-13.00645958 18.04193358 -15.60241102 16.37438448 -18 13 C-18.67921978 8.24546155 -18.65990923 6.17317196 -16.3125 2 C-11.17236271 -1.10347912 -5.86289167 -0.71133424 0 0 Z " fill="#F7921C" transform="translate(266,418)"/>
<path d="M0 0 C3.22340651 2.34115035 3.92741847 3.54749173 4.56640625 7.53125 C4.56511719 8.8409375 4.56382812 10.150625 4.5625 11.5 C4.58441406 12.8096875 4.60632813 14.119375 4.62890625 15.46875 C4 19 4 19 1.6875 21.44140625 C-1.81504226 23.47267713 -4.01020138 23.50779255 -8 23 C-11.1850357 21.23984869 -11.83296972 20.50109084 -13 17 C-13.11953769 15.02345815 -13.17526196 13.04261544 -13.1875 11.0625 C-13.20167969 10.02222656 -13.21585937 8.98195312 -13.23046875 7.91015625 C-13.00151123 5.01908243 -12.55213479 3.41689559 -11 1 C-7.43300025 -1.77433314 -4.20504308 -1.05126077 0 0 Z " fill="#F7921C" transform="translate(477,141)"/>
</svg>
