<?xml version="1.0" encoding="UTF-8"?>
<svg version="1.1" xmlns="http://www.w3.org/2000/svg" width="512" height="512">
<path d="M0 0 C1.28097565 -0.0071553 2.56195129 -0.01431061 3.88174438 -0.02168274 C5.2943418 -0.02452274 6.70693947 -0.0272345 8.11953735 -0.02983093 C9.61316077 -0.03610045 11.10678264 -0.04274768 12.60040283 -0.04974365 C17.50081303 -0.07074025 22.40122335 -0.08114655 27.30166626 -0.09111023 C28.99429973 -0.09516037 30.68693304 -0.09927737 32.37956619 -0.10346031 C40.33896056 -0.12250764 48.29834573 -0.13673584 56.2577585 -0.14507228 C65.41418991 -0.15482296 74.57037818 -0.18108743 83.72672403 -0.22157317 C90.82254394 -0.25185933 97.91829469 -0.2665532 105.01417792 -0.26985329 C109.24287257 -0.27219086 113.47130739 -0.28098 117.6999321 -0.30631447 C121.68749915 -0.32981813 125.67463944 -0.33374036 129.66225815 -0.32355309 C131.11372814 -0.32306287 132.56522075 -0.32922868 134.01662445 -0.34310913 C155.74560136 -0.53902647 172.9550647 6.9470715 188.71572876 21.77217102 C199.60797005 33.11742296 204.8833808 47.15954073 210.65322876 61.52217102 C211.4783668 63.55159616 212.30463669 65.58056145 213.13198853 67.60908508 C214.81929223 71.75007472 216.50063033 75.89340746 218.17715454 80.03877258 C220.53404525 85.86151622 222.91499118 91.67412697 225.30557251 97.48310852 C225.67139435 98.37222931 226.03721619 99.2613501 226.41412354 100.17741394 C227.12860451 101.91371909 227.84315158 103.64999705 228.55776978 105.38624573 C232.63190786 115.28969448 236.69828646 125.1953864 240.65322876 135.14717102 C246.59322876 135.47717102 252.53322876 135.80717102 258.65322876 136.14717102 C258.65322876 141.42717102 258.65322876 146.70717102 258.65322876 152.14717102 C254.06927094 152.25488805 249.4878324 152.33436823 244.90322876 152.39717102 C243.60127563 152.43068665 242.29932251 152.46420227 240.95791626 152.49873352 C239.70752563 152.51162415 238.45713501 152.52451477 237.16885376 152.53779602 C236.01675415 152.55874329 234.86465454 152.57969055 233.67764282 152.60127258 C229.89189524 152.03286037 228.91926186 151.19857652 226.65322876 148.14717102 C225.49840463 145.84806991 224.49363777 143.63203804 223.54385376 141.25263977 C223.11828186 140.22181526 223.11828186 140.22181526 222.68411255 139.17016602 C221.74767593 136.89542701 220.82554528 134.61516748 219.90322876 132.33467102 C219.24433032 130.72702949 218.58448169 129.1197771 217.92373657 127.51289368 C216.17756014 123.26002304 214.44305326 119.00248754 212.71084595 114.74391174 C210.97989413 110.49394955 209.23851529 106.24827319 207.49697876 102.00263977 C207.1570842 101.17374741 206.81718964 100.34485504 206.46699524 99.49084473 C203.47107083 92.18553024 200.47321156 84.88101046 197.47207642 77.57783508 C196.30943753 74.74785536 195.15016319 71.91654482 193.99453735 69.08369446 C192.53868439 65.51648986 191.06587471 61.95644415 189.59072876 58.39717102 C189.1862854 57.39927551 188.78184204 56.40138 188.36514282 55.37324524 C181.13089796 38.05697982 170.8515195 27.37663216 153.65322876 20.14717102 C144.11642415 16.7468178 133.72639853 16.99807048 123.73648071 17.00190735 C122.47018326 16.99854874 121.2038858 16.99519012 119.8992157 16.99172974 C116.44850056 16.98295367 112.99781027 16.9805543 109.54708505 16.97991395 C107.38353679 16.97919964 105.2199947 16.97705812 103.05644798 16.97441673 C95.48657205 16.96518341 87.91671365 16.96107919 80.34683228 16.96186829 C73.32651871 16.96246806 66.30628223 16.95193083 59.28598815 16.93612462 C53.2295834 16.92298188 47.17320363 16.91768722 41.11678475 16.9183237 C37.51257019 16.91857677 33.90842418 16.91583217 30.30422401 16.90514565 C26.27508027 16.89352384 22.24610555 16.89825237 18.21694946 16.9042511 C17.04712524 16.89863159 15.87730103 16.89301208 14.67202759 16.88722229 C-3.18347258 16.95427772 -18.64670323 20.05179619 -32.34677124 32.14717102 C-37.71370091 37.64022274 -41.82727721 43.69394009 -45.84677124 50.20967102 C-47.07079553 52.16357094 -48.29609887 54.11667007 -49.52255249 56.06904602 C-50.14984253 57.07000305 -50.77713257 58.07096008 -51.4234314 59.10224915 C-54.57369824 64.08957183 -57.80288531 69.02466606 -61.03427124 73.95967102 C-62.29347736 75.88539242 -63.55259375 77.81117249 -64.81161499 79.73701477 C-65.41086792 80.65337708 -66.01012085 81.56973938 -66.62753296 82.51387024 C-70.45040823 88.36924268 -74.24198012 94.24490417 -78.03622437 100.11885071 C-80.76184036 104.33725937 -83.49120989 108.55324188 -86.22055054 112.76924133 C-88.99272134 117.05202575 -91.76037219 121.33767196 -94.52255249 125.62690735 C-95.44160592 127.04868948 -96.36474198 128.46784147 -97.29208374 129.88423157 C-99.56211364 133.352737 -101.77050077 136.83660618 -103.87411499 140.40888977 C-104.29040161 141.0906427 -104.70668823 141.77239563 -105.1355896 142.47480774 C-105.91010227 143.74406556 -106.66214989 145.0274862 -107.38412476 146.3273468 C-113.07141104 155.45509023 -127.57248933 156.75147399 -137.31552124 159.47529602 C-138.72757984 159.8728904 -140.13956583 160.27074272 -141.55148315 160.6688385 C-144.48542249 161.49505426 -147.42017233 162.31830484 -150.3555603 163.13935852 C-154.11751027 164.19185153 -157.87734256 165.25169872 -161.63661957 166.313694 C-164.54054545 167.13322499 -167.44551236 167.94901293 -170.35081482 168.76364899 C-171.73862017 169.15325007 -173.12610532 169.54399362 -174.51325989 169.93590546 C-176.44302554 170.48049747 -178.37435624 171.01953454 -180.30575562 171.55830383 C-181.40286865 171.86600708 -182.49998169 172.17371033 -183.63034058 172.49073792 C-186.34677124 173.14717102 -186.34677124 173.14717102 -189.34677124 173.14717102 C-189.33788879 173.72710815 -189.32900635 174.30704529 -189.31985474 174.90455627 C-189.23138095 180.93894091 -189.17103702 186.9731414 -189.12704468 193.00801086 C-189.10692568 195.26036563 -189.07962716 197.51266815 -189.04501343 199.7648468 C-188.99650915 203.00179433 -188.97380519 206.23805149 -188.95614624 209.47529602 C-188.9355011 210.48271851 -188.91485596 211.49014099 -188.89358521 212.52809143 C-188.89137712 219.40303063 -188.89137712 219.40303063 -190.96395874 222.78974915 C-194.10494571 224.57908189 -196.25438821 224.60339617 -199.86239624 224.53779602 C-201.55284058 224.52281067 -201.55284058 224.52281067 -203.2774353 224.50752258 C-204.70281616 224.47110657 -206.12819702 224.43469055 -207.59677124 224.39717102 C-212.13427124 224.31467102 -216.67177124 224.23217102 -221.34677124 224.14717102 C-221.34677124 239.98717102 -221.34677124 255.82717102 -221.34677124 272.14717102 C-210.78677124 272.14717102 -200.22677124 272.14717102 -189.34677124 272.14717102 C-189.01677124 269.17717102 -188.68677124 266.20717102 -188.34677124 263.14717102 C-183.9278652 244.61627473 -172.30623563 228.51858765 -156.34677124 218.14717102 C-138.25041525 207.9012113 -117.66225129 204.81062512 -97.28427124 209.64717102 C-79.02896264 215.507656 -62.52774141 227.48381842 -53.40927124 244.68623352 C-49.0895874 253.30232942 -45.34677124 262.38142754 -45.34677124 272.14717102 C-39.73677124 272.14717102 -34.12677124 272.14717102 -28.34677124 272.14717102 C-28.67677124 271.48717102 -29.00677124 270.82717102 -29.34677124 270.14717102 C-30.23900336 255.30101366 -29.17289269 243.02304254 -19.34677124 231.14717102 C-11.49416231 222.72873263 -1.83295926 216.30084622 9.96182251 215.87373352 C25.24021125 215.43990088 35.40866067 218.65084506 47.92788696 227.34077454 C74.26015005 245.45243108 108.13124085 250.40796754 139.1522522 244.68623352 C156.26446592 241.11116276 171.46892972 234.02392645 186.00479126 224.44404602 C198.76826353 216.18410787 212.09617945 213.83576116 227.09072876 216.83467102 C229.77250668 217.74891349 232.1633874 218.79903357 234.65322876 220.14717102 C235.4253772 220.55967102 236.19752563 220.97217102 236.99307251 221.39717102 C247.47056103 227.70157437 254.83685176 237.27961946 258.19082642 249.03071594 C260.89877958 261.42524921 259.27394579 275.15805476 252.56387329 285.88935852 C250.92298844 288.40362845 249.23845602 290.88497032 247.52993774 293.35371399 C234.61632907 312.12798512 228.23234218 333.13444055 228.34072876 355.89717102 C228.34636841 357.13636292 228.35200806 358.37555481 228.3578186 359.65229797 C228.47562202 368.53245967 229.0779822 376.60203471 231.65322876 385.14717102 C231.84658813 385.80652649 232.03994751 386.46588196 232.23916626 387.1452179 C236.02998069 399.79296606 241.89706417 410.93684742 249.12588501 421.94404602 C249.52831421 422.55739807 249.93074341 423.17075012 250.34536743 423.8026886 C251.45088851 425.46815782 252.57861044 427.11883064 253.70791626 428.76826477 C257.87735327 436.01035918 259.19161346 442.72320302 259.09072876 451.02217102 C259.0793689 452.33761902 259.0793689 452.33761902 259.06777954 453.67964172 C258.89585705 460.45301133 257.91345276 466.12594481 254.65322876 472.14717102 C254.24072876 472.91931946 253.82822876 473.6914679 253.40322876 474.48701477 C247.09744572 484.96679624 237.51432945 492.33824373 225.75820923 495.68696594 C212.70479556 498.54079159 198.87396527 496.16515855 187.65322876 489.14717102 C187.32322876 491.45717102 186.99322876 493.76717102 186.65322876 496.14717102 C181.37322876 496.14717102 176.09322876 496.14717102 170.65322876 496.14717102 C170.47946198 490.02752512 170.35282072 483.90933193 170.26870728 477.78779602 C170.23362558 475.7081143 170.18594562 473.62860375 170.12515259 471.54951477 C170.03968892 468.55038651 170.00041816 465.55354983 169.96963501 462.55342102 C169.93350601 461.63226501 169.89737701 460.71110901 169.8601532 459.76203918 C169.85640856 453.5272558 171.2993581 450.49747896 175.59074402 446.01968384 C177.65322876 444.14717102 177.65322876 444.14717102 179.86671448 442.54260254 C183.82835017 439.42344621 185.4482124 437.28999495 186.35470581 432.23692322 C186.71733026 427.21325484 186.60687597 422.1982979 186.50479126 417.16670227 C186.49493282 415.30682782 186.48834199 413.44693345 186.48486328 411.58703613 C186.46962616 407.70058682 186.42864094 403.81562219 186.36660767 399.92964172 C186.28729421 394.95297749 186.25135839 389.97727493 186.23198891 385.00005054 C186.21203138 380.2429716 186.17229887 375.48612539 186.12979126 370.72920227 C186.12299976 369.82452524 186.11620827 368.91984821 186.10921097 367.98775673 C186.08600778 365.42448501 186.04896357 362.86181152 186.00723267 360.29878235 C186.00185486 359.54386505 185.99647705 358.78894775 185.99093628 358.01115417 C185.90893134 353.98786261 185.57315654 350.72115651 183.65322876 347.14717102 C180.85452849 345.74782089 178.74824084 345.89451697 175.65322876 346.14717102 C173.0937333 348.00059877 172.67404078 349.08473495 171.65322876 352.14717102 C171.50433129 353.99183544 171.40531866 355.84074377 171.33682251 357.69013977 C171.29492798 358.7632843 171.25303345 359.83642883 171.20986938 360.9420929 C171.17055298 362.06164368 171.13123657 363.18119446 171.09072876 364.33467102 C171.04754517 365.46582336 171.00436157 366.59697571 170.95986938 367.7624054 C170.85373866 370.55718127 170.75297479 373.35216 170.65322876 376.14717102 C165.37322876 376.14717102 160.09322876 376.14717102 154.65322876 376.14717102 C154.63340942 374.47694885 154.61359009 372.80672668 154.59317017 371.08589172 C154.51709809 364.88912377 154.42838259 358.69259013 154.33584595 352.49604797 C154.2964834 349.81411962 154.2618864 347.13219261 154.23135376 344.45014954 C154.18568923 340.5950642 154.12769577 336.74033133 154.06729126 332.88545227 C154.04996445 331.08676445 154.04996445 331.08676445 154.0322876 329.2517395 C154.00248306 327.57056282 154.00248306 327.57056282 153.97207642 325.85542297 C153.95209091 324.37982658 153.95209091 324.37982658 153.93170166 322.87442017 C153.63265452 319.94567532 152.96976502 317.7749899 151.65322876 315.14717102 C148.85452849 313.74782089 146.74824084 313.89451697 143.65322876 314.14717102 C141.0937333 316.00059877 140.67404078 317.08473495 139.65322876 320.14717102 C139.53713517 321.97183002 139.47666347 323.80024988 139.44790649 325.62837219 C139.42796127 326.74930771 139.40801605 327.87024323 139.38746643 329.02514648 C139.37075394 330.23459427 139.35404144 331.44404205 139.33682251 332.69013977 C139.31604141 333.92887344 139.29526031 335.16760712 139.27384949 336.44387817 C139.21951079 339.73342358 139.16926925 343.02299828 139.1210022 346.31263733 C139.0707223 349.67094916 139.01507015 353.02917148 138.95986938 356.3874054 C138.85269825 362.97392482 138.751424 369.56051191 138.65322876 376.14717102 C133.37322876 376.14717102 128.09322876 376.14717102 122.65322876 376.14717102 C122.63340942 373.99226135 122.61359009 371.83735168 122.59317017 369.61714172 C122.52622376 362.49243291 122.44858479 355.3678694 122.36570168 348.24332905 C122.31578398 343.92428097 122.26945357 339.60525681 122.23135376 335.28608704 C122.19444372 331.11682004 122.1480683 326.94775539 122.09516525 322.77866173 C122.07665167 321.18911989 122.06153251 319.59953473 122.0498848 318.00992775 C122.03297016 315.78113265 122.00392326 313.55279788 121.97207642 311.32417297 C121.95209091 309.42221916 121.95209091 309.42221916 121.93170166 307.48184204 C121.66187932 304.25076014 121.14952166 302.00949078 119.65322876 299.14717102 C116.85452849 297.74782089 114.74824084 297.89451697 111.65322876 298.14717102 C109.0937333 300.00059877 108.67404078 301.08473495 107.65322876 304.14717102 C107.53487098 306.46180806 107.47621787 308.77963398 107.44790649 311.09712219 C107.4380069 311.79981735 107.4281073 312.50251251 107.41790771 313.22650146 C107.38633642 315.54768003 107.36155263 317.86887907 107.33682251 320.19013977 C107.3162492 321.80011526 107.29525263 323.41008538 107.27384949 325.02005005 C107.2186677 329.2565324 107.16924127 333.49306318 107.1210022 337.72962952 C107.07075875 342.05309863 107.01508753 346.37649746 106.95986938 350.6999054 C106.8523354 359.18226944 106.75138148 367.66469323 106.65322876 376.14717102 C101.37322876 376.14717102 96.09322876 376.14717102 90.65322876 376.14717102 C90.63340942 374.47694885 90.61359009 372.80672668 90.59317017 371.08589172 C90.51709809 364.88912377 90.42838259 358.69259013 90.33584595 352.49604797 C90.2964834 349.81411962 90.2618864 347.13219261 90.23135376 344.45014954 C90.18568923 340.5950642 90.12769577 336.74033133 90.06729126 332.88545227 C90.04996445 331.08676445 90.04996445 331.08676445 90.0322876 329.2517395 C90.00248306 327.57056282 90.00248306 327.57056282 89.97207642 325.85542297 C89.95209091 324.37982658 89.95209091 324.37982658 89.93170166 322.87442017 C89.63265452 319.94567532 88.96976502 317.7749899 87.65322876 315.14717102 C84.85452849 313.74782089 82.74824084 313.89451697 79.65322876 314.14717102 C77.0937333 316.00059877 76.67404078 317.08473495 75.65322876 320.14717102 C75.55348539 321.5810091 75.5071464 323.01892483 75.49501038 324.45617676 C75.48032715 325.77497078 75.48032715 325.77497078 75.46534729 327.1204071 C75.45959183 328.08209808 75.45383636 329.04378906 75.44790649 330.03462219 C75.4380069 331.04943161 75.4281073 332.06424103 75.41790771 333.10980225 C75.38627667 336.46989088 75.36152885 339.82999366 75.33682251 343.19013977 C75.31625438 345.51756156 75.29525794 347.84497959 75.27384949 350.1723938 C75.21861434 356.30276965 75.16921138 362.4331793 75.1210022 368.56361389 C75.07079775 374.81740838 75.01510616 381.07115369 74.95986938 387.3249054 C74.85227014 399.59895195 74.75082904 411.87304117 74.65322876 424.14717102 C69.37322876 424.14717102 64.09322876 424.14717102 58.65322876 424.14717102 C58.60424438 422.47267883 58.55526001 420.79818665 58.50479126 419.07295227 C58.42974638 416.86850893 58.35419929 414.66408265 58.27822876 412.45967102 C58.23182251 410.80548157 58.23182251 410.80548157 58.18447876 409.11787415 C58.14580688 408.05117493 58.10713501 406.98447571 58.06729126 405.88545227 C58.02015991 404.41652527 58.02015991 404.41652527 57.97207642 402.91792297 C57.63500094 399.9887732 56.96714497 397.78171603 55.65322876 395.14717102 C52.85452849 393.74782089 50.74824084 393.89451697 47.65322876 394.14717102 C45.0937333 396.00059877 44.67404078 397.08473495 43.65322876 400.14717102 C43.25925903 401.31481995 43.25925903 401.31481995 42.85733032 402.50605774 C40.72260589 409.9084005 39.40671645 417.82004844 42.4281311 425.15663147 C49.83966313 437.19889403 67.73341298 445.12671803 79.64468384 451.96212769 C80.50505249 452.45623642 81.36542114 452.95034515 82.25186157 453.45942688 C83.38437347 454.09671974 83.38437347 454.09671974 84.5397644 454.74688721 C86.94292774 456.33911218 88.78698458 457.94707729 90.65322876 460.14717102 C91.00232926 463.03682222 91.12138496 465.53309812 91.04385376 468.41279602 C91.03819397 469.20619385 91.03253418 469.99959167 91.02670288 470.81703186 C91.00436023 473.34436575 90.95417052 475.87026767 90.90322876 478.39717102 C90.8831609 480.11329634 90.86491063 481.82944394 90.84854126 483.54560852 C90.80790768 487.74712115 90.72962189 491.94554869 90.65322876 496.14717102 C85.04322876 496.14717102 79.43322876 496.14717102 73.65322876 496.14717102 C73.65322876 488.22717102 73.65322876 480.30717102 73.65322876 472.14717102 C63.7421303 476.27018798 54.73922478 480.49600528 45.77822876 486.39717102 C32.75305313 494.84311197 21.19861978 498.0181566 5.65322876 496.14717102 C-6.26466127 493.37328518 -16.35170485 486.16995272 -23.34677124 476.14717102 C-29.88657223 463.9485785 -31.41440735 451.08448332 -28.58114624 437.46748352 C-26.15536449 430.61721252 -22.32646085 424.86927839 -18.22348022 418.94062805 C-1.68327826 394.89388449 4.43404981 365.7756556 -0.03427124 336.88545227 C-0.86356342 332.55159885 -2.00671428 328.3488717 -3.34677124 324.14717102 C-3.56107788 323.46267883 -3.77538452 322.77818665 -3.9961853 322.07295227 C-7.44936261 311.35654175 -12.19732573 300.85880787 -19.08505249 291.88154602 C-20.34677124 290.14717102 -20.34677124 290.14717102 -20.34677124 288.14717102 C-28.59677124 288.14717102 -36.84677124 288.14717102 -45.34677124 288.14717102 C-45.67677124 291.11717102 -46.00677124 294.08717102 -46.34677124 297.14717102 C-50.6261931 314.659882 -61.5584694 330.88919271 -76.65927124 340.83467102 C-82.03959754 344.08806392 -87.47835009 346.88434761 -93.34677124 349.14717102 C-94.59200562 349.62863586 -94.59200562 349.62863586 -95.86239624 350.11982727 C-114.03456246 355.83183858 -135.30598866 353.07801277 -152.03427124 344.58467102 C-169.33672223 335.16937718 -181.56011627 319.30491176 -187.44833374 300.65888977 C-188.57816997 296.33489038 -189.34677124 292.63245118 -189.34677124 288.14717102 C-190.6587146 288.16811829 -191.97065796 288.18906555 -193.32235718 288.21064758 C-198.19008468 288.28305072 -203.05776459 288.32897215 -207.9258728 288.36689758 C-210.03272506 288.38701228 -212.13952149 288.41430769 -214.2461853 288.44892883 C-217.27464571 288.4974527 -220.30236802 288.52014118 -223.33114624 288.53779602 C-224.74384796 288.56876373 -224.74384796 288.56876373 -226.18508911 288.60035706 C-227.06570007 288.60065918 -227.94631104 288.6009613 -228.85360718 288.60127258 C-229.62638 288.61015503 -230.39915283 288.61903748 -231.19534302 288.62818909 C-234.49778144 287.88982723 -235.45891097 286.99116473 -237.34677124 284.14717102 C-237.94791207 280.59323197 -237.89271952 277.07237809 -237.86434937 273.47529602 C-237.87135864 272.38873718 -237.87836792 271.30217834 -237.8855896 270.18269348 C-237.90320992 266.58726017 -237.89153182 262.99261248 -237.87802124 259.39717102 C-237.88071497 256.90140125 -237.8845964 254.4056325 -237.88961792 251.90986633 C-237.89551845 246.67768827 -237.8873127 241.44571494 -237.86825562 236.21357727 C-237.84648693 230.1672009 -237.85353848 224.12136406 -237.87556124 218.07500076 C-237.89590971 212.25504136 -237.89374418 206.43528682 -237.8820343 200.61531067 C-237.87936279 198.14013087 -237.8826516 195.66493733 -237.89195251 193.18977356 C-237.90209233 189.73249143 -237.88665143 186.27625045 -237.86434937 182.81904602 C-237.87244629 181.79242859 -237.88054321 180.76581116 -237.8888855 179.70808411 C-237.8064608 172.82356095 -237.8064608 172.82356095 -235.60578918 169.58547974 C-233.28181496 168.10581359 -231.33228002 167.21600448 -228.68490601 166.46235657 C-227.28743889 166.05414925 -227.28743889 166.05414925 -225.86174011 165.63769531 C-224.84746445 165.35593948 -223.83318878 165.07418365 -222.78817749 164.78388977 C-221.71561203 164.47470108 -220.64304657 164.16551239 -219.53797913 163.84695435 C-215.99857773 162.83013657 -212.45414725 161.8322193 -208.90927124 160.83467102 C-206.4535653 160.13390659 -203.99816504 159.43207011 -201.5430603 158.72920227 C-196.42332272 157.26618893 -191.30139797 155.81125179 -186.17733765 154.36347961 C-179.70939054 152.53580814 -173.24645 150.69112581 -166.78511047 148.84024048 C-160.72372256 147.10433277 -154.66027568 145.375668 -148.59677124 143.64717102 C-147.43904205 143.31639557 -146.28131287 142.98562012 -145.08850098 142.64482117 C-141.82680581 141.71432641 -138.56362578 140.78925105 -135.29989624 139.86592102 C-134.33057663 139.58859634 -133.36125702 139.31127167 -132.36256409 139.02554321 C-131.47724503 138.77628586 -130.59192596 138.5270285 -129.67977905 138.2702179 C-128.91079285 138.05200378 -128.14180664 137.83378967 -127.34951782 137.60896301 C-125.34677124 137.14717102 -125.34677124 137.14717102 -122.34677124 137.14717102 C-122.0821106 136.42835754 -121.81744995 135.70954407 -121.54476929 134.96894836 C-120.31966074 132.08331467 -118.87727969 129.6314338 -117.17880249 126.99873352 C-116.54031372 126.00486633 -115.90182495 125.01099915 -115.24398804 123.98701477 C-114.55603149 122.92611633 -113.86807495 121.8652179 -113.15927124 120.77217102 C-112.44746704 119.66744446 -111.73566284 118.5627179 -111.00228882 117.42451477 C-104.9756756 108.07637738 -98.89801623 98.76113721 -92.81161499 89.45185852 C-89.72729455 84.73346663 -86.65720235 80.00608598 -83.59677124 75.27217102 C-83.15446167 74.58840393 -82.7121521 73.90463684 -82.25643921 73.20014954 C-80.09584774 69.85854663 -77.93936818 66.51436474 -75.78817749 63.16670227 C-73.52328455 59.64443105 -71.2411933 56.13363514 -68.95419312 52.62568665 C-67.79565974 50.83932109 -66.64416893 49.04838114 -65.49716187 47.2545929 C-50.77948731 24.25550225 -36.69637979 7.1564735 -9.03641319 0.59948444 C-5.98217934 0.0858581 -3.09776441 0.01190963 0 0 Z M-213.90927124 180.14717102 C-216.36364624 180.80717102 -218.81802124 181.46717102 -221.34677124 182.14717102 C-221.34677124 190.72717102 -221.34677124 199.30717102 -221.34677124 208.14717102 C-216.06677124 208.14717102 -210.78677124 208.14717102 -205.34677124 208.14717102 C-205.34677124 198.24717102 -205.34677124 188.34717102 -205.34677124 178.14717102 C-208.14820403 178.14717102 -211.19054347 179.41364938 -213.90927124 180.14717102 Z M-151.34677124 236.14717102 C-151.98098999 236.58545227 -152.61520874 237.02373352 -153.26864624 237.47529602 C-163.48387248 245.25386279 -169.61072564 257.88923566 -172.34677124 270.14717102 C-173.76515623 286.84498599 -171.3616267 300.4099799 -161.34677124 314.14717102 C-160.90848999 314.78138977 -160.47020874 315.41560852 -160.01864624 316.06904602 C-152.24007947 326.28427226 -139.6047066 332.41112542 -127.34677124 335.14717102 C-110.64895627 336.56555601 -97.08396236 334.16202648 -83.34677124 324.14717102 C-82.71255249 323.70888977 -82.07833374 323.27060852 -81.42489624 322.81904602 C-71.20967 315.04047925 -65.08281684 302.40510638 -62.34677124 290.14717102 C-60.92838625 273.44935605 -63.33191578 259.88436214 -73.34677124 246.14717102 C-73.78505249 245.51295227 -74.22333374 244.87873352 -74.67489624 244.22529602 C-82.45346301 234.01006978 -95.08883588 227.88321662 -107.34677124 225.14717102 C-124.04458621 223.72878603 -137.60958012 226.13231556 -151.34677124 236.14717102 Z M-4.92880249 240.43232727 C-10.91411208 247.67075953 -13.38139592 255.3787775 -12.92098999 264.70967102 C-11.40245489 273.80022127 -5.78321629 281.04793391 -0.81478882 288.59126282 C12.33893114 308.92224865 18.09884178 331.56171106 18.02822876 355.64717102 C18.02768494 356.34793762 18.02714111 357.04870422 18.02658081 357.77070618 C17.92131638 387.37948554 7.84494102 411.86532772 -8.49911499 436.19404602 C-12.95876555 443.32194416 -13.32304711 449.85754289 -12.34677124 458.14717102 C-9.77823784 466.2965987 -5.79574917 471.95987574 1.65322876 476.14717102 C3.20010376 477.07529602 3.20010376 477.07529602 4.77822876 478.02217102 C11.38871715 480.50675094 19.24256436 480.32585651 25.84072876 478.04560852 C31.76371927 475.16123554 37.25780004 471.5651565 42.76260376 467.95967102 C47.90215423 464.73703397 53.27967281 461.9578227 58.65322876 459.14717102 C55.60383504 455.86236135 52.38199786 453.51806043 48.61026001 451.10810852 C48.04119431 450.74117889 47.4721286 450.37424927 46.88581848 449.99620056 C45.08213278 448.83342242 43.27447037 447.6770664 41.46572876 446.52217102 C39.0728748 444.99372805 36.68417145 443.45908549 34.29776001 441.92060852 C32.70991699 440.9061969 32.70991699 440.9061969 31.08999634 439.87129211 C28.65322876 438.14717102 28.65322876 438.14717102 27.65322876 436.14717102 C27.54433334 434.80115817 27.49430402 433.45009734 27.47622681 432.09980774 C27.45697395 430.84742813 27.45697395 430.84742813 27.43733215 429.56974792 C27.42994522 428.66459442 27.42255829 427.75944092 27.41494751 426.82685852 C27.40687576 425.89423187 27.39880402 424.96160522 27.39048767 424.00071716 C27.37663921 422.02188479 27.36592047 420.04302844 27.35806274 418.06416321 C27.34091528 415.05490387 27.29704405 412.04676194 27.25283813 409.03779602 C27.24270533 407.11332492 27.23419107 405.18884448 27.22744751 403.26435852 C27.20993942 402.3713504 27.19243134 401.47834229 27.1743927 400.55827332 C27.19803939 393.65693894 28.84913856 388.39665363 33.39932251 383.12373352 C33.95748657 382.6777179 34.51565063 382.23170227 35.09072876 381.77217102 C35.92410767 381.07994446 35.92410767 381.07994446 36.77432251 380.37373352 C41.55225344 377.25466842 45.87089169 376.88296933 51.46572876 377.02217102 C52.15859985 377.03119446 52.85147095 377.0402179 53.56533813 377.04951477 C55.26145271 377.07290945 56.95738747 377.10877461 58.65322876 377.14717102 C58.65687439 376.36313904 58.66052002 375.57910706 58.66427612 374.77131653 C58.70225559 367.35659748 58.75921998 359.94237537 58.8371315 352.52797699 C58.87652064 348.71678021 58.90875062 344.9058115 58.92422485 341.09443665 C58.93944857 337.41126762 58.97399331 333.72872597 59.02153778 330.0458374 C59.03629315 328.64579748 59.0442664 327.24566796 59.04511261 325.84555054 C59.05597449 316.87942005 59.33977055 310.14576465 65.39932251 303.12373352 C65.95748657 302.6777179 66.51565063 302.23170227 67.09072876 301.77217102 C67.92410767 301.07994446 67.92410767 301.07994446 68.77432251 300.37373352 C73.72716879 297.14048252 78.16810954 296.88746316 83.96572876 297.02217102 C84.70629517 297.03119446 85.44686157 297.0402179 86.20986938 297.04951477 C88.02446343 297.07292889 89.83888947 297.10879487 91.65322876 297.14717102 C92.16885376 295.95092102 92.68447876 294.75467102 93.21572876 293.52217102 C95.87971815 288.19419224 99.62459142 284.6511882 104.95010376 282.00654602 C111.45881277 279.93730327 119.86276363 279.87470318 126.15322876 282.70967102 C131.86774009 286.16780878 135.3786778 290.95061396 137.65322876 297.14717102 C138.71541626 297.10076477 139.77760376 297.05435852 140.87197876 297.00654602 C156.09486922 296.53319296 156.09486922 296.53319296 161.65322876 301.14717102 C168.05370312 307.23050476 169.90706433 312.80690019 170.27822876 321.45967102 C170.31690063 322.20023743 170.35557251 322.94080383 170.39541626 323.70381165 C170.48904581 325.51788411 170.57219727 327.33249218 170.65322876 329.14717102 C171.64322876 329.10076477 172.63322876 329.05435852 173.65322876 329.00654602 C187.96923369 328.52976885 187.96923369 328.52976885 193.65322876 333.14717102 C198.65534594 337.89075181 201.67095712 342.41479104 201.94084167 349.45303345 C201.96787953 351.19380561 201.98396003 352.93476909 201.99136353 354.67573547 C202.00289963 355.62921875 202.01443573 356.58270203 202.02632141 357.56507874 C202.06057955 360.7135534 202.07911944 363.86183232 202.09463501 367.01045227 C202.10498937 368.62693192 202.10498937 368.62693192 202.1155529 370.27606773 C202.15136418 375.97813943 202.17491715 381.68011246 202.18862915 387.38227844 C202.2051839 393.26378367 202.26362685 399.14408807 202.3317728 405.0251894 C202.37659655 409.55576339 202.39012644 414.0860503 202.39524651 418.61682701 C202.40313084 420.78454706 202.4227479 422.95225824 202.45446968 425.11976051 C202.49600021 428.15759335 202.49306376 431.19240232 202.47964478 434.23042297 C202.51268204 435.5640815 202.51268204 435.5640815 202.54638672 436.92468262 C202.45412409 443.09450907 200.69528818 446.13336867 196.39308071 450.52608013 C193.69295676 453.04189553 190.96902416 455.50679846 188.15713501 457.89717102 C186.24522071 460.75759346 185.91956455 462.78901832 186.08120728 466.19892883 C187.00583923 469.34812345 188.97665561 470.38305937 191.74111938 471.95185852 C192.43399048 472.30506165 193.12686157 472.65826477 193.84072876 473.02217102 C194.51426392 473.39857727 195.18779907 473.77498352 195.88174438 474.16279602 C204.25006898 478.7674156 210.99588628 480.17812915 220.65322876 479.14717102 C230.21510249 476.09443561 235.96268106 469.77056256 240.65322876 461.14717102 C243.1676757 453.60383021 242.68611454 445.27008989 239.21572876 438.14717102 C236.42610293 433.17835513 233.25385289 428.45916788 230.12124634 423.70307922 C216.96752638 403.37209339 211.20761574 380.73263098 211.27822876 356.64717102 C211.27877258 355.94640442 211.27931641 355.24563782 211.27987671 354.52363586 C211.38514114 324.9148565 221.4615165 300.42901432 237.80557251 276.10029602 C242.26522307 268.97239788 242.62950463 262.43679915 241.65322876 254.14717102 C239.08469535 245.99774334 235.10220668 240.3344663 227.65322876 236.14717102 C226.62197876 235.52842102 225.59072876 234.90967102 224.52822876 234.27217102 C217.91774037 231.7875911 210.06389315 231.96848553 203.46572876 234.24873352 C198.59235071 236.6219671 194.11138635 239.48299187 189.59072876 242.45967102 C167.17064756 256.95734871 141.68078887 263.59481509 115.15322876 263.52217102 C114.03005249 263.52135529 114.03005249 263.52135529 112.88418579 263.52052307 C100.73546726 263.4800403 89.3762411 262.53381903 77.65322876 259.14717102 C76.91862427 258.94881653 76.18401978 258.75046204 75.42715454 258.5460968 C59.08654426 254.0662392 43.7773136 246.00842219 29.80947876 236.48701477 C19.02889257 229.78820849 4.31859768 231.91021338 -4.92880249 240.43232727 Z " fill="#F7921C" transform="translate(245.34677124023438,7.8528289794921875)"/>
<path d="M0 0 C1.15075516 -0.0071553 2.30151031 -0.01431061 3.48713684 -0.02168274 C4.74587616 -0.02437164 6.00461548 -0.02706055 7.30149841 -0.02983093 C8.64383112 -0.03609931 9.9861621 -0.04274644 11.32849121 -0.04974365 C15.73411357 -0.07074935 20.13973612 -0.08114565 24.5453949 -0.09111023 C26.06569372 -0.09515968 27.58599236 -0.09927665 29.10629082 -0.10346031 C36.25302946 -0.12250763 43.39975782 -0.13673726 50.54651695 -0.14507228 C58.77649225 -0.15483067 67.00619759 -0.1811153 75.23607785 -0.22157317 C81.60910369 -0.25181932 87.98205255 -0.26654934 94.35514873 -0.26985329 C98.15561506 -0.27219492 101.95579286 -0.28103805 105.75618172 -0.30631447 C109.33745339 -0.32974847 112.91824974 -0.33376777 116.49957848 -0.32355309 C118.42380752 -0.32282864 120.34801325 -0.34181346 122.2721405 -0.36161804 C134.01931491 -0.29192932 143.91080374 2.6894289 152.35398865 11.14717102 C157.91444976 17.4309559 161.22248159 23.70583763 164.14305115 31.52998352 C164.56140228 32.61256439 164.97975342 33.69514526 165.41078186 34.81053162 C166.29246217 37.09654803 167.16751251 39.3851315 168.03623962 41.67610168 C169.32901281 45.08138241 170.64197742 48.47810734 171.96238708 51.87275696 C174.13310756 57.45854635 176.28722086 63.0505143 178.43357849 68.64570618 C179.74740699 72.07017812 181.06419413 75.49350215 182.3813324 78.91670227 C183.23436768 81.13668877 184.08723848 83.35673848 184.93992615 85.57685852 C185.518116 87.08021255 185.518116 87.08021255 186.10798645 88.61393738 C187.19732005 91.45562921 188.27787404 94.30044916 189.35398865 97.14717102 C189.92116608 98.63643097 189.92116608 98.63643097 190.49980164 100.15577698 C191.04371552 101.60968842 191.04371552 101.60968842 191.59861755 103.0929718 C191.92423676 103.95802338 192.24985596 104.82307495 192.58534241 105.71434021 C193.78025407 109.4963374 193.90726138 112.2051028 193.35398865 116.14717102 C191.99650574 118.33808136 191.99650574 118.33808136 189.35398865 120.14717102 C185.76591241 120.75501467 182.20529953 120.68614536 178.57371521 120.65510559 C177.46239353 120.66134555 176.35107185 120.66758552 175.20607376 120.67401457 C171.46870688 120.6900155 167.73198578 120.67731196 163.99461365 120.66474915 C161.32072536 120.67016711 158.64688211 120.67714274 155.9730072 120.68598938 C149.45630187 120.70379139 142.93978064 120.69992722 136.42306805 120.68833882 C131.12760594 120.67931134 125.83219549 120.67807751 120.53672791 120.68243408 C119.7835265 120.68304701 119.03032509 120.68365995 118.2542994 120.68429145 C116.72426445 120.68557033 115.19422951 120.68686718 113.66419458 120.68818182 C99.31144423 120.69959254 84.95879601 120.68646623 70.60606241 120.66498035 C58.28630958 120.6471089 45.96670751 120.65021287 33.6469574 120.6686554 C19.3461547 120.69005346 5.04544156 120.69849385 -9.25537491 120.68620634 C-10.77983346 120.68493212 -12.30429203 120.68367464 -13.82875061 120.68243408 C-14.5788458 120.68181698 -15.328941 120.68119988 -16.10176635 120.68056408 C-21.39188645 120.67710797 -26.68194984 120.6829451 -31.97206116 120.69235229 C-38.41752714 120.70356187 -44.86279824 120.70055437 -51.30824184 120.67922932 C-54.59792623 120.66870457 -57.88721767 120.66676794 -61.1769104 120.67782593 C-64.74018071 120.68870196 -68.30252702 120.67511267 -71.86573792 120.65510559 C-72.90969601 120.66402848 -73.9536541 120.67295136 -75.02924728 120.68214464 C-81.9741654 120.60612805 -81.9741654 120.60612805 -85.28388977 118.34516144 C-87.38618612 114.95278641 -87.43373541 111.94150109 -86.64601135 108.14717102 C-85.2446104 104.86449769 -83.39641146 101.95020596 -81.45851135 98.95967102 C-80.91678284 98.09164856 -80.37505432 97.2236261 -79.81690979 96.32929993 C-78.67496474 94.50212218 -77.52557124 92.67958055 -76.36915588 90.86152649 C-74.20328899 87.4497798 -72.08454432 84.01019714 -69.96583557 80.56904602 C-68.35601021 77.95727336 -66.73821572 75.35058066 -65.1186676 72.74482727 C-62.01547248 67.74785548 -58.92791788 62.74140179 -55.84620667 57.7311554 C-54.50463306 55.55052872 -53.16153395 53.37083984 -51.81690979 51.1920929 C-48.66049504 46.07333677 -45.51757255 40.94790828 -42.42807007 35.78851318 C-41.01404039 33.42920126 -39.59153336 31.07505438 -38.16838074 28.72123718 C-37.17894381 27.07690116 -36.20168659 25.42525532 -35.22486877 23.77339172 C-30.067456 15.25712842 -24.63664797 7.97923218 -15.39601135 3.70967102 C-14.4008551 3.23658508 -13.40569885 2.76349915 -12.38038635 2.27607727 C-8.11741881 0.51608067 -4.61710687 0.01973733 0 0 Z M-14.64601135 24.14717102 C-17.39822942 27.59687388 -19.61428118 31.27595922 -21.83351135 35.08467102 C-22.47079163 36.14081604 -23.1080719 37.19696106 -23.7646637 38.28511047 C-25.08878962 40.48234928 -26.40482966 42.68448034 -27.71290588 44.89131165 C-30.11847417 48.942923 -32.57241241 52.96377107 -35.02980042 56.98408508 C-36.76600427 59.82647378 -38.49363998 62.67393461 -40.2202301 65.52217102 C-44.1405823 71.97579453 -48.1208477 78.39198483 -52.12110901 84.79634094 C-56.09482655 91.18150982 -59.85130963 97.64196807 -63.64601135 104.14717102 C-26.35601135 104.14717102 10.93398865 104.14717102 49.35398865 104.14717102 C49.35398865 75.10717102 49.35398865 46.06717102 49.35398865 16.14717102 C38.24742615 16.08529602 38.24742615 16.08529602 26.91648865 16.02217102 C24.59690125 16.00396301 22.27731384 15.985755 19.88743591 15.96699524 C18.02342459 15.96114724 16.15941068 15.95605241 14.2953949 15.95185852 C12.87462646 15.93651062 12.87462646 15.93651062 11.42515564 15.92085266 C1.42660293 15.91826203 -7.03706232 17.22757083 -14.64601135 24.14717102 Z M65.35398865 16.14717102 C65.35398865 45.18717102 65.35398865 74.22717102 65.35398865 104.14717102 C100.99398865 104.14717102 136.63398865 104.14717102 173.35398865 104.14717102 C163.94810959 79.30700869 163.94810959 79.30700869 154.48069763 54.4901886 C153.75587609 52.59640734 153.0339862 50.70150203 152.31468201 48.80561829 C151.24231744 45.98054633 150.16050971 43.15925368 149.0766449 40.33857727 C148.75994339 39.49807327 148.44324188 38.65756927 148.11694336 37.79159546 C144.77318984 29.15232621 140.25964673 22.17202028 131.79148865 17.83467102 C126.98044518 16.47771004 122.33492409 16.0227585 117.34861755 16.03364563 C116.17178406 16.03376648 114.99495056 16.03388733 113.78245544 16.03401184 C112.56082703 16.03912781 111.33919861 16.04424377 110.08055115 16.04951477 C108.3793512 16.05102539 108.3793512 16.05102539 106.64378357 16.05256653 C102.42217492 16.05778396 98.20058073 16.07174521 93.97898865 16.08467102 C84.53273865 16.10529602 75.08648865 16.12592102 65.35398865 16.14717102 Z " fill="#F7921C" transform="translate(254.64601135253906,39.85282897949219)"/>
<path d="M0 0 C3.04948445 2.23482074 3.90572668 3.62554991 4.8359375 7.3203125 C5.01382813 8.57585937 5.19171875 9.83140625 5.375 11.125 C6.87231843 19.92241183 9.81598679 26.75145793 16.875 32.4375 C22.56796547 36.25792106 28.01527102 37.89106801 34.75 38.9375 C37.96692869 39.49521995 39.86857577 39.92053419 42.6875 41.625 C44.54662618 44.98913308 44.99418027 48.2572037 44 52 C41.76517926 55.04948445 40.37445009 55.90572668 36.6796875 56.8359375 C35.42414063 57.01382813 34.16859375 57.19171875 32.875 57.375 C24.07758817 58.87231843 17.24854207 61.81598679 11.5625 68.875 C7.74207894 74.56796547 6.10893199 80.01527102 5.0625 86.75 C4.50478005 89.96692869 4.07946581 91.86857577 2.375 94.6875 C-0.98913308 96.54662618 -4.2572037 96.99418027 -8 96 C-11.04948445 93.76517926 -11.90572668 92.37445009 -12.8359375 88.6796875 C-13.01382813 87.42414063 -13.19171875 86.16859375 -13.375 84.875 C-14.87231843 76.07758817 -17.81598679 69.24854207 -24.875 63.5625 C-30.56796547 59.74207894 -36.01527102 58.10893199 -42.75 57.0625 C-45.96692869 56.50478005 -47.86857577 56.07946581 -50.6875 54.375 C-52.54662618 51.01086692 -52.99418027 47.7427963 -52 44 C-49.76517926 40.95051555 -48.37445009 40.09427332 -44.6796875 39.1640625 C-43.42414063 38.98617187 -42.16859375 38.80828125 -40.875 38.625 C-32.07758817 37.12768157 -25.24854207 34.18401321 -19.5625 27.125 C-15.74207894 21.43203453 -14.10893199 15.98472898 -13.0625 9.25 C-12.50478005 6.03307131 -12.07946581 4.13142423 -10.375 1.3125 C-7.01086692 -0.54662618 -3.7427963 -0.99418027 0 0 Z M-5 36 C-6.66877721 37.68805632 -6.66877721 37.68805632 -8.375 39.8125 C-10.23566282 42.06250857 -11.86872703 43.90350285 -14.2265625 45.63671875 C-14.81179687 46.08660156 -15.39703125 46.53648437 -16 47 C-16 47.66 -16 48.32 -16 49 C-14.31194368 50.66877721 -14.31194368 50.66877721 -12.1875 52.375 C-9.93749143 54.23566282 -8.09649715 55.86872703 -6.36328125 58.2265625 C-5.91339844 58.81179688 -5.46351563 59.39703125 -5 60 C-4.34 60 -3.68 60 -3 60 C-1.33122279 58.31194368 -1.33122279 58.31194368 0.375 56.1875 C2.23566282 53.93749143 3.86872703 52.09649715 6.2265625 50.36328125 C6.81179687 49.91339844 7.39703125 49.46351563 8 49 C8 48.34 8 47.68 8 47 C6.31194368 45.33122279 6.31194368 45.33122279 4.1875 43.625 C1.93749143 41.76433718 0.09649715 40.13127297 -1.63671875 37.7734375 C-2.08660156 37.18820312 -2.53648437 36.60296875 -3 36 C-3.66 36 -4.32 36 -5 36 Z " fill="#F7921C" transform="translate(156,408)"/>
<path d="M0 0 C3.04948445 2.23482074 3.90572668 3.62554991 4.8359375 7.3203125 C5.01382813 8.57585937 5.19171875 9.83140625 5.375 11.125 C6.87231843 19.92241183 9.81598679 26.75145793 16.875 32.4375 C22.56796547 36.25792106 28.01527102 37.89106801 34.75 38.9375 C37.96692869 39.49521995 39.86857577 39.92053419 42.6875 41.625 C44.54662618 44.98913308 44.99418027 48.2572037 44 52 C41.76517926 55.04948445 40.37445009 55.90572668 36.6796875 56.8359375 C35.42414063 57.01382813 34.16859375 57.19171875 32.875 57.375 C24.07758817 58.87231843 17.24854207 61.81598679 11.5625 68.875 C7.74207894 74.56796547 6.10893199 80.01527102 5.0625 86.75 C4.50478005 89.96692869 4.07946581 91.86857577 2.375 94.6875 C-0.98913308 96.54662618 -4.2572037 96.99418027 -8 96 C-11.04948445 93.76517926 -11.90572668 92.37445009 -12.8359375 88.6796875 C-13.01382813 87.42414063 -13.19171875 86.16859375 -13.375 84.875 C-14.87231843 76.07758817 -17.81598679 69.24854207 -24.875 63.5625 C-30.56796547 59.74207894 -36.01527102 58.10893199 -42.75 57.0625 C-45.96692869 56.50478005 -47.86857577 56.07946581 -50.6875 54.375 C-52.54662618 51.01086692 -52.99418027 47.7427963 -52 44 C-49.76517926 40.95051555 -48.37445009 40.09427332 -44.6796875 39.1640625 C-43.42414062 38.98617187 -42.16859375 38.80828125 -40.875 38.625 C-32.07758817 37.12768157 -25.24854207 34.18401321 -19.5625 27.125 C-15.74207894 21.43203453 -14.10893199 15.98472898 -13.0625 9.25 C-12.50478005 6.03307131 -12.07946581 4.13142423 -10.375 1.3125 C-7.01086692 -0.54662618 -3.7427963 -0.99418027 0 0 Z M-5 36 C-6.66877721 37.68805632 -6.66877721 37.68805632 -8.375 39.8125 C-10.23566282 42.06250857 -11.86872703 43.90350285 -14.2265625 45.63671875 C-14.81179687 46.08660156 -15.39703125 46.53648437 -16 47 C-16 47.66 -16 48.32 -16 49 C-14.31194368 50.66877721 -14.31194368 50.66877721 -12.1875 52.375 C-9.93749143 54.23566282 -8.09649715 55.86872703 -6.36328125 58.2265625 C-5.91339844 58.81179688 -5.46351562 59.39703125 -5 60 C-4.34 60 -3.68 60 -3 60 C-1.33122279 58.31194368 -1.33122279 58.31194368 0.375 56.1875 C2.23566282 53.93749143 3.86872703 52.09649715 6.2265625 50.36328125 C6.81179687 49.91339844 7.39703125 49.46351563 8 49 C8 48.34 8 47.68 8 47 C6.31194368 45.33122279 6.31194368 45.33122279 4.1875 43.625 C1.93749143 41.76433718 0.09649715 40.13127297 -1.63671875 37.7734375 C-2.08660156 37.18820312 -2.53648438 36.60296875 -3 36 C-3.66 36 -4.32 36 -5 36 Z " fill="#F7921C" transform="translate(60,352)"/>
<path d="M0 0 C3.04948445 2.23482074 3.90572668 3.62554991 4.8359375 7.3203125 C5.01382813 8.57585938 5.19171875 9.83140625 5.375 11.125 C6.87231843 19.92241183 9.81598679 26.75145793 16.875 32.4375 C22.56796547 36.25792106 28.01527102 37.89106801 34.75 38.9375 C37.96692869 39.49521995 39.86857577 39.92053419 42.6875 41.625 C44.54662618 44.98913308 44.99418027 48.2572037 44 52 C41.76517926 55.04948445 40.37445009 55.90572668 36.6796875 56.8359375 C35.42414063 57.01382813 34.16859375 57.19171875 32.875 57.375 C24.07758817 58.87231843 17.24854207 61.81598679 11.5625 68.875 C7.74207894 74.56796547 6.10893199 80.01527102 5.0625 86.75 C4.50478005 89.96692869 4.07946581 91.86857577 2.375 94.6875 C-0.98913308 96.54662618 -4.2572037 96.99418027 -8 96 C-11.04948445 93.76517926 -11.90572668 92.37445009 -12.8359375 88.6796875 C-13.01382813 87.42414063 -13.19171875 86.16859375 -13.375 84.875 C-14.87231843 76.07758817 -17.81598679 69.24854207 -24.875 63.5625 C-30.56796547 59.74207894 -36.01527102 58.10893199 -42.75 57.0625 C-45.96692869 56.50478005 -47.86857577 56.07946581 -50.6875 54.375 C-52.54662618 51.01086692 -52.99418027 47.7427963 -52 44 C-49.76517926 40.95051555 -48.37445009 40.09427332 -44.6796875 39.1640625 C-43.42414062 38.98617187 -42.16859375 38.80828125 -40.875 38.625 C-32.07758817 37.12768157 -25.24854207 34.18401321 -19.5625 27.125 C-15.74207894 21.43203453 -14.10893199 15.98472898 -13.0625 9.25 C-12.50478005 6.03307131 -12.07946581 4.13142423 -10.375 1.3125 C-7.01086692 -0.54662618 -3.7427963 -0.99418027 0 0 Z M-5 36 C-6.66877721 37.68805632 -6.66877721 37.68805632 -8.375 39.8125 C-10.23566282 42.06250857 -11.86872703 43.90350285 -14.2265625 45.63671875 C-14.81179687 46.08660156 -15.39703125 46.53648438 -16 47 C-16 47.66 -16 48.32 -16 49 C-14.31194368 50.66877721 -14.31194368 50.66877721 -12.1875 52.375 C-9.93749143 54.23566282 -8.09649715 55.86872703 -6.36328125 58.2265625 C-5.91339844 58.81179687 -5.46351562 59.39703125 -5 60 C-4.34 60 -3.68 60 -3 60 C-1.33122279 58.31194368 -1.33122279 58.31194368 0.375 56.1875 C2.23566282 53.93749143 3.86872703 52.09649715 6.2265625 50.36328125 C6.81179687 49.91339844 7.39703125 49.46351562 8 49 C8 48.34 8 47.68 8 47 C6.31194368 45.33122279 6.31194368 45.33122279 4.1875 43.625 C1.93749143 41.76433718 0.09649715 40.13127297 -1.63671875 37.7734375 C-2.08660156 37.18820313 -2.53648438 36.60296875 -3 36 C-3.66 36 -4.32 36 -5 36 Z " fill="#F7921C" transform="translate(60,8)"/>
<path d="M0 0 C8.80288754 6.34043826 15.4186507 14.72648904 17.58203125 25.4921875 C18.92007691 37.90936834 17.85729499 48.88109459 10.39453125 59.2421875 C3.58210875 67.3274193 -4.72289951 73.55522767 -15.48876953 74.71533203 C-28.40007937 75.61089799 -39.16843729 74.04490094 -49.3515625 65.46484375 C-57.86959925 57.33325857 -62.42046403 48.68416257 -62.88867188 36.85693359 C-63.04371176 24.34263074 -60.22647828 14.71931927 -51.41796875 5.4921875 C-37.63784493 -7.66275112 -16.31305228 -10.17259803 0 0 Z M-42.19140625 21.6484375 C-46.12351302 27.55912028 -46.11660152 33.61334174 -45.41796875 40.4921875 C-43.64454442 47.13691664 -38.97130405 51.66586709 -33.41796875 55.4921875 C-27.41909871 58.43281007 -20.53513345 58.59102538 -14.10546875 56.875 C-7.97664014 54.16969675 -3.17844083 49.08355055 -0.24609375 43.1015625 C1.66008982 37.09528598 1.64641812 29.98927192 -0.91796875 24.1796875 C-4.39834133 18.24695275 -9.85358805 13.56055006 -16.41796875 11.4921875 C-28.14191837 10.06609888 -34.72539236 12.80600765 -42.19140625 21.6484375 Z " fill="#F7921C" transform="translate(150.41796875,253.5078125)"/>
<path d="M0 0 C10.56 0 21.12 0 32 0 C32 5.28 32 10.56 32 16 C21.44 16 10.88 16 0 16 C0 10.72 0 5.44 0 0 Z " fill="#F7921C" transform="translate(416,176)"/>
<path d="M0 0 C10.56 0 21.12 0 32 0 C32 5.28 32 10.56 32 16 C21.44 16 10.88 16 0 16 C0 10.72 0 5.44 0 0 Z " fill="#F7921C" transform="translate(288,176)"/>
</svg>
