<?xml version="1.0" encoding="UTF-8"?>
<svg version="1.1" xmlns="http://www.w3.org/2000/svg" width="512" height="512">
<path d="M0 0 C0.33 5.61 0.66 11.22 1 17 C-1.14459717 17.11275269 -1.14459717 17.11275269 -3.33251953 17.2277832 C-8.74921693 17.51501969 -14.16519509 17.81435414 -19.58105469 18.11694336 C-21.90412315 18.24513142 -24.22736392 18.37024212 -26.55078125 18.49194336 C-38.50444127 19.12013094 -50.42296483 19.86832593 -62.3046875 21.35546875 C-63.19995148 21.45837723 -64.09521545 21.56128571 -65.01760864 21.66731262 C-74.35844832 22.94219075 -79.01058167 27.67703055 -84.70703125 34.890625 C-96.82593813 51.3244408 -112.41299701 77.47020093 -111.94140625 98.62890625 C-111.3014561 102.63354276 -110.20516926 105.24813581 -107.1875 108 C-102.61434976 110.8694276 -98.71372015 111.12476672 -93.39393139 111.12863445 C-92.27073976 111.1318589 -91.14754813 111.13508335 -89.99032038 111.1384055 C-88.76134715 111.1368569 -87.53237391 111.1353083 -86.26615906 111.13371277 C-84.3019872 111.1371111 -84.3019872 111.1371111 -82.2981351 111.14057809 C-78.66496525 111.14669631 -75.0318184 111.14656247 -71.39864457 111.14538372 C-67.47965714 111.14517971 -63.5606771 111.15069842 -59.64169312 111.15544128 C-51.96411486 111.16374857 -44.28654428 111.16649616 -36.6089619 111.16705366 C-30.36820608 111.1675288 -24.12745279 111.16958341 -17.88669777 111.17275429 C-0.19341591 111.18156116 17.49985988 111.18617362 35.19314394 111.18542381 C36.14704072 111.18538386 37.10093749 111.1853439 38.08374023 111.18530273 C39.03880159 111.18526185 39.99386294 111.18522097 40.97786554 111.18517885 C56.4562512 111.1847724 71.93461252 111.19434176 87.41299114 111.2084411 C103.3056842 111.22280362 119.19836539 111.22971135 135.09106511 111.22884732 C144.01375206 111.22851531 152.93641351 111.23126447 161.85909462 111.24202538 C169.45609372 111.25112875 177.05305576 111.25330697 184.65005795 111.24651595 C188.52544466 111.2432499 192.40076026 111.24319714 196.27614021 111.2518692 C200.47921673 111.26117775 204.68212843 111.25496038 208.88520813 111.24723816 C210.71862974 111.2549535 210.71862974 111.2549535 212.58909017 111.26282471 C223.45209793 111.36666429 223.45209793 111.36666429 232.875 106.625 C236.80166285 101.77441648 237.61606803 98.25932955 237 92 C236.13006508 88.48256193 234.90934559 85.13542643 233.625 81.75 C233.26631836 80.79053467 232.90763672 79.83106934 232.53808594 78.8425293 C220.90991584 48.00408697 220.90991584 48.00408697 200.015625 23.6953125 C197.61197032 22.8661448 195.25058531 22.33563414 192.75 21.875 C190.39875 21.441875 190.39875 21.441875 188 21 C188.66 15.39 189.32 9.78 190 4 C200.24642696 4.59399577 209.50277795 6.52824405 217 14 C218.66815513 16.15031292 220.16394949 18.22147905 221.625 20.5 C222.04539551 21.14743164 222.46579102 21.79486328 222.89892578 22.46191406 C224.28689455 24.62887079 225.64784439 26.81052628 227 29 C227.47244141 29.76376953 227.94488281 30.52753906 228.43164062 31.31445312 C234.99489464 42.05991452 240.63798122 53.12900644 245.75 64.625 C246.27577637 65.80545898 246.80155273 66.98591797 247.34326172 68.20214844 C251 76.59655536 251 76.59655536 251 80 C252.98 79.67 254.96 79.34 257 79 C256.566875 77.75283203 256.566875 77.75283203 256.125 76.48046875 C255.75375 75.39378906 255.3825 74.30710937 255 73.1875 C254.62875 72.10855469 254.2575 71.02960938 253.875 69.91796875 C253 67 253 67 253 64 C257.74646695 63.92484279 262.49257414 63.87093208 267.23950195 63.83520508 C268.84828743 63.82028366 270.45703344 63.79993909 272.06567383 63.77368164 C287.44815916 63.52921085 302.18865815 64.40253131 313.9375 75.5 C318.34520334 79.91812344 319.3026473 84.29475618 319.375 90.4375 C319.2446751 97.66238691 317.36861443 100.68521771 312.25 105.6875 C305.25925843 110.6616815 297.88487597 112.13646062 289.38671875 112.09765625 C287.5159668 112.09282227 287.5159668 112.09282227 285.60742188 112.08789062 C284.31384766 112.07951172 283.02027344 112.07113281 281.6875 112.0625 C279.71813477 112.05573242 279.71813477 112.05573242 277.70898438 112.04882812 C274.47263672 112.03705959 271.23631255 112.01912463 268 112 C266.35 107.05 264.7 102.1 263 97 C261.02 96.67 259.04 96.34 257 96 C257.77541263 98.70330129 258.59243749 101.38092368 259.4375 104.0625 C259.64826172 104.81466797 259.85902344 105.56683594 260.07617188 106.34179688 C263.52062059 116.95069891 273.67524121 121.18306659 283 126 C296.38357212 132.91361322 308.19697671 140.63452375 313.09375 155.578125 C316.92027427 170.02655285 319.1296143 184.42887765 319.203125 199.37890625 C319.21027527 200.34011383 319.21742554 201.30132141 319.22479248 202.29165649 C319.39799593 232.43604503 316.68561147 259.94783496 309.9375 289.3203125 C309.78748535 289.99215073 309.6374707 290.66398895 309.48291016 291.35618591 C308.71532276 294.62689082 307.76020757 297.55715489 306.42944336 300.64916992 C305.12383746 303.70970637 304.51707661 306.01546443 304.19140625 309.29296875 C304.08650879 310.24743896 303.98161133 311.20190918 303.87353516 312.18530273 C303.77089355 313.17602783 303.66825195 314.16675293 303.5625 315.1875 C302.08481067 327.72023891 300.10650594 340.55456438 290.3125 349.4375 C286.17781205 352.23120808 282.91942965 352.16626649 278.04956055 352.19287109 C277.22824646 352.20104858 276.40693237 352.20922607 275.56072998 352.21765137 C272.83606703 352.24251384 270.11145619 352.25902326 267.38671875 352.2734375 C266.45702585 352.27876118 265.52733295 352.28408485 264.56946754 352.28956985 C259.64894052 352.31630476 254.7284389 352.33567883 249.80786133 352.35009766 C244.72324465 352.36674922 239.63927567 352.41153016 234.55490398 352.4624691 C230.64725492 352.49611018 226.73976021 352.50767161 222.83197975 352.51332474 C220.95766053 352.52004559 219.08335176 352.53528928 217.2091732 352.55921555 C214.58511811 352.59080427 211.96281803 352.59091377 209.33862305 352.58349609 C208.56492874 352.59990143 207.79123444 352.61630676 206.99409485 352.63320923 C202.98356246 352.58682132 201.21776434 352.17657509 198.06184387 349.61758423 C191.0679816 340.73862698 191 330.93415694 191 320 C106.52 320 22.04 320 -65 320 C-65 323.63 -65 327.26 -65 331 C-66.03862143 337.95561626 -67.97381374 344.21235726 -72 350 C-75.75207324 352.50138216 -78.70244721 352.29561225 -83.0480957 352.29052734 C-83.86794952 352.29724457 -84.68780334 352.30396179 -85.53250122 352.31088257 C-88.24698932 352.32990369 -90.96123063 352.33378905 -93.67578125 352.3359375 C-95.56284182 352.3423634 -97.44990138 352.3490916 -99.33695984 352.35610962 C-103.29554554 352.36809326 -107.25404392 352.37178941 -111.21264648 352.37060547 C-116.2802548 352.37040241 -121.3473015 352.39768645 -126.4147768 352.43214989 C-130.31390442 352.45441221 -134.21289686 352.45844319 -138.11208153 352.45738602 C-139.97996135 352.45974368 -141.8478448 352.4685765 -143.715662 352.48405075 C-146.33207849 352.50369404 -148.94728382 352.4978792 -151.5637207 352.48583984 C-152.33224869 352.49707886 -153.10077667 352.50831787 -153.89259338 352.51989746 C-159.08402221 352.45933588 -161.99005897 351.2545135 -166 348 C-169.07140079 344.67898007 -170.91431158 341.4218724 -172.625 337.25 C-173.02976563 336.28578125 -173.43453125 335.3215625 -173.8515625 334.328125 C-176.0207242 328.04198292 -177.12303718 321.83597627 -177.63183594 315.21875 C-178.26063863 307.06130962 -179.76484149 300.08638288 -182.5703125 292.3671875 C-186.06489973 282.2245989 -187.97787363 271.51293174 -190 261 C-190.18369141 260.04528809 -190.36738281 259.09057617 -190.55664062 258.10693359 C-193.32139286 242.7658632 -193.30632606 227.28799897 -193.375 211.75 C-193.3830365 210.73346344 -193.391073 209.71692688 -193.39935303 208.66958618 C-193.54032334 185.13917243 -193.19143142 156.33393173 -176.5625 137.9375 C-169.64886633 131.41668642 -160.88460438 126.94862975 -152.4609375 122.67578125 C-151.32966431 122.09751587 -151.32966431 122.09751587 -150.17553711 121.50756836 C-148.72844672 120.77526201 -147.27384546 120.05753376 -145.81079102 119.35766602 C-139.4270876 116.15010223 -135.2939755 112.12422426 -132.5390625 105.47265625 C-132.23742187 104.34730469 -131.93578125 103.22195313 -131.625 102.0625 C-131.14933594 100.34740234 -131.14933594 100.34740234 -130.6640625 98.59765625 C-130.33535156 97.31181641 -130.33535156 97.31181641 -130 96 C-133.465 96.495 -133.465 96.495 -137 97 C-138.65 101.95 -140.3 106.9 -142 112 C-146.39651864 112.10907972 -150.79026515 112.18784827 -155.1875 112.25 C-156.41404297 112.28351563 -157.64058594 112.31703125 -158.90429688 112.3515625 C-170.39983273 112.47288742 -180.90224826 110.89295667 -189.51171875 102.78125 C-194.19682489 97.17387888 -193.54268869 91.00243465 -193 84 C-190.9933407 77.62590576 -186.14853728 72.80731747 -180.4140625 69.515625 C-171.86148469 65.4429689 -163.687403 63.67316524 -154.24609375 63.8046875 C-153.06660912 63.80893234 -153.06660912 63.80893234 -151.86329651 63.81326294 C-149.38786641 63.82432711 -146.91281801 63.84940409 -144.4375 63.875 C-142.7441459 63.88504766 -141.05078605 63.89417035 -139.35742188 63.90234375 C-135.23813747 63.92422102 -131.11913311 63.95865282 -127 64 C-127.30787156 65.42621972 -127.61825963 66.85189635 -127.9296875 68.27734375 C-128.10226074 69.07132568 -128.27483398 69.86530762 -128.45263672 70.68334961 C-129.12355604 73.52293635 -130.01463211 76.25504659 -131 79 C-129.35 79 -127.7 79 -126 79 C-125.72289185 78.16529175 -125.72289185 78.16529175 -125.44018555 77.3137207 C-117.58706552 53.97389481 -104.66029627 18.86535691 -81 7 C-66.60976441 2.13156432 -50.24192911 1.7792044 -35.16064453 0.99462891 C-32.86836419 0.87465269 -30.57681619 0.74452599 -28.28515625 0.61328125 C-18.84120878 0.09143669 -9.45868148 -0.08104133 0 0 Z M-176 88 C-176 89.32 -176 90.64 -176 92 C-168.47658029 95.68494027 -161.16659545 95.28710687 -153 95 C-152.32739649 93.23141309 -151.66211605 91.46003984 -151 89.6875 C-150.62875 88.70136719 -150.2575 87.71523437 -149.875 86.69921875 C-148.84581498 83.99728344 -148.84581498 83.99728344 -149 81 C-158.43871798 80.56212133 -169.13590675 80.44949743 -176 88 Z M274 81 C275.65 85.62 277.3 90.24 279 95 C290.85907813 95.48544416 290.85907813 95.48544416 302 92 C301.96219702 89.62766389 301.96219702 89.62766389 301 87 C292.96875774 80.14406149 283.98627153 80.79195268 274 81 Z M239.30078125 123.4921875 C234.78152767 126.45387151 230.34977907 127.24979469 225.01656151 127.26285553 C223.24366109 127.27437896 223.24366109 127.27437896 221.43494451 127.2861352 C220.14546647 127.28440223 218.85598843 127.28266927 217.5274353 127.28088379 C216.13662342 127.28605469 214.7458145 127.29208202 213.35500968 127.29889059 C209.5379861 127.31499506 205.72103783 127.31860774 201.90398431 127.32008553 C197.78519193 127.32379287 193.66643834 127.33889072 189.54766846 127.35235596 C180.54337837 127.37949868 171.53910612 127.39156838 162.53478193 127.40037727 C156.91001096 127.40590635 151.28524684 127.41438185 145.6604805 127.42338562 C130.08024973 127.44776817 114.50002444 127.46836713 98.91977501 127.4751358 C97.92295188 127.47557494 96.92612874 127.47601407 95.89909885 127.47646651 C94.89992054 127.47690306 93.90074223 127.47733962 92.8712858 127.4777894 C90.84664496 127.47867633 88.82200412 127.47956945 86.79736328 127.48046875 C85.79307622 127.48091161 84.78878916 127.48135447 83.75406916 127.48181075 C67.48622746 127.48970438 51.21856506 127.52460646 34.9507926 127.57118779 C18.23991418 127.61865078 1.52912567 127.64354115 -15.18182123 127.64587164 C-24.56078317 127.64770319 -33.93951149 127.65915814 -43.31840897 127.69551086 C-51.30584252 127.72636164 -59.29297025 127.7365254 -67.28045209 127.72003466 C-71.35299682 127.7122384 -75.42492616 127.71399623 -79.49739456 127.74214935 C-83.23229482 127.76773181 -86.96612066 127.76514474 -90.70102052 127.74096793 C-92.67821832 127.73523837 -94.65543558 127.75884851 -96.63248408 127.78381205 C-105.42499637 127.6870481 -111.47904134 125.48789645 -119 121 C-119.66 120.67 -120.32 120.34 -121 120 C-121.495 120.86625 -121.99 121.7325 -122.5 122.625 C-128.1827563 131.05446283 -138.52566118 135.01206504 -147.3359375 139.32421875 C-156.07036791 143.72627876 -165.45077548 148.96047873 -170 158 C-170.84831052 160.68077214 -171.54040568 163.20515699 -172.125 165.9375 C-172.28097656 166.59556641 -172.43695313 167.25363281 -172.59765625 167.93164062 C-175.89931966 182.57083419 -176.36898355 197.00587993 -176.3125 211.9375 C-176.31067719 212.93411652 -176.30885437 213.93073303 -176.30697632 214.95755005 C-176.26115789 229.82824225 -175.86024611 244.36146336 -173 259 C-172.72663818 260.41394043 -172.72663818 260.41394043 -172.44775391 261.85644531 C-168.72498702 284.38921953 -168.72498702 284.38921953 -157 303 C-153.37066244 304.37399881 -149.61863616 304.12776745 -145.78065777 304.13142776 C-144.68281432 304.13450672 -144.68281432 304.13450672 -143.56279221 304.13764787 C-141.09707644 304.14332657 -138.63141637 304.14185955 -136.16569519 304.14044189 C-134.38531741 304.14302502 -132.6049402 304.14603804 -130.8245638 304.1494453 C-125.92163271 304.15752455 -121.01871624 304.15930538 -116.11577928 304.16004276 C-110.83209042 304.16189169 -105.54840919 304.16943816 -100.26472473 304.17617798 C-88.70700998 304.18976795 -77.1492987 304.19578693 -65.59157729 304.20018864 C-58.37786202 304.20294968 -51.16414809 304.20718676 -43.95043373 304.21169281 C-23.9858709 304.22388586 -4.02130914 304.23418542 15.94325733 304.2375679 C17.8604173 304.23789725 17.8604173 304.23789725 19.81630776 304.23823325 C21.09750468 304.23845153 22.3787016 304.23866981 23.69872266 304.2388947 C26.29499805 304.23933817 28.89127344 304.23978473 31.48754883 304.24023438 C33.41931993 304.24056652 33.41931993 304.24056652 35.39011671 304.24090537 C56.2655635 304.24485478 77.14097541 304.262313 98.01640872 304.2855939 C119.43821562 304.30929174 140.86000501 304.32176902 162.28182524 304.32293582 C174.31374014 304.32385341 186.34560958 304.32962697 198.37751198 304.34775543 C208.62132235 304.3631352 218.86507323 304.36828941 229.10889295 304.36001733 C234.33704572 304.35610342 239.56507859 304.35707654 244.79321671 304.37107468 C249.57807056 304.38376901 254.36271386 304.38265549 259.14756723 304.37048396 C260.87972964 304.36851921 262.61190674 304.37164114 264.34404848 304.38032833 C266.69733334 304.3913847 269.0498704 304.38395834 271.40313435 304.3719368 C273.36436504 304.37283243 273.36436504 304.37283243 275.36521655 304.37374616 C280.20160211 303.87644541 284.35752865 302.70046668 287.83227539 299.10302734 C290.01845605 295.16579963 291.1504529 290.92306459 292.4375 286.625 C292.74389404 285.60639893 293.05028809 284.58779785 293.3659668 283.53833008 C299.88631496 261.16634471 302.37014901 238.18060352 302.31567383 214.94189453 C302.31251019 212.13404553 302.33610615 209.32725162 302.36132812 206.51953125 C302.67403737 176.68281772 302.67403737 176.68281772 290.22265625 150.82421875 C283.84259738 145.58786112 276.54052257 141.77479615 269.24145508 137.99951172 C260.02650943 133.22467467 251.31458542 128.24275725 246 119 C243.63057559 119 241.0827074 122.05972648 239.30078125 123.4921875 Z M-159 320 C-158.41602515 328.2773501 -158.41602515 328.2773501 -154 336 C-130.9 336 -107.8 336 -84 336 C-81.47295372 329.47295372 -81.47295372 329.47295372 -82 320 C-107.41 320 -132.82 320 -159 320 Z M208 320 C207.47295372 329.47295372 207.47295372 329.47295372 210 336 C233.1 336 256.2 336 280 336 C284.41602515 328.2773501 284.41602515 328.2773501 285 320 C259.59 320 234.18 320 208 320 Z " fill="#F7921C" transform="translate(193,160)"/>
<path d="M0 0 C0.87624023 0.00757324 1.75248047 0.01514648 2.65527344 0.02294922 C14.32029243 0.31922427 22.70226866 4.21218868 31.03125 12.28515625 C39.99441617 21.83700495 41.7041927 32.13324438 41.4609375 44.828125 C41.081756 52.5308368 37.87956371 58.46557991 34.046875 65 C33.68851562 65.61327148 33.33015625 66.22654297 32.9609375 66.85839844 C31.93133394 68.59261379 30.86506851 70.30490907 29.796875 72.015625 C27.56380996 76.58610391 26.46437205 80.77353925 27.7265625 85.86328125 C29.95070865 89.96352015 31.64310501 92.5791533 36.125 94.4375 C39.98674769 95.388412 43.62721492 95.57363103 47.59765625 95.61328125 C48.82677734 95.63712891 50.05589844 95.66097656 51.32226562 95.68554688 C53.90282524 95.72857793 56.48360845 95.75979427 59.06445312 95.77929688 C60.29228516 95.80701172 61.52011719 95.83472656 62.78515625 95.86328125 C63.90543213 95.87786377 65.02570801 95.89244629 66.17993164 95.9074707 C69.73921123 96.54804071 70.92247338 97.62660958 73.125 100.4375 C73.65625 102.4375 73.65625 102.4375 73.625 104.4375 C73.64046875 105.4275 73.64046875 105.4275 73.65625 106.4375 C72.85687485 109.44691234 71.58443733 110.53253893 69.125 112.4375 C66.33981877 112.83616209 63.95807294 112.99925189 61.17578125 112.96875 C60.0177021 112.97449036 60.0177021 112.97449036 58.83622742 112.98034668 C57.20306088 112.983065 55.56985074 112.97570921 53.93676758 112.95898438 C51.46268891 112.93771653 48.99156234 112.95870973 46.51757812 112.984375 C34.84291946 113.00594904 26.7057046 111.56917422 17.9140625 103.35546875 C11.8840624 96.89099266 9.51330657 90.25250152 8.8125 81.5625 C9.27265026 70.168303 15.54194891 60.84563656 21.14111328 51.27172852 C24.1209234 45.7165639 23.83438788 39.55075441 23.125 33.4375 C21.09555961 27.68225492 18.01967417 23.58152304 12.8125 20.375 C5.74172459 17.04062096 -0.63415813 17.12064246 -8.22265625 18.37890625 C-15.9082433 21.44634968 -21.82883587 28.1171353 -27.53125 33.8984375 C-28.31898804 34.68900543 -29.10672607 35.47957336 -29.91833496 36.2940979 C-32.4086667 38.7955356 -34.89191493 41.30387077 -37.375 43.8125 C-39.07245157 45.51999374 -40.7703638 47.22702965 -42.46875 48.93359375 C-46.60950738 53.0962842 -50.74448728 57.26464521 -54.875 61.4375 C-52.67288698 66.24595208 -52.67288698 66.24595208 -46.875 72.4375 C-54.465 80.0275 -62.055 87.6175 -69.875 95.4375 C-69.215 97.0875 -68.555 98.7375 -67.875 100.4375 C-67.875 103.65350522 -68.14924736 105.64281044 -70.35546875 108.05859375 C-70.91878906 108.61675781 -71.48210937 109.17492187 -72.0625 109.75 C-74.41418383 112.27084821 -74.41418383 112.27084821 -74.89453125 115.56640625 C-74.41364205 117.79242214 -74.41364205 117.79242214 -73.71875 119.8359375 C-67.20976462 139.9053091 -69.5857953 162.07331341 -78.6875 180.8125 C-81.79584575 186.90052518 -85.39294746 192.26179648 -89.875 197.4375 C-90.47183594 198.23027344 -91.06867188 199.02304688 -91.68359375 199.83984375 C-99.88364069 209.56004199 -111.13512742 215.98294315 -122.875 220.4375 C-123.98617187 220.870625 -125.09734375 221.30375 -126.2421875 221.75 C-146.2433664 228.28099719 -168.6077544 225.68072972 -187.25 216.625 C-193.33504784 213.51497734 -198.71623805 209.93877268 -203.875 205.4375 C-204.84308594 204.66535156 -205.81117188 203.89320313 -206.80859375 203.09765625 C-216.40913081 195.08367411 -222.45343272 183.92753866 -226.875 172.4375 C-227.52662109 170.76880859 -227.52662109 170.76880859 -228.19140625 169.06640625 C-234.70927113 149.05860501 -232.12054734 126.70951668 -223.0625 108.0625 C-219.95247734 101.97745216 -216.37627268 96.59626195 -211.875 91.4375 C-211.10285156 90.46941406 -210.33070313 89.50132813 -209.53515625 88.50390625 C-201.52117411 78.90336919 -190.36503866 72.85906728 -178.875 68.4375 C-177.76253906 68.00308594 -176.65007812 67.56867188 -175.50390625 67.12109375 C-159.92025281 62.04446658 -141.09617493 62.3322924 -125.6328125 67.66015625 C-122.76800228 68.46765941 -121.57253201 68.6044758 -118.875 67.4375 C-117.92625 66.6125 -116.9775 65.7875 -116 64.9375 C-113.05563766 62.37879721 -110.86346732 61.52236101 -106.875 61.4375 C-105.225 62.0975 -103.575 62.7575 -101.875 63.4375 C-94.285 55.8475 -86.695 48.2575 -78.875 40.4375 C-76.565 42.4175 -74.255 44.3975 -71.875 46.4375 C-70.555 47.0975 -69.235 47.7575 -67.875 48.4375 C-67.40861115 47.9622287 -66.94222229 47.4869574 -66.46170044 46.99728394 C-61.5740955 42.02069325 -56.67207756 37.05863095 -51.76171875 32.10449219 C-49.9347943 30.25754134 -48.11148695 28.40700491 -46.29199219 26.55273438 C-43.66520334 23.87703489 -41.02536713 21.21480686 -38.3828125 18.5546875 C-37.58134796 17.73257782 -36.77988342 16.91046814 -35.95413208 16.06344604 C-25.65846656 5.76379289 -14.67882952 -0.1784574 0 0 Z M-78.875 64.4375 C-86.465 72.0275 -94.055 79.6175 -101.875 87.4375 C-104.185 85.7875 -106.495 84.1375 -108.875 82.4375 C-116.01450999 89.55385193 -123.15132608 96.67289328 -130.28470421 103.79539204 C-133.59700756 107.10247417 -136.91023582 110.40861852 -140.22558594 113.71264648 C-143.42432459 116.90052932 -146.6206228 120.09084022 -149.81523514 123.28285789 C-151.03519501 124.50096839 -152.2560355 125.71819759 -153.47776413 126.93453407 C-155.18721443 128.63673826 -156.89352264 130.34203322 -158.59912109 132.0480957 C-159.10622116 132.55160049 -159.61332123 133.05510529 -160.13578796 133.5738678 C-163.89547802 137.3446599 -166.16664429 139.82354305 -166.25 145.25 C-166.14467511 150.06685824 -165.17400559 152.78184515 -161.875 156.4375 C-158.1994074 159.58800794 -154.90798783 159.80870784 -150.25390625 159.93359375 C-144.53109622 158.74016703 -140.31918117 154.12782558 -136.32861328 150.11816406 C-135.81079788 149.60064072 -135.29298248 149.08311737 -134.75947571 148.5499115 C-133.06663086 146.85568477 -131.38096166 145.1545085 -129.6953125 143.453125 C-128.5160533 142.2701316 -127.33634874 141.087582 -126.15621948 139.90545654 C-123.06443382 136.80606645 -119.97870398 133.70071566 -116.89422607 130.59405518 C-113.74043379 127.41973555 -110.58091064 124.25113129 -107.421875 121.08203125 C-101.23398236 114.87274501 -95.05248004 108.65714551 -88.875 102.4375 C-90.525 100.1275 -92.175 97.8175 -93.875 95.4375 C-86.285 87.8475 -78.695 80.2575 -70.875 72.4375 C-75.74316708 65.84172604 -75.74316708 65.84172604 -78.875 64.4375 Z M-192.875 96.4375 C-193.59171875 97.04207031 -194.3084375 97.64664063 -195.046875 98.26953125 C-205.25354791 107.66520883 -213.01212941 121.83099789 -214.05200195 135.81835938 C-214.33926141 147.36367192 -214.54284883 157.67849106 -209.875 168.4375 C-209.51277344 169.31277344 -209.15054688 170.18804687 -208.77734375 171.08984375 C-201.74185408 186.56792103 -188.39341767 198.27598774 -172.8125 204.6875 C-155.78831734 210.40224679 -137.76116431 209.24249822 -121.63427734 201.37646484 C-106.16610536 193.12076273 -95.35468063 179.31405607 -89.63671875 162.98046875 C-87.77271401 156.75756063 -87.69172142 150.88782496 -87.6875 144.4375 C-87.67525391 143.45265625 -87.66300781 142.4678125 -87.65039062 141.453125 C-87.64845703 140.49921875 -87.64652344 139.5453125 -87.64453125 138.5625 C-87.64042236 137.69882813 -87.63631348 136.83515625 -87.63208008 135.9453125 C-87.90340422 133.14426563 -88.72035452 130.99104839 -89.875 128.4375 C-95.17285645 132.84140504 -100.00778164 137.51767008 -104.79296875 142.46875 C-106.30977184 144.01768642 -107.82737535 145.56583936 -109.34570312 147.11328125 C-111.7050728 149.521881 -114.05955621 151.93444893 -116.40063477 154.36083984 C-136.13950341 174.78723511 -136.13950341 174.78723511 -148.1953125 176.1640625 C-157.56827659 175.91386017 -165.95662529 175.35587471 -172.875 168.4375 C-173.535 168.4375 -174.195 168.4375 -174.875 168.4375 C-175.1225 167.921875 -175.37 167.40625 -175.625 166.875 C-176.96939219 164.25343523 -178.45307521 161.74182796 -179.97265625 159.21875 C-182.10864175 155.00225915 -182.18374699 150.5903673 -182.3125 145.9375 C-182.37308594 144.6278125 -182.43367188 143.318125 -182.49609375 141.96875 C-181.75203012 130.99297824 -173.82912834 122.5371352 -166.3203125 115.296875 C-165.41876434 114.40381653 -164.51721619 113.51075806 -163.58834839 112.59063721 C-161.22171746 110.2516395 -158.84301604 107.92655977 -156.45697021 105.60748291 C-154.01228218 103.22485683 -151.58509668 100.82453507 -149.15625 98.42578125 C-144.41154992 93.74680724 -139.65009761 89.08543724 -134.875 84.4375 C-135.37 83.4475 -135.37 83.4475 -135.875 82.4375 C-156.63947158 77.6822775 -176.67214529 82.71734077 -192.875 96.4375 Z " fill="#F7921C" transform="translate(438.875,15.5625)"/>
<path d="M0 0 C0.88163946 -0.00297112 1.76327892 -0.00594224 2.67163473 -0.0090034 C5.64344974 -0.0177163 8.6152246 -0.01920082 11.58705139 -0.02069092 C13.71053148 -0.02531719 15.83401074 -0.03034159 17.95748901 -0.03573608 C23.73837907 -0.04887889 29.5192575 -0.0553085 35.30016017 -0.05974674 C38.90802019 -0.06267393 42.51587701 -0.06677802 46.12373543 -0.07125092 C57.40099636 -0.08492968 68.67825001 -0.09459496 79.95551866 -0.09845281 C92.99414123 -0.10293717 106.03265916 -0.12050104 119.0712499 -0.1494534 C129.13664878 -0.17103172 139.20201813 -0.18115499 149.2674399 -0.18249393 C155.28536881 -0.18354456 161.3031994 -0.18950716 167.32110405 -0.20731354 C172.97880024 -0.22372817 178.63632352 -0.22598202 184.29403496 -0.21717453 C186.37459271 -0.21640064 188.4551595 -0.22079276 190.53569412 -0.23063278 C193.36799945 -0.24324651 196.19968245 -0.23753351 199.03198242 -0.22705078 C199.86232449 -0.23510719 200.69266656 -0.24316359 201.54817051 -0.25146413 C207.16958405 -0.20253844 207.16958405 -0.20253844 209.25053984 1.53868794 C213.64610474 6.83659193 211.94586865 16.5609424 211.57948303 23.14044189 C210.04611005 36.0686049 204.02028196 50.87001377 193.57948303 59.14044189 C185.21698761 64.84503222 176.90344033 64.84950833 167.14930725 64.77154541 C165.50565318 64.77669176 163.86200463 64.78397841 162.21836853 64.79322815 C157.78033838 64.81165657 153.3429132 64.79885929 148.90490866 64.77913785 C144.24817869 64.76268447 139.59148502 64.77157326 134.93473816 64.7766571 C127.11879371 64.78116971 119.30308924 64.76535778 111.48719788 64.73736572 C102.46317514 64.70529516 93.43958454 64.70534097 84.41553104 64.72258049 C75.71553011 64.73846555 67.01568696 64.73170074 58.3156929 64.71464348 C54.62128094 64.70778807 50.92699601 64.7087898 47.23258591 64.71618843 C42.88048399 64.72387199 38.52887171 64.71165799 34.17685318 64.68433952 C32.58378807 64.67747711 30.99067705 64.67733466 29.39761353 64.68455505 C21.25545369 64.71719564 14.57218621 64.74048137 7.57948303 60.14044189 C6.82538147 59.64544189 6.07127991 59.15044189 5.29432678 58.64044189 C-5.07667819 49.88776956 -10.72673801 36.43257393 -12.42051697 23.14044189 C-12.57788026 20.097376 -12.60553189 17.06215066 -12.60801697 14.01544189 C-12.62026306 13.21751221 -12.63250916 12.41958252 -12.64512634 11.59747314 C-12.66370453 4.17858365 -12.66370453 4.17858365 -10.42051697 1.14044189 C-7.16447975 -0.48757671 -3.57808735 -0.00372382 0 0 Z M4.57948303 16.14044189 C5.74234436 27.76905522 8.17657304 38.3710883 17.57948303 46.14044189 C21.49224081 48.04652978 24.65630521 48.39322377 28.98681641 48.40113831 C30.28079849 48.40822311 31.57478058 48.41530792 32.90797424 48.42260742 C34.33485448 48.42031379 35.76173438 48.41780411 37.18861389 48.4151001 C38.69684094 48.41944905 40.20506579 48.42463282 41.71328735 48.43058777 C45.80419769 48.44396899 49.8950156 48.44455744 53.98594356 48.44202447 C57.40296279 48.44095421 60.81996336 48.44583952 64.23697859 48.45062989 C72.29899624 48.46172195 80.3609673 48.46216412 88.42298889 48.45611572 C96.73626474 48.45007468 105.0493714 48.4623909 113.36261839 48.48368579 C120.50416611 48.50130574 127.64565999 48.50730255 134.78722864 48.50404805 C139.05078486 48.50223574 143.31422037 48.50486613 147.57775688 48.51876259 C151.587421 48.53134282 155.59682146 48.5293951 159.60648155 48.5163517 C161.07623128 48.51398682 162.54599957 48.51671747 164.015728 48.52497482 C166.02551631 48.53545036 168.0353798 48.52553449 170.04516602 48.5146637 C171.16879012 48.51483144 172.29241423 48.51499918 173.45008755 48.515172 C179.46569565 47.79483177 183.44562613 44.94260813 187.12635803 40.35137939 C192.3012594 32.47773913 193.63644718 25.57080038 194.57948303 16.14044189 C131.87948303 16.14044189 69.17948303 16.14044189 4.57948303 16.14044189 Z " fill="#F7921C" transform="translate(156.42051696777344,351.85955810546875)"/>
<path d="M0 0 C2.10416261 -0.00707061 4.20832014 -0.0158204 6.31246948 -0.02610779 C11.99030399 -0.04848404 17.66785818 -0.0456895 23.34571981 -0.03678632 C28.10185138 -0.03165196 32.85793141 -0.03898883 37.61405766 -0.04625839 C48.84236092 -0.06322031 60.07052816 -0.05972924 71.29882812 -0.04296875 C82.84713862 -0.02605247 94.39507097 -0.04188391 105.94334018 -0.07419163 C115.89201381 -0.10096043 125.84057025 -0.10814383 135.78927624 -0.09967655 C141.71638265 -0.09476845 147.64326172 -0.09684778 153.5703392 -0.11746407 C159.1471151 -0.13593584 164.72335083 -0.12972272 170.30009842 -0.10526466 C172.33488451 -0.10029303 174.36971259 -0.10365043 176.40446472 -0.11641312 C205.63877813 -0.28513408 205.63877813 -0.28513408 214.83642578 8.53344727 C215.21142578 11.59594727 215.21142578 11.59594727 214.83642578 14.53344727 C212.43729926 16.93257379 211.92938132 16.78373959 208.66033936 16.78512955 C207.77977497 16.79034504 206.89921059 16.79556054 205.99196243 16.80093408 C205.01863338 16.79647263 204.04530434 16.79201119 203.04248047 16.78741455 C202.01312756 16.79053453 200.98377464 16.79365451 199.92322922 16.79686904 C196.45152927 16.80488787 192.98000223 16.79851028 189.50830078 16.79223633 C187.02852271 16.79494446 184.54874545 16.79850439 182.06896973 16.80285645 C176.01926049 16.81105251 169.96961989 16.809821 163.91991329 16.80403116 C159.00483225 16.79952126 154.08976513 16.79889885 149.17468262 16.8010788 C148.47614001 16.80138526 147.7775974 16.80169173 147.05788684 16.80200748 C145.63897736 16.80264691 144.22006789 16.80329533 142.80115843 16.80395266 C129.48431808 16.80966087 116.16750523 16.80309038 102.85066938 16.79235193 C91.41491816 16.78341597 79.97920753 16.78496788 68.54345703 16.79418945 C55.27548682 16.80488343 42.00754073 16.80911151 28.7395668 16.80296493 C27.32576752 16.8023278 25.91196823 16.80169906 24.49816895 16.8010788 C23.80248456 16.80077025 23.10680017 16.80046169 22.39003444 16.80014379 C17.4787264 16.79841423 12.56743361 16.80133757 7.65612793 16.8060379 C1.05046853 16.81222061 -5.55512581 16.80784244 -12.16078186 16.79624939 C-14.59167859 16.79359464 -17.02258175 16.79438168 -19.45347595 16.79877472 C-22.75894912 16.80419954 -26.06417191 16.79743343 -29.36962891 16.78741455 C-30.34295795 16.79187599 -31.316287 16.79633744 -32.31911087 16.80093408 C-33.19967525 16.79571858 -34.08023964 16.79050309 -34.98748779 16.78512955 C-35.75116039 16.78480484 -36.51483299 16.78448014 -37.30164719 16.78414559 C-39.16357422 16.53344727 -39.16357422 16.53344727 -41.16357422 14.53344727 C-41.66357422 11.65844727 -41.66357422 11.65844727 -41.16357422 8.53344727 C-29.17109763 -0.76393009 -14.37906715 -0.05117405 0 0 Z " fill="#F7921C" transform="translate(169.16357421875,431.466552734375)"/>
<path d="M0 0 C0.65043719 1.72744016 1.29514844 3.4570369 1.9375 5.1875 C2.47697266 6.63189453 2.47697266 6.63189453 3.02734375 8.10546875 C6.37475162 18.06703194 6.92672602 31.12219061 2.26171875 40.73046875 C1.63716797 41.85388672 1.63716797 41.85388672 1 43 C0.55269531 43.86238281 0.10539062 44.72476563 -0.35546875 45.61328125 C-5.58362249 55.07441738 -11.70512639 59.77250747 -22 63 C-26.24788407 64.04449888 -30.41318191 64.19289044 -34.765625 64.23828125 C-35.51728943 64.246353 -36.26895386 64.25442474 -37.043396 64.26274109 C-38.63698048 64.27654134 -40.23059402 64.28728156 -41.82421875 64.29516602 C-43.42001291 64.30656913 -45.01577259 64.32683053 -46.61132812 64.35668945 C-62.42669174 64.65182603 -76.81707311 62.47437184 -91 55 C-90.8328059 48.47942999 -87.10182068 44.67561034 -83 40 C-82.02353516 38.88044922 -82.02353516 38.88044922 -81.02734375 37.73828125 C-64.92523449 20.49247077 -40.45647365 12.20441185 -19 4 C-17.99557861 3.61166992 -16.99115723 3.22333984 -15.95629883 2.82324219 C-14.99103271 2.45875977 -14.0257666 2.09427734 -13.03125 1.71875 C-12.17466797 1.39326172 -11.31808594 1.06777344 -10.43554688 0.73242188 C-6.82439679 -0.35352943 -3.74223979 -0.28243319 0 0 Z M-63 45 C-62.67 45.66 -62.34 46.32 -62 47 C-40.90255437 49.27157272 -40.90255437 49.27157272 -21 44 C-16.04221115 39.60067472 -12.27067387 34.10221282 -11.82421875 27.3359375 C-11.81384959 24.88190325 -11.86689751 22.45007173 -12 20 C-26.97607653 20 -51.85675154 35.90347065 -63 45 Z " fill="#F7921C" transform="translate(475,320)"/>
<path d="M0 0 C7.97373458 -0.75655909 14.57078221 1.9574736 21.9375 4.75 C22.59218262 4.99442841 23.24686523 5.23885681 23.92138672 5.49069214 C79.17637388 26.1736019 79.17637388 26.1736019 91 50 C91 51.32 91 52.64 91 54 C76.54745098 61.42425463 62.71041301 64.70514624 46.5534668 64.52148438 C44.3021411 64.49990069 42.05396893 64.52150073 39.80273438 64.546875 C28.40536091 64.56890756 16.79957672 63.36117254 7.70703125 55.76171875 C-2.2326918 45.50356064 -5.40031474 34.26264431 -5.2265625 20.42578125 C-4.98248156 13.24084155 -3.40576196 6.35248644 0 0 Z M12 20 C11.25064921 27.82655267 12.57115298 33.45553577 17 40 C21.68419154 45.36233186 27.28532361 46.97875109 34.1953125 47.484375 C36.17126913 47.58553999 38.14793156 47.67358462 40.125 47.75 C41.65846069 47.81465454 41.65846069 47.81465454 43.22290039 47.88061523 C50.40044792 48.1140639 57.01537263 47.81750519 64 46 C60.44825143 42.17452645 56.82187364 39.36417476 52.25 36.8125 C51.5811377 36.43665771 50.91227539 36.06081543 50.22314453 35.67358398 C38.16878396 29.15673711 25.00550593 24.26306191 12 20 Z " fill="#F7921C" transform="translate(37,320)"/>
<path d="M0 0 C0.66 0 1.32 0 2 0 C3.42830852 3.80704999 4.85236055 7.61566157 6.27246094 11.42578125 C6.75631411 12.72211806 7.24133485 14.0180197 7.72753906 15.31347656 C8.42558589 17.17398505 9.11910947 19.03618865 9.8125 20.8984375 C10.44091797 22.57945557 10.44091797 22.57945557 11.08203125 24.29443359 C12 27 12 27 12 29 C12.58523437 29.13535156 13.17046875 29.27070312 13.7734375 29.41015625 C23.16763431 31.76575815 32.03056495 35.39841167 41 39 C41 39.66 41 40.32 41 41 C37.19295001 42.42830852 33.38433843 43.85236055 29.57421875 45.27246094 C28.27788194 45.75631411 26.9819803 46.24133485 25.68652344 46.72753906 C23.82601495 47.42558589 21.96381135 48.11910947 20.1015625 48.8125 C18.98088379 49.23144531 17.86020508 49.65039062 16.70556641 50.08203125 C14 51 14 51 12 51 C11.86464844 51.58523437 11.72929687 52.17046875 11.58984375 52.7734375 C9.23424185 62.16763431 5.60158833 71.03056495 2 80 C1.34 80 0.68 80 0 80 C-1.42830852 76.19295001 -2.85236055 72.38433843 -4.27246094 68.57421875 C-4.75631411 67.27788194 -5.24133485 65.9819803 -5.72753906 64.68652344 C-6.42558589 62.82601495 -7.11910947 60.96381135 -7.8125 59.1015625 C-8.23144531 57.98088379 -8.65039062 56.86020508 -9.08203125 55.70556641 C-10 53 -10 53 -10 51 C-11.8871875 50.4740625 -11.8871875 50.4740625 -13.8125 49.9375 C-22.35169085 47.39180779 -30.66152453 44.12917535 -39 41 C-39 40.34 -39 39.68 -39 39 C-35.19295001 37.57169148 -31.38433843 36.14763945 -27.57421875 34.72753906 C-26.27788194 34.24368589 -24.9819803 33.75866515 -23.68652344 33.27246094 C-21.82601495 32.57441411 -19.96381135 31.88089053 -18.1015625 31.1875 C-16.98088379 30.76855469 -15.86020508 30.34960938 -14.70556641 29.91796875 C-12 29 -12 29 -10 29 C-9.649375 27.741875 -9.29875 26.48375 -8.9375 25.1875 C-6.39180779 16.64830915 -3.12917535 8.33847547 0 0 Z " fill="#F7921C" transform="translate(135,48)"/>
<path d="M0 0 C4.21477541 1.58957244 8.18497213 3.57298027 12.1875 5.625 C17.38771173 8.27516041 22.62318824 10.73271357 27.99584961 13.01318359 C41.9047996 18.93793603 56.41480066 27.6831901 63 42 C63.8864374 44.97490249 64.52446399 47.93385736 65 51 C59.47191653 50.38805189 54.53858615 49.03227638 49.28515625 47.234375 C48.47058456 46.95909973 47.65601288 46.68382446 46.8167572 46.40020752 C45.10209097 45.81834404 43.38852705 45.23322312 41.67602539 44.64501953 C39.07764785 43.75518748 36.4737976 42.88297146 33.86914062 42.01171875 C32.19494894 41.44116988 30.52110866 40.86958859 28.84765625 40.296875 C27.69572533 39.91375153 27.69572533 39.91375153 26.52052307 39.52288818 C16.78050033 36.13358555 8.53925742 30.87473941 3.7109375 21.49609375 C0.86656686 14.46701954 0.2394613 7.53105786 0 0 Z " fill="#F7921C" transform="translate(31,398)"/>
<path d="M0 0 C-0.85325349 11.59247842 -2.25195217 23.03506763 -11.25 31.4375 C-20.36113691 37.96590166 -30.83539064 41.14551295 -41.39770508 44.50415039 C-43.95907456 45.31936661 -46.51581878 46.14800597 -49.07226562 46.97851562 C-50.70287265 47.50338879 -52.33372344 48.02750537 -53.96484375 48.55078125 C-54.72731918 48.79758133 -55.48979462 49.04438141 -56.27537537 49.29866028 C-59.29241507 50.25331867 -61.81510289 51 -65 51 C-64.06088073 39.73056878 -57.90874959 32.08577821 -49.50390625 24.8515625 C-40.28554967 17.92216013 -29.79720029 13.55252562 -19.3046875 8.89453125 C-14.08742614 6.56336328 -9.10750822 3.94544955 -4.14892578 1.1081543 C-2 0 -2 0 0 0 Z " fill="#F7921C" transform="translate(481,398)"/>
<path d="M0 0 C0.66 0 1.32 0 2 0 C2.44085938 1.64548828 2.44085938 1.64548828 2.890625 3.32421875 C5.2502269 11.77131319 5.2502269 11.77131319 10.89453125 18.10546875 C13.91347327 19.31527906 16.84799807 20.21093895 20 21 C21.67593498 21.64301179 23.34618563 22.30205999 25 23 C25 23.66 25 24.32 25 25 C23.35451172 25.44085938 23.35451172 25.44085938 21.67578125 25.890625 C13.22868681 28.2502269 13.22868681 28.2502269 6.89453125 33.89453125 C5.68472094 36.91347327 4.78906105 39.84799807 4 43 C3.35698821 44.67593498 2.69794001 46.34618563 2 48 C1.34 48 0.68 48 0 48 C-0.44085938 46.35451172 -0.44085938 46.35451172 -0.890625 44.67578125 C-3.2502269 36.22868681 -3.2502269 36.22868681 -8.89453125 29.89453125 C-11.91347327 28.68472094 -14.84799807 27.78906105 -18 27 C-19.67593498 26.35698821 -21.34618563 25.69794001 -23 25 C-23 24.34 -23 23.68 -23 23 C-21.35451172 22.55914062 -21.35451172 22.55914062 -19.67578125 22.109375 C-11.22868681 19.7497731 -11.22868681 19.7497731 -4.89453125 14.10546875 C-3.68472094 11.08652673 -2.78906105 8.15200193 -2 5 C-1.35698821 3.32406502 -0.69794001 1.65381437 0 0 Z " fill="#F7921C" transform="translate(39,128)"/>
<path d="M0 0 C0.66 0 1.32 0 2 0 C2.18433594 0.67546875 2.36867188 1.3509375 2.55859375 2.046875 C4.27222703 7.53989068 4.27222703 7.53989068 8.19921875 11.51953125 C10.44377071 12.48458016 12.66583062 13.28352716 15 14 C15.66 14.33 16.32 14.66 17 15 C17 15.66 17 16.32 17 17 C16.32453125 17.18433594 15.6490625 17.36867188 14.953125 17.55859375 C9.46010932 19.27222703 9.46010932 19.27222703 5.48046875 23.19921875 C4.51541984 25.44377071 3.71647284 27.66583062 3 30 C2.67 30.66 2.34 31.32 2 32 C1.34 32 0.68 32 0 32 C-0.18433594 31.32453125 -0.36867188 30.6490625 -0.55859375 29.953125 C-2.27222703 24.46010932 -2.27222703 24.46010932 -6.19921875 20.48046875 C-8.44377071 19.51541984 -10.66583062 18.71647284 -13 18 C-13.66 17.67 -14.32 17.34 -15 17 C-15 16.34 -15 15.68 -15 15 C-14.32453125 14.81566406 -13.6490625 14.63132812 -12.953125 14.44140625 C-7.46010932 12.72777297 -7.46010932 12.72777297 -3.48046875 8.80078125 C-2.51541984 6.55622929 -1.71647284 4.33416938 -1 2 C-0.67 1.34 -0.34 0.68 0 0 Z " fill="#F7921C" transform="translate(47,32)"/>
</svg>
