<?xml version="1.0" encoding="UTF-8"?>
<svg version="1.1" xmlns="http://www.w3.org/2000/svg" width="512" height="512">
<path d="M0 0 C1.07398041 -0.00852997 2.14796082 -0.01705994 3.25448608 -0.02584839 C4.43790588 -0.02494202 5.62132568 -0.02403564 6.84060669 -0.02310181 C8.0829306 -0.02981903 9.32525452 -0.03653625 10.60522461 -0.04345703 C14.01856353 -0.0592342 17.43165919 -0.06581408 20.84501791 -0.0670886 C23.69293822 -0.06898574 26.54083508 -0.07634123 29.38874638 -0.08343279 C36.1077379 -0.09972977 42.82667581 -0.10460061 49.54568481 -0.10317993 C56.47923944 -0.10197853 63.41248275 -0.12307667 70.34595859 -0.15466726 C76.29592095 -0.18081178 82.24578153 -0.19154798 88.1958009 -0.19026911 C91.75070002 -0.18975888 95.30532267 -0.19547517 98.86016464 -0.21662521 C102.82512338 -0.23957014 106.78965481 -0.23049778 110.75466919 -0.21841431 C111.93404053 -0.22965332 113.11341187 -0.24089233 114.32852173 -0.25247192 C115.94795181 -0.23988846 115.94795181 -0.23988846 117.60009766 -0.22705078 C119.00654447 -0.22868508 119.00654447 -0.22868508 120.44140434 -0.2303524 C123.69931553 0.42208482 124.87370642 1.70713487 126.92703247 4.26742554 C127.82860325 6.97213788 128.05590382 8.54009935 128.06747437 11.31690979 C128.07318451 12.13932663 128.07889465 12.96174347 128.08477783 13.80908203 C128.08645462 15.15780899 128.08645462 15.15780899 128.08816528 16.53378296 C128.09313019 17.48387741 128.09809509 18.43397186 128.10321045 19.41285706 C128.1178487 22.56621015 128.12464086 25.71951274 128.13015747 28.87289429 C128.13591254 31.07230124 128.14167023 33.27170818 128.14743042 35.47111511 C128.15794854 40.09389479 128.16378426 44.71665706 128.16726685 49.33944702 C128.17271884 55.22427318 128.19667231 61.10886412 128.2252388 66.99361706 C128.24400259 71.545086 128.24907829 76.0965002 128.25060272 80.64800453 C128.25360463 82.81463198 128.26154847 84.98125905 128.2747879 87.14784813 C128.41664216 112.17159898 124.97663211 132.83589344 107.41921997 151.84164429 C102.08751594 157.03128097 96.35658093 161.49403654 89.30203247 163.95492554 C87.42089002 164.66840622 87.42089002 164.66840622 85.92703247 166.26742554 C85.29741931 169.40499342 85.29741931 169.40499342 85.21609497 172.91195679 C85.15373657 174.09765259 85.09137817 175.28334839 85.02713013 176.50497437 C84.9940979 177.41658325 84.96106567 178.32819214 84.92703247 179.26742554 C85.77934448 179.24124146 86.63165649 179.21505737 87.50979614 179.18807983 C90.68730374 179.10261061 93.86422358 179.04005765 97.04251099 178.99276733 C98.41510349 178.96769937 99.78756349 178.93363471 101.15969849 178.89022827 C103.13753943 178.82925022 105.11637431 178.80381545 107.09500122 178.77914429 C108.28375854 178.75296021 109.47251587 178.72677612 110.69729614 178.69979858 C114.90588889 179.43945979 116.29594687 180.96681212 118.92703247 184.26742554 C120.04544067 186.45565796 120.04544067 186.45565796 120.72781372 188.62289429 C120.98240356 189.40986694 121.23699341 190.1968396 121.4992981 191.00765991 C121.74357544 191.81525757 121.98785278 192.62285522 122.23953247 193.45492554 C122.50314575 194.27412476 122.76675903 195.09332397 123.0383606 195.93734741 C124.92703247 201.89770151 124.92703247 201.89770151 124.92703247 204.26742554 C126.61445557 204.24385986 126.61445557 204.24385986 128.33596802 204.21981812 C132.51981412 204.16541338 136.70362909 204.13103717 140.88772583 204.10263062 C142.69669864 204.08756799 144.50563507 204.06711377 146.31448364 204.04110718 C148.91849762 204.00461234 151.52202767 203.98767397 154.12625122 203.97445679 C155.334347 203.951231 155.334347 203.951231 156.56684875 203.92753601 C161.21217664 203.92615176 164.1195897 204.31922212 167.92703247 207.26742554 C170.76813222 210.10852528 170.2696723 212.91641353 170.29812622 216.72445679 C170.30715469 217.46443405 170.31618317 218.20441132 170.32548523 218.96681213 C170.34000386 220.53450467 170.34887848 222.10225801 170.35256958 223.67001343 C170.36443831 226.0609568 170.41357625 228.44929512 170.46414185 230.83969116 C170.47360953 232.36376712 170.48084291 233.88785893 170.48562622 235.41195679 C170.50515854 236.12358475 170.52469086 236.83521271 170.54481506 237.56840515 C170.51122119 241.29315025 170.0728851 243.07860009 167.77590942 246.05233765 C164.86841926 248.31299908 162.09860853 249.95921134 158.78640747 251.56430054 C157.6339856 252.13019897 156.48156372 252.69609741 155.29421997 253.27914429 C154.08869186 253.85898956 152.88296024 254.43841191 151.67703247 255.01742554 C149.29516275 256.17550702 146.91588304 257.33879843 144.53640747 258.50180054 C143.48421021 259.0093689 142.43201294 259.51693726 141.34793091 260.03988647 C139.03669807 261.05413317 139.03669807 261.05413317 137.92703247 262.26742554 C138.12554652 264.12443747 138.40684205 265.97259806 138.71791077 267.81410217 C138.9184758 269.01844406 139.11904083 270.22278595 139.32568359 271.46362305 C139.55590356 272.81059384 139.78622311 274.15754761 140.01663208 275.50448608 C140.25343505 276.91351567 140.48972586 278.3226314 140.72554016 279.73182678 C141.23577337 282.77443568 141.74955121 285.81641771 142.26600456 288.85797691 C143.08268061 293.66840379 143.89094375 298.48022022 144.69792175 303.2922821 C146.26749041 312.64481052 147.84519339 321.9959572 149.42417145 331.34690094 C151.43084933 343.23138889 153.4354498 355.11621725 155.42957121 367.00281936 C156.23209497 371.78465765 157.03947761 376.56564235 157.85062587 381.34602487 C158.35516858 384.32526193 158.85567018 387.30516772 159.35510445 390.28526497 C159.58719473 391.66499925 159.82096673 393.04445189 160.05656433 394.42359161 C160.37862493 396.31023775 160.69405179 398.19801268 161.00917053 400.08583069 C161.27659514 401.6684446 161.27659514 401.6684446 161.54942226 403.28303051 C162.08876961 407.5456948 162.46150099 411.02970897 160.73953247 415.01742554 C158.51029516 417.78475462 157.33967885 418.27057357 153.92703247 419.26742554 C150.81750768 419.49956083 147.73040526 419.4563661 144.61453247 419.39242554 C143.77857544 419.3834021 142.94261841 419.37437866 142.08132935 419.36508179 C140.02977278 419.34163543 137.9783647 419.3057682 135.92703247 419.26742554 C135.95321655 419.91179565 135.97940063 420.55616577 136.00637817 421.22006226 C136.11154168 424.19392633 136.17572979 427.16739777 136.23953247 430.14242554 C136.281427 431.15562866 136.32332153 432.16883179 136.3664856 433.21273804 C136.49704745 441.35979761 134.79124237 448.05358385 129.17044067 454.18295288 C123.02925172 459.95820886 116.65828466 461.71879723 108.45657349 461.65219116 C107.23073547 461.66025032 107.23073547 461.66025032 105.98013306 461.66847229 C104.21670956 461.67820867 102.45323839 461.68120703 100.68979073 461.67811584 C97.89339181 461.67361511 95.09761815 461.68770161 92.30128479 461.70651245 C86.364044 461.74319453 80.42686986 461.75698726 74.48953247 461.76742554 C67.6091907 461.77952951 60.72915561 461.80117535 53.84895134 461.84742737 C51.10365941 461.86094064 48.35876091 461.85683734 45.6134491 461.85202026 C43.91792306 461.86136652 42.2224013 461.87153675 40.52688599 461.88265991 C39.77183273 461.87651169 39.01677948 461.87036346 38.23884583 461.86402893 C32.5827793 461.92881855 26.70046241 462.76158549 22.35930729 466.6838913 C18.66111068 470.95920786 17.55647904 474.50841845 17.64968872 480.14242554 C18.28232646 484.9896781 20.65108444 488.086069 24.16107178 491.33584595 C29.326023 494.68126062 35.72450026 493.83611771 41.64334106 493.81332397 C43.04323472 493.82206509 44.44311839 493.83255276 45.84298706 493.84465027 C49.63184694 493.87246548 53.42038008 493.87591596 57.20932722 493.87493038 C61.17321525 493.87806337 65.13695696 493.90368957 69.10076904 493.9269104 C76.60166918 493.96744451 84.10248244 493.98780499 91.60347521 494.00088429 C100.14524674 494.01676314 108.68687059 494.05518247 117.22855639 494.09547758 C134.79467475 494.17784108 152.36076061 494.23115581 169.92703247 494.26742554 C169.92703247 500.20742554 169.92703247 506.14742554 169.92703247 512.26742554 C151.17685566 512.36012774 132.42674384 512.43145832 113.67638493 512.47467422 C104.96973417 512.49527588 96.26322866 512.52335047 87.55667114 512.56918335 C79.96564888 512.60912471 72.37473185 512.63487577 64.78360742 512.64377952 C60.76627632 512.64898196 56.74924618 512.66115912 52.7320118 512.69034576 C48.94563348 512.71763054 45.1596782 512.72584443 41.37321091 512.71985626 C39.98855599 512.7209507 38.60388596 512.72882684 37.21931648 512.74424744 C29.20646788 512.82906271 22.92342665 512.35770837 15.92703247 508.26742554 C15.12910278 507.80980835 14.3311731 507.35219116 13.50906372 506.88070679 C8.35639056 503.09298016 5.01376025 498.85430666 1.92703247 493.26742554 C1.41463013 492.34510132 1.41463013 492.34510132 0.89187622 491.40414429 C-2.56184848 483.90233296 -2.22183257 474.20206918 0.05203247 466.39242554 C4.02595791 456.38333295 11.83620673 449.31131677 21.52078247 445.02914429 C27.27677093 443.20703755 33.19852963 443.12127491 39.18557739 443.12557983 C39.97996719 443.12210541 40.77435699 443.11863098 41.59281921 443.11505127 C43.30552164 443.10773928 45.01823326 443.10236983 46.73094749 443.0987606 C49.4420821 443.09155234 52.15304019 443.0758572 54.86412048 443.05741882 C62.56792924 443.00512716 70.27163364 442.9569183 77.97561646 442.9414978 C82.69767941 442.93142894 87.41928586 442.90214575 92.14116859 442.86017799 C93.93807846 442.84786089 95.7350527 442.84274804 97.5320034 442.84497643 C100.04072493 442.84732399 102.54812767 442.82521069 105.05667114 442.79745483 C105.79805328 442.80405624 106.53943542 442.81065765 107.30328369 442.81745911 C110.76608591 442.75446437 112.60621146 442.51488155 115.3848114 440.37168884 C117.15739854 437.95310558 117.45612471 436.69101265 117.53640747 433.72055054 C117.56863403 432.8762146 117.6008606 432.03187866 117.63406372 431.16195679 C117.64824341 430.28926147 117.6624231 429.41656616 117.67703247 428.51742554 C117.70668091 427.62926147 117.73632935 426.74109741 117.76687622 425.82601929 C117.83740165 423.63973104 117.89017884 421.45449785 117.92703247 419.26742554 C116.75785278 419.29062866 115.5886731 419.31383179 114.38406372 419.33773804 C112.83589305 419.35650374 111.28771544 419.37470308 109.73953247 419.39242554 C108.97060669 419.40918335 108.20168091 419.42594116 107.40945435 419.44320679 C103.17384476 419.47956395 99.68884467 419.45436572 95.92703247 417.26742554 C93.04640385 414.09639803 92.22704108 411.22379133 91.35671997 407.06820679 C90.97193481 405.25352905 90.97193481 405.25352905 90.57937622 403.40219116 C90.19459106 401.51016968 90.19459106 401.51016968 89.80203247 399.57992554 C89.53777466 398.33791382 89.27351685 397.0959021 89.00125122 395.81625366 C87.63082215 389.25280278 86.67189298 382.97117012 85.92703247 376.26742554 C77.01703247 376.26742554 68.10703247 376.26742554 58.92703247 376.26742554 C58.92703247 370.32742554 58.92703247 364.38742554 58.92703247 358.26742554 C66.51703247 358.26742554 74.10703247 358.26742554 81.92703247 358.26742554 C80.72046997 352.72961304 80.72046997 352.72961304 79.48953247 347.07992554 C76.7775705 334.49923961 74.20220568 321.89177908 71.66845703 309.27410889 C71.2572557 307.22673384 70.84508402 305.17955344 70.4319458 303.13256836 C69.84646771 300.22891551 69.26501583 297.32448663 68.68484497 294.41976929 C68.41807701 293.09962326 68.41807701 293.09962326 68.1459198 291.75280762 C67.9849028 290.9415744 67.8238858 290.13034119 67.6579895 289.29452515 C67.5162027 288.58622055 67.37441589 287.87791595 67.22833252 287.14814758 C66.92703247 285.26742554 66.92703247 285.26742554 66.92703247 282.26742554 C57.68703247 282.26742554 48.44703247 282.26742554 38.92703247 282.26742554 C37.93703247 285.56742554 36.94703247 288.86742554 35.92703247 292.26742554 C30.90099082 299.94031752 24.71402777 305.04009731 15.75906372 306.93930054 C12.8257776 307.44824115 9.87684355 307.86517857 6.92703247 308.26742554 C6.92703247 302.32742554 6.92703247 296.38742554 6.92703247 290.26742554 C9.14057414 289.42107137 11.3541158 288.5747172 13.56765747 287.72836304 C18.82667912 284.47194897 20.60856829 278.8851456 22.25125122 273.18930054 C22.44298416 272.53665222 22.6347171 271.88400391 22.83226013 271.21157837 C23.43605381 269.14953657 24.02576033 267.08380089 24.61453247 265.01742554 C25.21694452 262.9377212 25.82222299 260.8588783 26.42893982 258.78042603 C26.97452657 256.90611073 27.51285762 255.02968793 28.05081177 253.15316772 C28.92703247 250.26742554 28.92703247 250.26742554 29.92703247 248.26742554 C14.41703247 248.26742554 -1.09296753 248.26742554 -17.07296753 248.26742554 C-17.07296753 250.90742554 -17.07296753 253.54742554 -17.07296753 256.26742554 C-23.01296753 256.26742554 -28.95296753 256.26742554 -35.07296753 256.26742554 C-34.95437378 254.60453491 -34.83578003 252.94164429 -34.71359253 251.22836304 C-34.86280886 248.14314755 -34.86280886 248.14314755 -36.07296753 245.26742554 C-40.21347388 241.89499081 -44.94449828 239.95150413 -49.82296753 237.89242554 C-51.76756939 237.03078908 -53.70581078 236.15703337 -55.64016724 235.27264404 C-57.40032431 234.47435515 -59.17531502 233.70901307 -60.95089722 232.94564819 C-64.41322166 231.08452697 -66.61701174 229.3380739 -69.07296753 226.26742554 C-69.71994019 223.48422241 -69.71994019 223.48422241 -69.73703003 220.48617554 C-69.74347534 219.39691772 -69.74992065 218.30765991 -69.75656128 217.18539429 C-69.73722534 216.0574646 -69.7178894 214.92953491 -69.69796753 213.76742554 C-69.71730347 212.63949585 -69.7366394 211.51156616 -69.75656128 210.34945679 C-69.74689331 208.71557007 -69.74689331 208.71557007 -69.73703003 207.04867554 C-69.73139038 206.05932007 -69.72575073 205.0699646 -69.71994019 204.05062866 C-68.81936687 200.17646422 -67.13363196 198.75704716 -64.07296753 196.26742554 C-60.95089722 194.60507202 -60.95089722 194.60507202 -57.49484253 193.13851929 C-56.23864365 192.57365973 -54.98346232 192.00653274 -53.72921753 191.43734741 C-51.77339222 190.56150562 -49.81559685 189.70186258 -47.8366394 188.87948608 C-43.57141708 187.09048581 -39.63556655 185.28106646 -36.07296753 182.26742554 C-34.56231154 177.87545959 -34.76546904 175.00357074 -35.07296753 170.26742554 C-29.13296753 170.26742554 -23.19296753 170.26742554 -17.07296753 170.26742554 C-17.07296753 173.23742554 -17.07296753 176.20742554 -17.07296753 179.26742554 C-0.57296753 179.26742554 15.92703247 179.26742554 32.92703247 179.26742554 C33.45150965 167.19097461 33.45150965 167.19097461 29.40750122 163.85336304 C28.32082153 163.45375366 27.23414185 163.05414429 26.11453247 162.64242554 C10.39018723 155.65190982 0.56920075 141.83311472 -6.07296753 126.26742554 C-9.63609325 116.13262047 -10.22043948 105.87864985 -10.23410034 95.21542358 C-10.2415477 93.79150551 -10.2415477 93.79150551 -10.24914551 92.33882141 C-10.26361258 89.23558807 -10.27053895 86.13240563 -10.27609253 83.02914429 C-10.2803336 81.43047484 -10.2803336 81.43047484 -10.28466034 79.79950905 C-10.29958114 74.17219423 -10.30885858 68.54490464 -10.3132019 62.91757202 C-10.31871181 57.10921346 -10.34281282 51.30108633 -10.37117386 45.49280071 C-10.38977963 41.01728122 -10.39500449 36.54181811 -10.39653778 32.0662632 C-10.39956366 29.92403698 -10.40758998 27.78181174 -10.42072296 25.63962364 C-10.43775865 22.65038527 -10.43591052 19.66172191 -10.42941284 16.67245483 C-10.44323502 15.34842651 -10.44323502 15.34842651 -10.45733643 13.99765015 C-10.40573859 6.42811771 -8.51925881 0.03047774 0 0 Z M7.92703247 18.26742554 C7.92703247 23.54742554 7.92703247 28.82742554 7.92703247 34.26742554 C41.58703247 34.26742554 75.24703247 34.26742554 109.92703247 34.26742554 C109.92703247 28.98742554 109.92703247 23.70742554 109.92703247 18.26742554 C76.26703247 18.26742554 42.60703247 18.26742554 7.92703247 18.26742554 Z M7.92703247 52.26742554 C7.88578247 60.59992554 7.84453247 68.93242554 7.80203247 77.51742554 C7.78382446 80.12294312 7.76561646 82.72846069 7.74685669 85.41293335 C7.74100665 87.51547033 7.73591231 89.6180096 7.73171997 91.72055054 C7.72148804 92.78193237 7.7112561 93.84331421 7.70071411 94.93685913 C7.69672394 112.34197193 11.71985949 126.77513599 24.02468872 139.42367554 C29.17759903 144.29485707 34.48734043 147.38814015 40.92703247 150.26742554 C48.7806385 153.97463759 48.7806385 153.97463759 49.92703247 156.26742554 C50.07969859 158.00611297 50.17635843 159.74990055 50.24343872 161.49398804 C50.28533325 162.52523804 50.32722778 163.55648804 50.37039185 164.61898804 C50.40970825 165.69922241 50.44902466 166.77945679 50.48953247 167.89242554 C50.53271606 168.98039429 50.57589966 170.06836304 50.62039185 171.18930054 C50.72667674 173.88185124 50.82737751 176.5746213 50.92703247 179.26742554 C56.20703247 179.26742554 61.48703247 179.26742554 66.92703247 179.26742554 C66.97601685 177.72570679 67.02500122 176.18398804 67.07546997 174.59555054 C67.15050921 172.56949098 67.22605655 170.54345019 67.30203247 168.51742554 C67.33296997 167.50164429 67.36390747 166.48586304 67.39578247 165.43930054 C67.43445435 164.45961304 67.47312622 163.47992554 67.51296997 162.47055054 C67.54439087 161.56981812 67.57581177 160.66908569 67.60818481 159.74105835 C67.94450087 157.13190498 68.50653041 155.47316836 69.92703247 153.26742554 C72.39578247 152.02914429 72.39578247 152.02914429 75.42703247 150.95492554 C81.66656398 148.50687968 86.71137873 145.45762871 91.92703247 141.26742554 C92.62570435 140.71828491 93.32437622 140.16914429 94.04421997 139.60336304 C98.64076238 135.543382 101.51092632 130.90300041 104.30203247 125.51742554 C104.63606079 124.88651001 104.97008911 124.25559448 105.3142395 123.6055603 C110.04960578 113.88502072 110.22262415 103.11560207 110.12234497 92.50180054 C110.12033081 91.47200073 110.11831665 90.44220093 110.11624146 89.38119507 C110.10590403 85.59322553 110.07798325 81.80532029 110.05203247 78.01742554 C110.01078247 69.51992554 109.96953247 61.02242554 109.92703247 52.26742554 C76.26703247 52.26742554 42.60703247 52.26742554 7.92703247 52.26742554 Z M-17.07296753 197.26742554 C-17.07296753 208.15742554 -17.07296753 219.04742554 -17.07296753 230.26742554 C-14.42813354 230.28200806 -11.78329956 230.29659058 -9.05831909 230.31161499 C-0.32505805 230.36192578 8.40802403 230.4285146 17.14110947 230.50314045 C22.43659701 230.54789017 27.73200679 230.58713618 33.02761841 230.61386108 C38.13707555 230.63984809 43.24623421 230.68021789 48.3555069 230.7306118 C50.30592388 230.74731168 52.25639252 230.75880648 54.20687103 230.76503944 C56.93650186 230.7746466 59.66536364 230.80266505 62.39480591 230.83505249 C63.20328979 230.8336174 64.01177368 230.83218231 64.84475708 230.83070374 C69.24335605 230.90463725 71.75304331 231.17525619 74.92703247 234.26742554 C75.82944775 236.66851807 75.82944775 236.66851807 76.40315247 239.55599976 C76.62756169 240.64325348 76.85197092 241.7305072 77.08318043 242.85070801 C77.31097533 244.03752167 77.53877024 245.22433533 77.77346802 246.44711304 C78.15996553 248.35394619 78.54646498 250.26077896 78.93305677 252.167593 C79.33784372 254.17997859 79.73464883 256.19378909 80.12911606 258.20822144 C80.89805773 262.1329597 81.69120809 266.05253282 82.48895264 269.9715271 C83.9954885 277.38918873 85.47753379 284.81156939 86.95455003 292.23515701 C87.69053256 295.93169096 88.42898814 299.62773087 89.16719055 303.32382202 C90.55559461 310.27706537 91.94218967 317.23066789 93.32793492 324.18444157 C95.82076414 336.69353417 98.31596436 349.20215362 100.8130762 361.710392 C101.68690385 366.08790314 102.5596525 370.46562759 103.43150961 374.84353161 C103.84097315 376.89892642 104.25086756 378.95423475 104.66094971 381.00950623 C105.15998086 383.51069026 105.65830924 386.01201464 106.1558075 388.51350403 C106.37569336 389.61444901 106.59557922 390.71539398 106.8221283 391.84970093 C107.01252088 392.80518326 107.20291346 393.76066559 107.39907551 394.74510193 C107.85655247 396.93070612 108.38545792 399.10112734 108.92703247 401.26742554 C119.81703247 401.26742554 130.70703247 401.26742554 141.92703247 401.26742554 C141.41045836 395.58511027 140.8650516 389.89554029 139.92703247 384.26742554 C135.63703247 384.26742554 131.34703247 384.26742554 126.92703247 384.26742554 C126.92703247 378.32742554 126.92703247 372.38742554 126.92703247 366.26742554 C129.89703247 366.26742554 132.86703247 366.26742554 135.92703247 366.26742554 C135.7853689 364.35044617 135.63853663 362.43384831 135.48953247 360.51742554 C135.40832153 359.45008179 135.3271106 358.38273804 135.24343872 357.28305054 C134.97789371 354.07426704 134.97789371 354.07426704 133.92703247 350.26742554 C128.64703247 350.26742554 123.36703247 350.26742554 117.92703247 350.26742554 C117.92703247 344.32742554 117.92703247 338.38742554 117.92703247 332.26742554 C122.21703247 332.26742554 126.50703247 332.26742554 130.92703247 332.26742554 C130.61880626 329.97518014 130.30532373 327.68364099 129.98953247 325.39242554 C129.81550903 324.11625366 129.6414856 322.84008179 129.46218872 321.52523804 C129.1127002 318.39183099 129.1127002 318.39183099 127.92703247 316.26742554 C121.98703247 316.26742554 116.04703247 316.26742554 109.92703247 316.26742554 C109.92703247 310.32742554 109.92703247 304.38742554 109.92703247 298.26742554 C114.87703247 298.26742554 119.82703247 298.26742554 124.92703247 298.26742554 C123.93703247 290.34742554 123.93703247 290.34742554 122.92703247 282.26742554 C115.66703247 282.26742554 108.40703247 282.26742554 100.92703247 282.26742554 C100.92703247 276.32742554 100.92703247 270.38742554 100.92703247 264.26742554 C106.86703247 264.26742554 112.80703247 264.26742554 118.92703247 264.26742554 C118.86515747 262.72055054 118.80328247 261.17367554 118.73953247 259.57992554 C118.56220678 255.14678335 119.26903431 252.84131877 121.92703247 249.26742554 C124.22198365 247.82527278 126.35105167 246.64506764 128.78250122 245.49789429 C129.44413773 245.17202835 130.10577423 244.84616241 130.78746033 244.51042175 C132.8902503 243.47852852 135.0019475 242.46658933 137.11453247 241.45492554 C138.54680693 240.75635379 139.97845557 240.05649738 141.40945435 239.35531616 C144.90824222 237.64439247 148.41514808 235.95129252 151.92703247 234.26742554 C151.92703247 230.30742554 151.92703247 226.34742554 151.92703247 222.26742554 C150.82713989 222.25807983 149.72724731 222.24873413 148.59402466 222.23910522 C144.50849081 222.19919617 140.42370929 222.13343549 136.33865356 222.05990601 C134.57149936 222.03170156 132.80421913 222.01048435 131.03689575 221.99642944 C128.49441025 221.97499196 125.95343909 221.92834051 123.41140747 221.87680054 C122.62272278 221.8755719 121.83403809 221.87434326 121.02145386 221.87307739 C115.6341703 221.72961384 115.01231109 221.35270415 110.92703247 217.26742554 C108.61703247 210.66742554 106.30703247 204.06742554 103.92703247 197.26742554 C63.99703247 197.26742554 24.06703247 197.26742554 -17.07296753 197.26742554 Z M-44.19796753 206.76742554 C-45.18603394 207.26822632 -45.18603394 207.26822632 -46.19406128 207.77914429 C-47.82217923 208.60500122 -49.44781237 209.43575345 -51.07296753 210.26742554 C-51.07296753 212.57742554 -51.07296753 214.88742554 -51.07296753 217.26742554 C-48.783677 218.43896847 -46.49178391 219.60480628 -44.19796753 220.76742554 C-43.54699097 221.10129272 -42.8960144 221.43515991 -42.22531128 221.77914429 C-38.82052043 223.63586271 -38.82052043 223.63586271 -35.07296753 224.26742554 C-35.07296753 217.33742554 -35.07296753 210.40742554 -35.07296753 203.26742554 C-38.4432824 203.26742554 -41.25129029 205.25615939 -44.19796753 206.76742554 Z M48.92703247 248.26742554 C48.24640747 249.99992554 48.24640747 249.99992554 47.55203247 251.76742554 C47.16918091 252.74195679 47.16918091 252.74195679 46.77859497 253.73617554 C45.61895855 257.1831682 44.80909273 260.73918451 43.92703247 264.26742554 C50.19703247 264.26742554 56.46703247 264.26742554 62.92703247 264.26742554 C62.26372162 258.29762788 61.69146709 253.79598733 59.92703247 248.26742554 C56.29703247 248.26742554 52.66703247 248.26742554 48.92703247 248.26742554 Z " fill="#F7921C" transform="translate(342.0729675292969,-0.267425537109375)"/>
<path d="M0 0 C1.7947031 0.00056505 3.58940666 0.00024572 5.3841095 -0.00088501 C10.22632001 -0.00145586 15.06843025 0.01025482 19.91061759 0.02426291 C24.98213926 0.03681518 30.05366355 0.0379443 35.12519836 0.04031372 C44.715498 0.04651532 54.30575173 0.06290819 63.8960312 0.0830127 C74.81989305 0.1054129 85.74375716 0.11637548 96.66763628 0.12640357 C119.1265136 0.14727564 141.58534701 0.18283148 164.04418945 0.22705078 C164.04418945 6.16705078 164.04418945 12.10705078 164.04418945 18.22705078 C161.80690063 18.23513763 159.56961182 18.24322449 157.26452637 18.2515564 C136.19344354 18.32865518 115.12242606 18.41661468 94.05142975 18.51457787 C83.21830149 18.56468205 72.38518071 18.61112527 61.55200195 18.64892578 C52.10890342 18.68188516 42.66586333 18.72173825 33.22282934 18.76984084 C28.22365419 18.79506653 23.22451762 18.81685945 18.22529602 18.83039474 C13.51723234 18.84325072 8.80930122 18.86534326 4.10131073 18.89443398 C2.37602423 18.90348212 0.65071639 18.90919352 -1.07459259 18.91126442 C-3.43663709 18.91460655 -5.79831015 18.93013613 -8.16027832 18.94857788 C-8.83734628 18.94664315 -9.51441424 18.94470841 -10.21199942 18.94271505 C-16.80595605 19.01928077 -23.52965832 19.87639445 -28.54751968 24.5300808 C-31.62272644 28.23566016 -33.58693582 32.58741898 -35.68579102 36.89233398 C-36.22311356 37.96595688 -36.7604361 39.03957977 -37.31404114 40.14573669 C-38.77632028 43.07432053 -40.22602966 46.00871374 -41.67027426 48.94622064 C-43.18563425 52.02086059 -44.7169809 55.08751773 -46.24661255 58.15507507 C-49.13700894 63.95757738 -52.0130628 69.76706499 -54.88396752 75.57923144 C-58.47584038 82.84906349 -62.08688569 90.10933985 -65.69799805 97.36962891 C-72.13567155 110.3130462 -78.54431416 123.27057345 -84.95581055 136.22705078 C-45.02581055 136.55705078 -5.09581055 136.88705078 36.04418945 137.22705078 C36.04418945 143.16705078 36.04418945 149.10705078 36.04418945 155.22705078 C34.18496353 155.23069641 32.32573761 155.23434204 30.41017151 155.23809814 C12.88593964 155.27504451 -4.63811809 155.3325772 -22.16221523 155.41095352 C-31.17146023 155.4507208 -40.18061817 155.48312502 -49.18994141 155.49804688 C-57.04475112 155.51107539 -64.8993691 155.53807061 -72.75407082 155.58166385 C-76.91105423 155.60425178 -81.06780139 155.61996307 -85.22485161 155.61893463 C-89.14266163 155.61818643 -93.05994993 155.63620077 -96.97762489 155.66821861 C-98.41060886 155.67669344 -99.84365151 155.67848402 -101.27664948 155.67285347 C-110.95815861 155.63989823 -117.44032436 156.96789985 -125.70581055 161.85205078 C-151.53691025 189.11821158 -133.58023789 236.66978542 -133.95581055 274.22705078 C-32.64581055 274.22705078 68.66418945 274.22705078 173.04418945 274.22705078 C173.04418945 280.16705078 173.04418945 286.10705078 173.04418945 292.22705078 C72.39418945 292.22705078 -28.25581055 292.22705078 -131.95581055 292.22705078 C-130.63581055 294.20705078 -129.31581055 296.18705078 -127.95581055 298.22705078 C-127.62581055 299.21705078 -127.29581055 300.20705078 -126.95581055 301.22705078 C-125.2581182 302.32874062 -125.2581182 302.32874062 -122.95581055 303.22705078 C-121.28518555 304.00048828 -121.28518555 304.00048828 -119.58081055 304.78955078 C-112.62966339 307.54604017 -105.86464526 307.37861331 -98.49050903 307.38526917 C-97.32973717 307.39020714 -96.1689653 307.39514512 -94.97301853 307.40023273 C-91.75992731 307.41291803 -88.54685942 307.4212195 -85.33375072 307.42765939 C-81.86550861 307.43568257 -78.39728828 307.44937372 -74.92906189 307.46237183 C-68.9230429 307.48410741 -62.91702168 307.50226254 -56.91098404 307.51797676 C-48.2272927 307.540702 -39.54362552 307.56884113 -30.8599547 307.59829604 C-16.77082358 307.64593943 -2.68168256 307.68921242 11.4074707 307.72973633 C25.09269989 307.76910781 38.77792028 307.810538 52.46313477 307.85473633 C53.30687817 307.8574606 54.15062158 307.86018487 55.01993297 307.8629917 C59.25280144 307.87667145 63.48566977 307.89039167 67.71853805 307.90413201 C102.82707034 308.01804569 137.93562136 308.1247935 173.04418945 308.22705078 C173.04418945 314.16705078 173.04418945 320.10705078 173.04418945 326.22705078 C105.39418945 326.22705078 37.74418945 326.22705078 -31.95581055 326.22705078 C-31.95581055 344.37705078 -31.95581055 362.52705078 -31.95581055 381.22705078 C-35.50099834 390.6808849 -38.42847226 396.80512796 -47.69839478 401.20800781 C-54.77887228 403.42304922 -62.2741884 402.89488296 -69.6237793 402.82080078 C-71.43117696 402.81908684 -73.23857711 402.81915824 -75.04597473 402.82092285 C-78.81751574 402.81927662 -82.58845732 402.80070281 -86.35986328 402.76904297 C-91.18165642 402.72928191 -96.00266936 402.7250121 -100.82459545 402.7325058 C-104.55051253 402.73558154 -108.27625584 402.72343489 -112.00213051 402.70637512 C-113.77983828 402.69937175 -115.55756573 402.69621734 -117.33528709 402.69706726 C-119.8213777 402.69525997 -122.30654976 402.6738024 -124.79248047 402.64697266 C-125.51836365 402.64990326 -126.24424683 402.65283386 -126.99212646 402.65585327 C-135.93757795 402.50766421 -141.85459507 398.46599121 -147.95581055 392.22705078 C-152.00113163 386.61579895 -152.10452677 381.52476291 -152.10298157 374.77171326 C-152.10665826 373.91034368 -152.11033494 373.04897411 -152.11412305 372.16150242 C-152.12515218 369.26985301 -152.12900245 366.37823955 -152.1328125 363.48657227 C-152.13907781 361.4151854 -152.14572467 359.34379967 -152.15272522 357.27241516 C-152.17376276 350.46433291 -152.18412842 343.65625044 -152.1940918 336.84814453 C-152.19813969 334.5031896 -152.20225662 332.15823479 -152.20644188 329.81328011 C-152.22549413 318.79443657 -152.2397242 307.77559973 -152.24805385 296.75674289 C-152.25782197 284.0453304 -152.2841304 271.33409224 -152.32455474 258.62274116 C-152.35473921 248.79326908 -152.36952501 238.9638469 -152.37283486 229.13432938 C-152.37518298 223.26592624 -152.38411254 217.39770934 -152.40929604 211.529356 C-152.4326219 206.00453602 -152.4367917 200.48002429 -152.42653465 194.95516777 C-152.42604026 192.93278985 -152.43233213 190.91039652 -152.4460907 188.88806534 C-152.52906576 175.96350188 -152.21070869 164.90986015 -143.95581055 154.22705078 C-143.56006836 153.67662109 -143.16432617 153.12619141 -142.7565918 152.55908203 C-135.83438487 143.57409711 -126.02417486 138.84681141 -114.95581055 137.22705078 C-111.90152393 137.03669864 -109.01916798 137.07388291 -105.95581055 137.22705078 C-105.73546646 136.46366394 -105.51512238 135.7002771 -105.2881012 134.91375732 C-103.44976926 129.82673642 -101.04612463 125.07897336 -98.63916016 120.23974609 C-98.09737122 119.14302582 -97.55558228 118.04630554 -96.99737549 116.91635132 C-95.20568298 113.29359991 -93.40762693 109.67406568 -91.6081543 106.05517578 C-90.98609377 104.80295088 -90.36408541 103.55070007 -89.74212837 102.29842377 C-86.81760698 96.41132008 -83.88925234 90.52614291 -80.9561767 84.64329648 C-77.58508411 77.88159875 -74.22732079 71.11349954 -70.88082689 64.33959508 C-68.28395906 59.08527172 -65.67463549 53.83725111 -63.05614477 48.59367061 C-61.49700058 45.47071048 -59.94311408 42.34540329 -58.40241814 39.21329498 C-56.67891429 35.71047772 -54.92962542 32.22089115 -53.17822266 28.73193359 C-52.43198387 27.20102585 -52.43198387 27.20102585 -51.67066956 25.63919067 C-46.6086401 15.65886777 -39.73364227 6.30526179 -28.95581055 2.22705078 C-19.50482276 -0.42503188 -9.719155 -0.04309193 0 0 Z M-133.95581055 318.22705078 C-134.04852262 326.24170424 -134.11958093 334.25613337 -134.16305923 342.27119064 C-134.18392759 345.99299826 -134.21223036 349.7144388 -134.25756836 353.43603516 C-134.30105467 357.02814589 -134.32495332 360.61990373 -134.33531952 364.21225739 C-134.34270605 365.58222255 -134.35713056 366.95216856 -134.37873077 368.32198334 C-134.40779535 370.24164467 -134.4094447 372.16166168 -134.40991211 374.08154297 C-134.41879456 375.17408386 -134.427677 376.26662476 -134.43682861 377.39227295 C-134.13694219 380.81771576 -134.13694219 380.81771576 -129.95581055 384.22705078 C-125.99581055 384.22705078 -122.03581055 384.22705078 -117.95581055 384.22705078 C-117.95581055 364.75705078 -117.95581055 345.28705078 -117.95581055 325.22705078 C-121.91581055 323.57705078 -125.87581055 321.92705078 -129.95581055 320.22705078 C-131.27581055 319.56705078 -132.59581055 318.90705078 -133.95581055 318.22705078 Z M-99.95581055 326.22705078 C-99.95581055 345.36705078 -99.95581055 364.50705078 -99.95581055 384.22705078 C-94.67581055 384.22705078 -89.39581055 384.22705078 -83.95581055 384.22705078 C-83.95581055 365.08705078 -83.95581055 345.94705078 -83.95581055 326.22705078 C-89.23581055 326.22705078 -94.51581055 326.22705078 -99.95581055 326.22705078 Z M-65.95581055 326.22705078 C-65.95581055 345.36705078 -65.95581055 364.50705078 -65.95581055 384.22705078 C-55.91000991 385.29265414 -55.91000991 385.29265414 -52.33081055 382.35205078 C-50.16989317 379.0124512 -49.83271332 377.18930109 -49.84228516 373.2265625 C-49.84236069 372.18563446 -49.84243622 371.14470642 -49.84251404 370.07223511 C-49.84767532 368.94512115 -49.85283661 367.8180072 -49.8581543 366.65673828 C-49.85956924 365.50537384 -49.86098419 364.3540094 -49.86244202 363.16775513 C-49.86805339 359.47916092 -49.88060785 355.79062674 -49.89331055 352.10205078 C-49.89832408 349.60595791 -49.90288724 347.10986408 -49.90698242 344.61376953 C-49.91802652 338.48484005 -49.93529882 332.3559556 -49.95581055 326.22705078 C-55.23581055 326.22705078 -60.51581055 326.22705078 -65.95581055 326.22705078 Z " fill="#F7921C" transform="translate(151.955810546875,109.77294921875)"/>
<path d="M0 0 C1.47943592 0.00113074 2.95887409 0.00049021 4.43830872 -0.00177002 C8.42120239 -0.00290928 12.40360602 0.0204708 16.38638663 0.04852581 C20.56101679 0.07367219 24.7356604 0.07589183 28.91035461 0.08062744 C36.80077316 0.09301858 44.69096783 0.12578738 52.58128816 0.1660254 C61.5704578 0.21086396 70.5596386 0.23276042 79.54889238 0.25280714 C98.02662147 0.29452385 116.50412918 0.3656137 134.98168945 0.45410156 C134.98168945 6.39410156 134.98168945 12.33410156 134.98168945 18.45410156 C132.23590324 18.46290092 132.23590324 18.46290092 129.43464661 18.47187805 C112.20350917 18.52903246 94.97249758 18.60157803 77.74149036 18.68981647 C68.88235984 18.73478737 60.02326963 18.77419904 51.1640625 18.80053711 C43.44262428 18.82350673 35.7213135 18.85689311 27.99997634 18.90280312 C23.91134509 18.92674939 19.82284018 18.94546894 15.7341404 18.95171547 C11.8853593 18.95776003 8.03690151 18.9777368 4.18824005 19.00837708 C2.77615033 19.01716744 1.36401837 19.02087781 -0.04809761 19.01910973 C-1.97755206 19.01745673 -3.90699236 19.03592451 -5.83634949 19.05537415 C-7.45547886 19.06228759 -7.45547886 19.06228759 -9.10731792 19.06934071 C-12.56211224 19.32965862 -12.56211224 19.32965862 -17.01831055 22.45410156 C-17.67831055 26.41410156 -18.33831055 30.37410156 -19.01831055 34.45410156 C31.80168945 34.45410156 82.62168945 34.45410156 134.98168945 34.45410156 C134.98168945 40.39410156 134.98168945 46.33410156 134.98168945 52.45410156 C84.16168945 52.45410156 33.34168945 52.45410156 -19.01831055 52.45410156 C-18.69321836 61.69761149 -18.69321836 61.69761149 -16.01831055 66.45410156 C-13.30356235 67.81147566 -11.16174033 67.59443433 -8.1211853 67.61231995 C-6.86472702 67.62210876 -5.60826874 67.63189758 -4.31373596 67.64198303 C-2.91366615 67.6478876 -1.51359594 67.65369803 -0.11352539 67.65942383 C1.35473407 67.66899976 2.82299075 67.67900967 4.29124451 67.68942261 C8.28478266 67.71650869 12.27833267 67.73749816 16.2719121 67.75742459 C20.44263921 67.77926134 24.61332959 67.80666132 28.7840271 67.83348083 C36.68524273 67.88343904 44.58647871 67.92836624 52.4877342 67.9715032 C61.48158772 68.02084888 70.4754044 68.07577689 79.46922231 68.13118279 C97.97334405 68.24505084 116.47750105 68.35168133 134.98168945 68.45410156 C134.98168945 74.39410156 134.98168945 80.33410156 134.98168945 86.45410156 C115.17116933 86.54676245 95.36071056 86.61811326 75.55001831 86.66135025 C66.35122289 86.68196102 57.15256473 86.71005318 47.95385742 86.75585938 C39.93471718 86.79577266 31.91567637 86.82154517 23.89643955 86.83045554 C19.65166983 86.8356627 15.40718452 86.84787028 11.1625061 86.87702179 C7.16355586 86.90426202 3.16500597 86.9125293 -0.83402824 86.90653229 C-2.29811723 86.90762869 -3.76222023 86.91553147 -5.22622871 86.93092346 C-13.27345529 87.01134697 -19.16269233 86.85804946 -26.01831055 82.45410156 C-26.90518555 81.89722656 -27.79206055 81.34035156 -28.70581055 80.76660156 C-34.03924255 75.43316956 -37.09260343 68.75847063 -37.1953125 61.22729492 C-37.20814774 60.40220932 -37.22098297 59.57712372 -37.23420715 58.72703552 C-37.24159409 57.84161575 -37.24898102 56.95619598 -37.2565918 56.04394531 C-37.26869942 54.65992271 -37.26869942 54.65992271 -37.28105164 53.24794006 C-37.29487209 51.29364894 -37.30560335 49.33933389 -37.31347656 47.38500977 C-37.3249604 45.40186406 -37.34535473 43.41874838 -37.375 41.43579102 C-37.7479634 16.4722466 -37.7479634 16.4722466 -29.95581055 7.51660156 C-21.27282764 0.09326601 -10.91447153 -0.11804442 0 0 Z " fill="#F7921C" transform="translate(190.018310546875,280.5458984375)"/>
<path d="M0 0 C1.71801315 -0.01925285 1.71801315 -0.01925285 3.47073364 -0.03889465 C5.31609207 -0.04997505 5.31609207 -0.04997505 7.19873047 -0.0612793 C8.47513397 -0.06935104 9.75153748 -0.07742279 11.06661987 -0.08573914 C13.76824553 -0.09956175 16.46974999 -0.11058262 19.17138672 -0.11816406 C22.60408628 -0.12918672 26.03613019 -0.16355295 29.46859932 -0.20333576 C32.77444755 -0.23604009 36.08023317 -0.24030092 39.38623047 -0.2487793 C40.60432404 -0.26628738 41.8224176 -0.28379547 43.0774231 -0.30183411 C52.26823779 -0.27873921 61.06359685 0.9448485 68.12841797 7.30200195 C74.35546184 14.30152555 75.80347982 22.59789927 75.72216797 31.6809082 C75.72790833 33.12589943 75.72790833 33.12589943 75.73376465 34.6000824 C75.73646718 36.62109432 75.72922332 38.64214221 75.71240234 40.66308594 C75.69094534 43.73558274 75.71227326 46.80574794 75.73779297 49.87817383 C75.73514986 51.85409038 75.73002522 53.8300055 75.72216797 55.8059082 C75.73026489 56.71240616 75.73836182 57.61890411 75.7467041 58.5528717 C75.63390936 66.3176457 73.2843566 71.97527228 69.06591797 78.42700195 C60.88630527 86.25097931 52.25701175 86.93354307 41.34716797 86.84106445 C39.92809638 86.84444222 38.50902763 86.84930277 37.08996582 86.8555603 C34.13130864 86.86288678 31.17341175 86.85236541 28.21484375 86.82885742 C24.448931 86.80037017 20.68480052 86.81679732 16.91895294 86.84671974 C13.99321401 86.86490904 11.06788795 86.85898225 8.14213562 86.84608078 C6.75485516 86.84277869 5.36753546 86.84671948 3.9803009 86.85847855 C-5.49029129 86.92116723 -13.50573605 86.06360792 -20.71398926 79.42178345 C-27.21977804 72.54588239 -28.2648267 65.61736463 -28.20751953 56.4934082 C-28.21038971 55.47907211 -28.21325989 54.46473602 -28.21621704 53.41966248 C-28.21825127 51.28237345 -28.21276644 49.14506553 -28.20019531 47.0078125 C-28.18414973 43.75323427 -28.20005777 40.49990096 -28.21923828 37.24536133 C-28.21725541 35.16137424 -28.21341083 33.07738791 -28.20751953 30.9934082 C-28.21359222 30.02859024 -28.21966492 29.06377228 -28.22592163 28.06971741 C-28.15311393 21.00353233 -26.90761127 15.70253108 -23.24658203 9.55200195 C-16.45789008 2.93737903 -9.36664903 0.09185385 0 0 Z M-7.80908203 20.17700195 C-10.42291171 24.09774648 -10.15122893 27.48961288 -10.18017578 32.04418945 C-10.18920425 32.91592804 -10.19823273 33.78766663 -10.20753479 34.68582153 C-10.22204065 36.53001469 -10.23092487 38.37425935 -10.23461914 40.21850586 C-10.24651018 43.03498428 -10.29568544 45.84926762 -10.34619141 48.6652832 C-10.35565649 50.45824127 -10.36289112 52.25121279 -10.36767578 54.04418945 C-10.39697426 55.30378983 -10.39697426 55.30378983 -10.42686462 56.58883667 C-10.39665025 60.52000914 -10.05664945 62.74415985 -8.07519531 66.20849609 C-2.91966319 69.3157659 2.09965767 68.87072266 8.00732422 68.8059082 C9.88024391 68.80952614 9.88024391 68.80952614 11.79100037 68.81321716 C14.42868567 68.81223822 17.06409795 68.80143599 19.70141602 68.77392578 C23.07669999 68.73980628 26.45046467 68.74587696 29.82582188 68.76458836 C33.0530776 68.77771226 36.28010134 68.75944162 39.50732422 68.7434082 C40.71779922 68.74836807 41.92827423 68.75332794 43.1754303 68.75843811 C44.30017258 68.74260178 45.42491486 68.72676544 46.58374023 68.71044922 C47.57237564 68.70425064 48.56101105 68.69805206 49.5796051 68.69166565 C52.90179519 68.03689515 54.07535049 66.76164803 56.19091797 64.17700195 C57.80746718 60.94390353 57.39659382 57.39904838 57.42919922 53.8449707 C57.44130684 52.60182854 57.44130684 52.60182854 57.45365906 51.33357239 C57.46750018 49.57754611 57.47822221 47.82149292 57.48608398 46.06542969 C57.50328448 43.38530186 57.54716722 40.70641168 57.59130859 38.02661133 C57.60143676 36.32024019 57.60995248 34.61385856 57.61669922 32.9074707 C57.64296135 31.70878609 57.64296135 31.70878609 57.66975403 30.48588562 C57.65452081 26.56009501 57.46164131 24.61613224 55.35180664 21.19384766 C52.04088189 18.10362629 49.30323864 18.04935277 44.95678711 18.03173828 C43.88880386 18.02535843 42.82082062 18.01897858 41.72047424 18.0124054 C39.99074623 18.01073616 39.99074623 18.01073616 38.22607422 18.0090332 C37.04121933 18.0057048 35.85636444 18.0023764 34.63560486 17.99894714 C32.12808623 17.99388116 29.62056085 17.99153872 27.11303711 17.99169922 C23.27234827 17.98951273 19.43194659 17.97135322 15.59130859 17.95239258 C13.15706479 17.94945863 10.72281961 17.94747384 8.28857422 17.9465332 C7.13744644 17.93934769 5.98631866 17.93216217 4.80030823 17.92475891 C3.19360512 17.92937386 3.19360512 17.92937386 1.55444336 17.93408203 C0.61307022 17.93265701 -0.32830292 17.93123199 -1.29820251 17.92976379 C-3.98679556 18.19450083 -5.55688584 18.70179857 -7.80908203 20.17700195 Z " fill="#F7921C" transform="translate(61.80908203125,280.822998046875)"/>
<path d="M0 0 C19.8 0 39.6 0 60 0 C60 5.94 60 11.88 60 18 C40.2 18 20.4 18 0 18 C0 12.06 0 6.12 0 0 Z " fill="#F7921C" transform="translate(196,204)"/>
<path d="M0 0 C5.90011292 1.70178953 11.1903549 4.46863485 16.6484375 7.2265625 C17.66096588 7.73424164 18.67349426 8.24192078 19.71670532 8.76498413 C22.93804008 10.38123185 26.15654232 12.00303193 29.375 13.625 C31.56361734 14.72432621 33.75241741 15.82328871 35.94140625 16.921875 C41.29639535 19.61037249 46.64907206 22.30342944 52 25 C51.24535822 29.22411519 49.91277186 32.48803747 47.9375 36.3125 C47.11572266 37.91544922 47.11572266 37.91544922 46.27734375 39.55078125 C45.85582031 40.35902344 45.43429688 41.16726562 45 42 C39.09988708 40.29821047 33.8096451 37.53136515 28.3515625 34.7734375 C27.33903412 34.26575836 26.32650574 33.75807922 25.28329468 33.23501587 C22.06195992 31.61876815 18.84345768 29.99696807 15.625 28.375 C13.43638266 27.27567379 11.24758259 26.17671129 9.05859375 25.078125 C3.70360465 22.38962751 -1.64907206 19.69657056 -7 17 C-6.32734138 12.40582538 -5.25488011 9.1680887 -2.9375 5.125 C-2.38964844 4.15820312 -1.84179688 3.19140625 -1.27734375 2.1953125 C-0.85582031 1.47085938 -0.43429688 0.74640625 0 0 Z " fill="#F7921C" transform="translate(208,154)"/>
<path d="M0 0 C1.19984797 2.26504965 2.38494769 4.53589888 3.5625 6.8125 C4.07586914 7.77639648 4.07586914 7.77639648 4.59960938 8.75976562 C5.4765023 10.46926395 6.24515617 12.23321294 7 14 C6 17 6 17 3.98155212 18.30986023 C3.09552811 18.74732071 2.20950409 19.18478119 1.29663086 19.63549805 C0.29566879 20.13579025 -0.70529327 20.63608246 -1.73658752 21.15153503 C-2.8251152 21.68289566 -3.91364288 22.21425629 -5.03515625 22.76171875 C-6.14354355 23.31237503 -7.25193085 23.86303131 -8.39390564 24.43037415 C-11.34137786 25.89246906 -14.29296085 27.34579728 -17.24676514 28.79504395 C-20.25990419 30.27603891 -23.26730463 31.7685339 -26.27539062 33.25976562 C-32.17844684 36.18368508 -38.08706188 39.09612102 -44 42 C-46.65299023 38.59225187 -48.41147675 35.19671834 -50.1875 31.25 C-50.71730469 30.07953125 -51.24710938 28.9090625 -51.79296875 27.703125 C-52.19128906 26.81109375 -52.58960938 25.9190625 -53 25 C-45.93836985 21.43123089 -38.87210129 17.87178039 -31.80249023 14.31884766 C-29.39643128 13.1091087 -26.99190602 11.8963964 -24.58862305 10.68115234 C-21.1387075 8.9380521 -17.68501335 7.20265425 -14.23046875 5.46875 C-12.61316109 4.64848328 -12.61316109 4.64848328 -10.96318054 3.81164551 C-9.96236954 3.31112671 -8.96155853 2.81060791 -7.93041992 2.29492188 C-7.04883713 1.85079956 -6.16725433 1.40667725 -5.25895691 0.94909668 C-3 0 -3 0 0 0 Z " fill="#F7921C" transform="translate(253,231)"/>
<path d="M0 0 C6.27 0 12.54 0 19 0 C19.66 2.64 20.32 5.28 21 8 C24.16251602 14.05003064 29.84892175 15.02286771 36 17 C36 22.94 36 28.88 36 35 C25.44881187 34.59418507 17.4001969 31.88735636 9.53125 24.66796875 C2.73734219 17.26746203 1.10160251 9.91442261 0 0 Z " fill="#F7921C" transform="translate(366,102)"/>
<path d="M0 0 C5.94 0 11.88 0 18 0 C18 5.94 18 11.88 18 18 C12.06 18 6.12 18 0 18 C0 12.06 0 6.12 0 0 Z " fill="#F7921C" transform="translate(162,204)"/>
<path d="M0 0 C5.94 0 11.88 0 18 0 C18 5.94 18 11.88 18 18 C12.06 18 6.12 18 0 18 C0 12.06 0 6.12 0 0 Z " fill="#F7921C" transform="translate(145,170)"/>
<path d="M0 0 C5.94 0 11.88 0 18 0 C18 5.94 18 11.88 18 18 C12.06 18 6.12 18 0 18 C0 12.06 0 6.12 0 0 Z " fill="#F7921C" transform="translate(170,145)"/>
<path d="M0 0 C5.94 0 11.88 0 18 0 C18 5.94 18 11.88 18 18 C12.06 18 6.12 18 0 18 C0 12.06 0 6.12 0 0 Z " fill="#F7921C" transform="translate(366,68)"/>
</svg>
