<?xml version="1.0" encoding="UTF-8"?>
<svg version="1.1" xmlns="http://www.w3.org/2000/svg" width="512" height="512">
<path d="M0 0 C1.28471191 0.00491455 2.56942383 0.0098291 3.89306641 0.01489258 C12.89693105 0.12625587 21.08070035 0.73457876 29.75 3.3125 C30.96945312 3.6528125 32.18890625 3.993125 33.4453125 4.34375 C61.67320519 12.92224716 84.56177336 32.67888628 98.6965332 58.37402344 C101.95749931 64.50695903 104.68038837 70.66995975 106.75 77.3125 C107.141875 78.55128906 107.53375 79.79007812 107.9375 81.06640625 C116.04454942 109.72412262 111.03977108 140.79464058 96.95703125 166.59765625 C95.32025125 169.26070106 93.5993641 171.79325513 91.75 174.3125 C91.16992188 175.11300781 90.58984375 175.91351563 89.9921875 176.73828125 C80.33727432 189.40278034 69.08439005 199.35453953 55.44921875 207.50390625 C54.56451904 208.03314697 53.67981934 208.5623877 52.76831055 209.10766602 C52.10226807 209.50526123 51.43622559 209.90285645 50.75 210.3125 C50.91604736 210.94526855 51.08209473 211.57803711 51.25317383 212.22998047 C54.71194206 225.49639014 57.98737221 238.70145584 59.75 252.3125 C59.8442627 253.00158447 59.93852539 253.69066895 60.03564453 254.40063477 C62.70205972 276.70264587 62.11152874 301.31127396 57.75 323.3125 C57.45996094 324.78420654 57.45996094 324.78420654 57.1640625 326.28564453 C50.03988699 361.10944996 36.04623939 394.45273774 13.75 422.3125 C13.11964844 423.13363281 12.48929687 423.95476562 11.83984375 424.80078125 C6.22990684 432.02343103 0.04423725 438.6886877 -6.25 445.3125 C-7.42949219 446.55580078 -7.42949219 446.55580078 -8.6328125 447.82421875 C-22.45638501 462.01939268 -39.04524641 473.59411571 -56.25 483.3125 C-56.89098633 483.68084961 -57.53197266 484.04919922 -58.19238281 484.42871094 C-88.14786903 501.53553393 -123.74651304 512.21721885 -158.3671875 512.55078125 C-159.21372391 512.5605751 -160.06026031 512.57036896 -160.93244934 512.58045959 C-180.37887648 512.75893239 -199.15544843 512.43714915 -218.25 508.3125 C-219.74152588 507.99104004 -219.74152588 507.99104004 -221.26318359 507.66308594 C-253.53934246 500.44155161 -283.99705592 486.42200943 -310.25 466.3125 C-311.06597656 465.68988281 -311.88195312 465.06726563 -312.72265625 464.42578125 C-361.21270298 426.54053079 -392.88155567 371.08451425 -400.61244202 309.94023132 C-401.66168751 300.63429756 -401.64484109 291.29157254 -401.625 281.9375 C-401.62445618 280.96994781 -401.62391235 280.00239563 -401.62335205 279.00552368 C-401.58322447 263.44035457 -400.70422864 248.5445256 -397.25 233.3125 C-396.92056396 231.83281738 -396.92056396 231.83281738 -396.58447266 230.32324219 C-389.09181264 197.54219177 -375.17838934 166.72583896 -354.25 140.3125 C-353.61835938 139.48878906 -352.98671875 138.66507813 -352.3359375 137.81640625 C-346.7235506 130.59883051 -340.53681418 123.93980358 -334.25 117.3125 C-333.53714844 116.55710937 -332.82429688 115.80171875 -332.08984375 115.0234375 C-326.86381746 109.63644531 -321.12911839 104.96615572 -315.25 100.3125 C-314.27289063 99.5184375 -313.29578125 98.724375 -312.2890625 97.90625 C-303.4373368 90.8605439 -294.02475219 84.99065996 -284.25 79.3125 C-283.63463379 78.94914551 -283.01926758 78.58579102 -282.38525391 78.21142578 C-231.7999848 48.56973513 -168.03966848 42.95349459 -111.8125 57 C-108.95189293 57.7495422 -106.10121148 58.52746839 -103.25 59.3125 C-101.91751727 59.64921747 -100.58440343 59.98347662 -99.25 60.3125 C-98.52296875 59.07886719 -98.52296875 59.07886719 -97.78125 57.8203125 C-81.53203618 30.75912179 -58.21378333 10.93248634 -27.34423828 2.81616211 C-18.17578181 0.61115795 -9.42710009 -0.04254218 0 0 Z M-59.25 43.3125 C-60.15363281 44.12332031 -61.05726563 44.93414062 -61.98828125 45.76953125 C-77.93281584 60.83193391 -88.67483676 82.217268 -89.48828125 104.33203125 C-90.02121709 131.95627069 -82.17487018 154.81417914 -63.0625 175.0625 C-58.91290783 179.036262 -54.55830941 182.4527427 -49.8125 185.6875 C-49.24055908 186.0803418 -48.66861816 186.47318359 -48.0793457 186.87792969 C-42.50048464 190.50291461 -36.42034131 192.87705741 -30.25 195.3125 C-30.00164217 191.00788574 -29.82087696 186.70711433 -29.70068359 182.39746094 C-29.65057045 180.93415702 -29.58244847 179.47134969 -29.49560547 178.00976562 C-29.22418724 173.32221323 -29.15033512 168.91782355 -30.25 164.3125 C-33.20562196 161.2239344 -36.3501843 159.91590207 -40.25 158.3125 C-53.66425702 148.96747344 -61.77078655 132.66643481 -64.7421875 116.97265625 C-67.38067904 97.95522107 -63.11061931 81.02556249 -52.18359375 65.34765625 C-44.98863161 55.96460187 -33.83088462 46.01476409 -21.765625 43.87109375 C-17.86704828 43.67361682 -15.92544132 43.80591901 -12.75 46.1875 C-9.88345539 50.24843819 -10.03468514 53.76848643 -9.93359375 58.6015625 C-9.9024221 59.82919815 -9.9024221 59.82919815 -9.87062073 61.08163452 C-9.80515188 63.70016966 -9.74625274 66.31880639 -9.6875 68.9375 C-9.64431224 70.71094807 -9.60069786 72.48438581 -9.55664062 74.2578125 C-9.44947324 78.60927046 -9.34819831 82.96083077 -9.25 87.3125 C-7.98743008 87.98866839 -6.71942978 88.65470358 -5.44921875 89.31640625 C-4.74369873 89.68838135 -4.03817871 90.06035645 -3.3112793 90.44360352 C0.66162097 92.11831061 3.5851144 90.77409912 7.38818359 89.26708984 C10.14187889 87.4223798 10.14187889 87.4223798 10.36181641 83.65478516 C10.38268234 82.13718386 10.37758479 80.61908414 10.3515625 79.1015625 C10.36357193 77.89383682 10.36357193 77.89383682 10.37582397 76.66171265 C10.3989233 74.08646495 10.38942471 71.51279069 10.375 68.9375 C10.3711487 66.36964403 10.37463525 63.80248841 10.39559937 61.23471069 C10.40765653 59.63760531 10.40507159 58.04030359 10.38589478 56.44326782 C10.40869207 51.88650843 10.89946618 48.92491166 13.75 45.3125 C17.3247443 43.52512785 20.90110756 43.74187932 24.75 44.3125 C39.75477098 49.65387228 51.55249504 61.14504064 59 75 C66.76502351 91.67570623 68.43663521 109.26347602 63.00390625 126.88671875 C57.47012417 142.00549409 48.07349316 155.22724218 33.63305664 162.98754883 C30.45273129 165.05179056 30.45273129 165.05179056 30.06884766 168.52050781 C30.10026855 169.75639648 30.13168945 170.99228516 30.1640625 172.265625 C30.17679703 173.25595734 30.17679703 173.25595734 30.18978882 174.26629639 C30.2232715 176.36672053 30.29851479 178.46324547 30.375 180.5625 C30.40510744 181.9895277 30.43248192 183.41661586 30.45703125 184.84375 C30.52303782 188.33459173 30.62651174 191.8231651 30.75 195.3125 C32.6372841 194.54886999 34.52224649 193.7795008 36.40625 193.0078125 C37.45619141 192.58000488 38.50613281 192.15219727 39.58789062 191.71142578 C49.86910608 187.16298812 57.84188442 180.10970232 65.75 172.3125 C66.49378906 171.58160156 67.23757813 170.85070312 68.00390625 170.09765625 C77.00881557 160.63457151 82.73669476 148.62605018 86.75 136.3125 C87.0696875 135.39210938 87.389375 134.47171875 87.71875 133.5234375 C93.88469827 112.34226335 90.45139191 88.49120931 80.375 69.1875 C77.03599019 63.10813248 73.29492211 57.56466764 68.75 52.3125 C68.0075 51.3225 67.265 50.3325 66.5 49.3125 C51.84335461 32.08618302 29.11837307 22.71066931 7.0625 20.5 C-17.28564123 19.22989718 -41.0970554 26.81789944 -59.25 43.3125 Z M-160.25 71.3125 C-160.25 81.8725 -160.25 92.4325 -160.25 103.3125 C-156.7025 103.704375 -153.155 104.09625 -149.5 104.5 C-138.79981502 105.76389968 -128.61190777 107.97388607 -118.23339844 110.80957031 C-115.59583898 111.47837539 -112.94192647 111.92548182 -110.25 112.3125 C-110.19465088 111.69842285 -110.13930176 111.0843457 -110.08227539 110.45166016 C-109.82618031 107.6135617 -109.56934361 104.77553081 -109.3125 101.9375 C-109.22548828 100.97199219 -109.13847656 100.00648437 -109.04882812 99.01171875 C-108.48375344 92.77496856 -107.88531187 86.54248963 -107.25 80.3125 C-124.99487471 75.38445027 -141.8302629 72.08643853 -160.25 71.3125 Z M-311.25 125.3125 C-306.86557474 130.56424926 -302.24157907 135.44472473 -297.375 140.25 C-296.68664062 140.93384766 -295.99828125 141.61769531 -295.2890625 142.32226562 C-293.61166489 143.98801464 -291.93196209 145.6513622 -290.25 147.3125 C-287.59156742 146.05924408 -285.32148189 144.71204819 -283.02734375 142.87890625 C-252.93610976 119.29903573 -219.08533531 107.09603353 -181.25 103.3125 C-181.25 92.7525 -181.25 82.1925 -181.25 71.3125 C-229.14404639 71.3125 -276.248446 93.70419892 -311.25 125.3125 Z M30.75 72.3125 C30.71241577 73.41706543 30.71241577 73.41706543 30.67407227 74.54394531 C30.55795727 77.88363378 30.43530082 81.22305097 30.3125 84.5625 C30.27318359 85.72136719 30.23386719 86.88023438 30.19335938 88.07421875 C30.15146484 89.18925781 30.10957031 90.30429688 30.06640625 91.453125 C30.02974854 92.47954102 29.99309082 93.50595703 29.95532227 94.56347656 C29.5905272 99.44765308 29.5905272 99.44765308 28.75 101.3125 C26.47167969 102.41137695 26.47167969 102.41137695 23.75 103.3125 C22.2229543 104.09663632 20.70732444 104.90335182 19.203125 105.73046875 C18.3575 106.17970703 17.511875 106.62894531 16.640625 107.09179688 C14.88743845 108.02674325 13.14243787 108.97721266 11.40625 109.94335938 C5.48296517 113.04410924 1.24953286 114.26125143 -5.25 112.3125 C-8.81618602 110.95274867 -12.17608395 109.31785574 -15.5625 107.5625 C-16.44228516 107.13195312 -17.32207031 106.70140625 -18.22851562 106.2578125 C-27.06205994 101.77732078 -27.06205994 101.77732078 -29.25 97.3125 C-29.84963563 93.20797322 -29.94672413 89.14340984 -30 85 C-30.02964844 83.87787109 -30.05929687 82.75574219 -30.08984375 81.59960938 C-30.16037417 78.83716793 -30.21315493 76.07556226 -30.25 73.3125 C-35.37277757 75.02009252 -37.58630103 79.804235 -40.25 84.3125 C-45.91040081 97.00193585 -47.01958319 108.98418034 -42.51953125 122.26171875 C-39.71353291 129.00474862 -35.66558264 134.42526688 -30.25 139.3125 C-29.49976563 140.03373047 -29.49976563 140.03373047 -28.734375 140.76953125 C-24.68211133 144.50935403 -20.52985614 146.82970585 -15.484375 149.0390625 C-12.88957311 150.51791812 -11.83122783 151.79061874 -10.25 154.3125 C-9.85127258 156.53985596 -9.85127258 156.53985596 -9.81762695 158.98925781 C-9.79783279 159.90991028 -9.77803864 160.83056274 -9.75764465 161.77911377 C-9.75125473 162.76466248 -9.74486481 163.75021118 -9.73828125 164.765625 C-9.72033005 165.78098328 -9.70237885 166.79634155 -9.68388367 167.84246826 C-9.62974293 171.08243672 -9.59587238 174.32225753 -9.5625 177.5625 C-9.52933031 179.76043723 -9.49484098 181.95835496 -9.45898438 184.15625 C-9.37401403 189.54156021 -9.30722041 194.92682633 -9.25 200.3125 C-2.98 200.3125 3.29 200.3125 9.75 200.3125 C9.76458252 198.97550049 9.77916504 197.63850098 9.79418945 196.26098633 C9.85222124 191.29408201 9.92945435 186.32762871 10.01245117 181.36108398 C10.04567746 179.21272102 10.07371653 177.06427125 10.09643555 174.91577148 C10.13002331 171.82498224 10.18234221 168.73498688 10.23828125 165.64453125 C10.24467117 164.68601761 10.2510611 163.72750397 10.25764465 162.73994446 C10.36548681 157.83355146 10.46176104 154.23703075 13.75 150.3125 C16.60546875 148.5390625 16.60546875 148.5390625 19.9375 146.9375 C32.05843658 140.66851393 39.30006634 132.36166754 44.1875 119.5 C47.91436934 107.01256767 46.16372586 94.57671525 40.06640625 83.16015625 C37.33815973 78.69521947 35.00570708 75.37665311 30.75 72.3125 Z M-239.25 139.3125 C-239.88099609 139.61913574 -240.51199219 139.92577148 -241.16210938 140.24169922 C-255.74045218 147.40826988 -268.13356874 156.59619641 -279.77441406 167.88818359 C-281.13264288 169.19922047 -282.51452452 170.48563558 -283.8984375 171.76953125 C-301.05518405 188.08738325 -312.33336237 209.25314427 -320.25 231.3125 C-320.67152344 232.48683594 -321.09304688 233.66117187 -321.52734375 234.87109375 C-334.40388012 273.79224708 -329.11760076 316.95921448 -311.25 353.3125 C-304.01324245 367.40882653 -294.89795873 380.49653832 -283.25 391.3125 C-278.25 396.3125 -278.25 396.3125 -276.75366211 397.88134766 C-272.58965957 402.18649246 -268.22984581 405.77876787 -263.3125 409.1875 C-262.57596191 409.70070801 -261.83942383 410.21391602 -261.08056641 410.74267578 C-249.1698451 418.91620171 -236.89219075 425.52459891 -223.25 430.3125 C-222.60562988 430.53921387 -221.96125977 430.76592773 -221.29736328 430.99951172 C-181.66068585 444.68720831 -138.96312571 441.41860094 -101.19628906 423.54663086 C-64.36947143 405.50471279 -35.46648516 373.27331033 -21.32275391 334.78955078 C-10.32855795 302.58827632 -9.61128624 269.53796571 -18.58642578 236.81494141 C-19.21814879 234.43261585 -19.75045728 232.04394737 -20.27734375 229.63671875 C-22.04395016 222.43889459 -22.04395016 222.43889459 -27.00488281 217.203125 C-30.6861502 215.59135551 -34.48552905 214.61944087 -38.375 213.64453125 C-60.66315411 208.03262917 -81.0248266 189.24859416 -93.03710938 170.35205078 C-98.33061644 161.45069047 -102.8023163 152.17873367 -104.8125 142 C-105.97901985 137.92750372 -106.69004286 136.6698128 -110.3046875 134.36328125 C-114.48515569 132.53141532 -118.83374864 131.42034769 -123.25 130.3125 C-124.94671084 129.84931081 -126.64332297 129.38575987 -128.33984375 128.921875 C-165.67269919 119.09725658 -204.48625873 122.21039987 -239.25 139.3125 Z M-328.80859375 142.75390625 C-359.55777776 177.46660255 -380.25 224.58516128 -380.25 271.3125 C-370.02 271.3125 -359.79 271.3125 -349.25 271.3125 C-348.1047323 269.0219646 -347.94297986 267.29958085 -347.671875 264.75390625 C-343.28470165 226.122778 -328.97604821 193.28765342 -304.25 163.3125 C-308.61821848 158.09641303 -313.19240875 153.18731383 -318 148.375 C-318.67160156 147.69115234 -319.34320313 147.00730469 -320.03515625 146.30273438 C-320.67839844 145.65755859 -321.32164062 145.01238281 -321.984375 144.34765625 C-322.85400879 143.47185913 -322.85400879 143.47185913 -323.74121094 142.57836914 C-325.918887 140.75130597 -326.73060774 140.83215979 -328.80859375 142.75390625 Z M20.375 219.25 C13.18684382 220.51375314 6.03075075 220.93453753 -1.25 221.3125 C-0.19676134 226.07645448 0.86931169 230.8363387 1.96875 235.58984375 C4.68570628 247.50699778 6.64306065 259.13616714 7.75 271.3125 C18.31 271.3125 28.87 271.3125 39.75 271.3125 C39.4663292 260.91123721 38.3495379 251.0960518 36.375 240.875 C36.16593018 239.78654785 35.95686035 238.6980957 35.74145508 237.57666016 C34.43108845 231.02832665 32.80285369 224.66745964 30.75 218.3125 C27.14468522 218.27372913 23.91888019 218.57001178 20.375 219.25 Z M-380.25 292.3125 C-381.06173974 337.31895919 -359.56237645 387.86054952 -328.44140625 420.19140625 C-328.04824219 420.56136719 -327.65507812 420.93132812 -327.25 421.3125 C-323.68235715 419.79873919 -321.41293713 417.70736871 -318.703125 414.9609375 C-317.43662109 413.68476563 -317.43662109 413.68476563 -316.14453125 412.3828125 C-315.27183594 411.49335938 -314.39914062 410.60390625 -313.5 409.6875 C-312.61183594 408.7903125 -311.72367187 407.893125 -310.80859375 406.96875 C-308.61783031 404.75442996 -306.43187237 402.53557565 -304.25 400.3125 C-304.62729248 399.81041016 -305.00458496 399.30832031 -305.39331055 398.79101562 C-307.01381729 396.63271322 -308.63217852 394.47281581 -310.25 392.3125 C-310.67490723 391.74660156 -311.09981445 391.18070312 -311.53759766 390.59765625 C-331.90730314 363.31330752 -344.30994601 332.41534307 -347.65527344 298.47827148 C-347.72021642 295.10421938 -347.72021642 295.10421938 -349.25 292.3125 C-351.54151417 292.22459025 -353.83572524 292.20555962 -356.12890625 292.21484375 C-356.8155687 292.2162587 -357.50223114 292.21767365 -358.20970154 292.21913147 C-360.41067801 292.22474521 -362.61155409 292.23729993 -364.8125 292.25 C-366.30143083 292.25501324 -367.79036324 292.25957645 -369.27929688 292.26367188 C-372.93623075 292.27471907 -376.59310558 292.29199287 -380.25 292.3125 Z M7.75 292.3125 C7.358125 295.695 6.96625 299.0775 6.5625 302.5625 C4.43129731 319.48299433 0.41040011 335.60357028 -6.25 351.3125 C-6.53713867 351.99376953 -6.82427734 352.67503906 -7.12011719 353.37695312 C-14.3990137 370.35842195 -24.57990579 385.06911615 -36.25 399.3125 C-34.73623919 402.88014285 -32.64486871 405.14956287 -29.8984375 407.859375 C-29.04765625 408.70371094 -28.196875 409.54804688 -27.3203125 410.41796875 C-26.43085938 411.29066406 -25.54140625 412.16335938 -24.625 413.0625 C-23.7278125 413.95066406 -22.830625 414.83882813 -21.90625 415.75390625 C-19.69192996 417.94466969 -17.47307565 420.13062763 -15.25 422.3125 C-10.52795335 418.65920059 -7.02086026 414.80544292 -3.5 410 C-2.98268311 409.2999585 -2.46536621 408.59991699 -1.93237305 407.87866211 C3.37402671 400.60361489 8.22030326 393.09269962 12.75 385.3125 C13.13784668 384.64669922 13.52569336 383.98089844 13.92529297 383.29492188 C29.78822554 355.65284733 38.55055631 324.09775771 39.75 292.3125 C29.19 292.3125 18.63 292.3125 7.75 292.3125 Z M-289.25 415.3125 C-296.18 422.2425 -303.11 429.1725 -310.25 436.3125 C-299.03458021 458.74333958 -258.91855186 473.97973527 -236.77001953 481.49707031 C-220.49034061 486.76486024 -202.68832631 491.41111236 -185.49609375 491.33203125 C-184.69743896 491.32921143 -183.89878418 491.3263916 -183.07592773 491.32348633 C-182.47337158 491.31986084 -181.87081543 491.31623535 -181.25 491.3125 C-181.22534496 486.91593827 -181.20716158 482.5194128 -181.19506836 478.12280273 C-181.19002879 476.62605082 -181.18319713 475.12930384 -181.17456055 473.63256836 C-181.16247841 471.48550193 -181.15676809 469.33850038 -181.15234375 467.19140625 C-181.14710693 465.8979126 -181.14187012 464.60441895 -181.13647461 463.27172852 C-180.91003068 460.42597596 -180.91003068 460.42597596 -182.25 459.3125 C-183.68366701 459.08610181 -185.12627134 458.91582675 -186.5703125 458.76953125 C-207.94352299 456.41832774 -227.80360058 451.59606425 -247.25 442.3125 C-247.97380859 441.96848145 -248.69761719 441.62446289 -249.44335938 441.27001953 C-263.91950807 434.27016855 -276.41641565 424.93768826 -289.25 415.3125 Z M-57.00927734 419.17260742 C-64.39621336 425.25772506 -71.89660042 430.60179293 -80.25 435.3125 C-80.88099609 435.6744043 -81.51199219 436.03630859 -82.16210938 436.40917969 C-105.68499094 449.81653638 -130.4307117 456.30139343 -157.23486328 459.00292969 C-159.24269715 459.1080172 -159.24269715 459.1080172 -160.25 460.3125 C-160.33790975 462.60401417 -160.35694038 464.89822524 -160.34765625 467.19140625 C-160.3462413 467.8780687 -160.34482635 468.56473114 -160.34336853 469.27220154 C-160.33775479 471.47317801 -160.32520007 473.67405409 -160.3125 475.875 C-160.30748676 477.36393083 -160.30292355 478.85286324 -160.29882812 480.34179688 C-160.28778093 483.99873075 -160.27050713 487.65560558 -160.25 491.3125 C-112.60640539 492.321951 -65.27607238 469.26577327 -30.25 438.3125 C-31.7620546 434.75960141 -33.84049171 432.47716444 -36.56640625 429.765625 C-37.41267578 428.92128906 -38.25894531 428.07695312 -39.13085938 427.20703125 C-40.01580078 426.33433594 -40.90074219 425.46164062 -41.8125 424.5625 C-42.70130859 423.67433594 -43.59011719 422.78617187 -44.50585938 421.87109375 C-50.32663897 414.94680907 -50.32663897 414.94680907 -57.00927734 419.17260742 Z " fill="#F7921C" transform="translate(401.25,-0.3125)"/>
<path d="M0 0 C4.36994397 3.27745797 5.94326044 5.91498712 7.88208008 11.1081543 C8.12647324 11.75588806 8.37086639 12.40362183 8.62266541 13.07098389 C9.42942313 15.21505933 10.22447027 17.36328143 11.01953125 19.51171875 C11.58308047 21.01636628 12.14735749 22.5207414 12.71232605 24.02485657 C14.20176289 27.99610792 15.68133676 31.9709641 17.15887451 35.94665527 C18.64241032 39.93341352 20.13501091 43.91677241 21.62695312 47.90039062 C23.31496217 52.40979949 25.00195771 56.91957528 26.68305969 61.43156433 C27.06913407 62.46728939 27.06913407 62.46728939 27.46300793 63.52393818 C27.96974213 64.88591592 28.47500854 66.24844078 28.97872639 67.61153698 C30.2706625 71.10029825 31.59368632 74.57251546 32.96810913 78.0296936 C33.38695263 79.09947181 33.38695263 79.09947181 33.81425762 80.1908617 C34.34337215 81.53971656 34.88150535 82.88508567 35.43065357 84.22590923 C37.10381246 88.52588016 37.59545805 92.09187571 37.25 96.6875 C35.99544028 99.51025936 34.96615278 101.15038541 32.5 103 C28.39972869 104.25286068 24.76841032 104.2843594 20.765625 102.7109375 C17.11803168 99.77700374 16.03881521 96.30552568 14.4375 92 C13.385625 89.256875 12.33375 86.51375 11.25 83.6875 C-0.63 83.3575 -12.51 83.0275 -24.75 82.6875 C-25.08 84.6675 -25.41 86.6475 -25.75 88.6875 C-30.11174315 100.9339327 -30.11174315 100.9339327 -35.75 103.6875 C-40.15013322 104.52092646 -42.88020216 104.24269011 -46.6875 101.8125 C-50.05025471 98.34784363 -50.05677208 95.88460805 -49.9956665 91.2315979 C-49.5671842 86.79427778 -47.9596229 82.90264586 -46.3046875 78.79296875 C-45.94284866 77.85906311 -45.58100983 76.92515747 -45.20820618 75.96295166 C-44.02829417 72.92774152 -42.82723171 69.90143077 -41.625 66.875 C-40.80251918 64.77597042 -39.98132271 62.67643716 -39.16137695 60.57641602 C-37.50019034 56.32627027 -35.83121782 52.07929394 -34.15771484 47.83398438 C-31.93144778 42.17155379 -29.76299229 36.48872659 -27.61328125 30.796875 C-26.68183912 28.34491821 -25.74928512 25.8933879 -24.81622314 23.44204712 C-24.23538283 21.91046759 -23.65796761 20.37758426 -23.08416748 18.84335327 C-22.28971495 16.72324328 -21.48066193 14.60926607 -20.66796875 12.49609375 C-20.22219482 11.31845459 -19.7764209 10.14081543 -19.31713867 8.92749023 C-17.50140907 5.17354919 -15.61882504 2.70730111 -12.75 -0.3125 C-8.21551342 -1.82399553 -4.37258684 -2.08691645 0 0 Z M-6.75 35.6875 C-10.05 44.5975 -13.35 53.5075 -16.75 62.6875 C-9.82 62.6875 -2.89 62.6875 4.25 62.6875 C0.95 53.7775 -2.35 44.8675 -5.75 35.6875 C-6.08 35.6875 -6.41 35.6875 -6.75 35.6875 Z " fill="#F7921C" transform="translate(154.75,227.3125)"/>
<path d="M0 0 C3.23165406 2.85588033 4.22458095 4.79789228 4.5 9 C4.30170354 13.03457024 2.92149301 15.16443325 0 18 C-3.52370273 19.76185136 -7.15374984 19.54197161 -11 19 C-13.6787094 17.90236316 -16.13072656 16.63090682 -18.640625 15.19140625 C-24.99920405 11.98053438 -32.19156483 12.3550661 -38.9375 14.0625 C-47.94312643 17.05054195 -53.34791568 22.61127139 -57.90625 30.765625 C-61.20337473 37.5011798 -61.2012985 46.57449102 -59.24609375 53.77734375 C-58.29356581 55.96255491 -57.23377178 57.96234208 -56 60 C-55.443125 61.051875 -54.88625 62.10375 -54.3125 63.1875 C-49.06425769 69.57049741 -41.86733942 73.51439537 -33.6328125 74.3359375 C-24.04841276 74.44266801 -18.4782188 73.38280303 -11.5625 66.75 C-8.85187169 64.30609255 -7.03533276 63.53230356 -3.375 63.375 C0.79337707 63.65953086 3.0947313 64.913152 6 68 C7.65591579 71.31183158 7.74424086 74.44765708 7 78 C1.98965161 86.41864181 -7.47291898 92.24990101 -16.5859375 95.3046875 C-31.91153519 98.42591907 -46.52977918 96.08274603 -59.69140625 87.6171875 C-71.33032467 79.46403653 -78.92407442 67.97042849 -82 54 C-83.50371671 36.29762467 -80.6269632 21.78939122 -69.19140625 7.78515625 C-51.532359 -11.34241884 -21.43107569 -14.7644669 0 0 Z " fill="#F7921C" transform="translate(350,240)"/>
<path d="M0 0 C2.79987689 1.35477914 3.85920578 2.54591882 6 5 C7.34843784 10.50576955 6.63080159 14.92861075 5.1574707 20.28686523 C4.94946335 21.08458344 4.74145599 21.88230164 4.52714539 22.70419312 C3.8397718 25.32598102 3.13331021 27.94217955 2.42578125 30.55859375 C1.93977629 32.39006259 1.45469856 34.2217777 0.97050476 36.0537262 C-0.04603603 39.8881261 -1.07168715 43.71993268 -2.10424805 47.55004883 C-3.42280768 52.44276745 -4.7217866 57.34041823 -6.01433086 62.24006557 C-7.01394176 66.02268294 -8.02235449 69.80290936 -9.03354836 73.58244514 C-9.51545444 75.3866212 -9.99504207 77.19141827 -10.47220421 78.99685478 C-11.14299144 81.5282304 -11.82519573 84.05626109 -12.51049805 86.58374023 C-12.79985733 87.6882679 -12.79985733 87.6882679 -13.09506226 88.81510925 C-16.57570665 101.48782697 -16.57570665 101.48782697 -20.91996288 104.19759274 C-24.16099184 105.44787099 -26.55696832 105.41553831 -30 105 C-33.375 103 -33.375 103 -36 100 C-37.28861711 93.95424562 -36.77575709 89.46176236 -35.14160156 83.56787109 C-34.93198792 82.76679428 -34.72237427 81.96571747 -34.50640869 81.1403656 C-33.81526498 78.51407929 -33.10343005 75.89391984 -32.390625 73.2734375 C-31.90205173 71.43865337 -31.41458117 69.60357527 -30.92816162 67.76821899 C-29.90801565 63.93122848 -28.87823451 60.09700544 -27.84082031 56.26464844 C-26.51383148 51.36152855 -25.20544348 46.45369203 -23.90353775 41.54385948 C-22.89833981 37.75739302 -21.8861539 33.9728243 -20.8715744 30.18886185 C-20.38689353 28.38001879 -19.90370721 26.57077457 -19.42206573 24.76111984 C-18.7466771 22.23001383 -18.06260926 19.70141544 -17.37597656 17.17333984 C-17.1794751 16.43136856 -16.98297363 15.68939728 -16.78051758 14.92494202 C-15.40216329 9.90061715 -13.86236824 5.06929804 -10.3125 1.125 C-6.86331181 -0.55298344 -3.70045516 -0.74577311 0 0 Z " fill="#F7921C" transform="translate(246,226)"/>
</svg>
