<?xml version="1.0" encoding="UTF-8"?>
<svg version="1.1" xmlns="http://www.w3.org/2000/svg" width="512" height="512">
<path d="M0 0 C1.13240616 -0.0131424 1.13240616 -0.0131424 2.28768921 -0.02655029 C4.77961953 -0.04853168 7.26977086 -0.0339977 9.76171875 -0.01708984 C11.49520203 -0.02045838 13.22868301 -0.02531132 14.9621582 -0.03158569 C18.59381616 -0.03895526 22.22485891 -0.02824928 25.85644531 -0.00488281 C30.51083848 0.02360558 35.16379021 0.00720198 39.81813049 -0.02274513 C43.39728653 -0.04081618 46.97610099 -0.03506109 50.55526733 -0.02210617 C52.27127249 -0.0187716 53.98730869 -0.02286109 55.70327759 -0.03450394 C58.10249918 -0.04721028 60.49938954 -0.02784269 62.8984375 0 C63.96147598 -0.01518173 63.96147598 -0.01518173 65.04598999 -0.03067017 C68.64262459 0.04662813 70.1961529 0.41725543 72.89276123 2.86506653 C74.56232057 5.84912315 74.9375747 7.42182249 74.90332031 10.80444336 C74.90286713 12.30543327 74.90286713 12.30543327 74.90240479 13.83674622 C74.88175964 14.90462875 74.8611145 15.97251129 74.83984375 17.07275391 C74.83418396 18.17548141 74.82852417 19.27820892 74.82269287 20.41435242 C74.80033625 23.92983758 74.75013896 27.44429652 74.69921875 30.95947266 C74.67915293 33.34552563 74.6609023 35.7315946 74.64453125 38.11767578 C74.60047376 43.96112376 74.53356793 49.80397488 74.44921875 55.64697266 C75.42834229 55.83235596 76.40746582 56.01773926 77.41625977 56.20874023 C84.52306278 57.57704427 91.51318401 59.03402776 98.38671875 61.33447266 C99.08216797 61.55941406 99.77761719 61.78435547 100.49414062 62.01611328 C102.14826815 62.55227875 103.79916439 63.09840005 105.44921875 63.64697266 C105.44921875 64.30697266 105.44921875 64.96697266 105.44921875 65.64697266 C106.17971436 65.77297852 106.91020996 65.89898437 107.6628418 66.02880859 C112.13019537 67.01990114 116.11003609 69.00901101 120.26171875 70.89697266 C121.12603516 71.27982422 121.99035156 71.66267578 122.88085938 72.05712891 C127.69480504 74.2297625 132.18227056 76.57848536 136.5690918 79.52490234 C138.77740139 80.8428339 141.04586895 81.74238891 143.44921875 82.64697266 C143.84123474 82.25273605 144.23325073 81.85849945 144.637146 81.45231628 C148.72217906 77.34513901 152.81074424 73.24150237 156.90136719 69.13989258 C158.42701401 67.60922078 159.9517616 66.07765216 161.47558594 64.54516602 C163.66755476 62.34105134 165.86274989 60.14019478 168.05859375 57.93994141 C169.07756744 56.91322578 169.07756744 56.91322578 170.11712646 55.86576843 C170.7574884 55.22533096 171.39785034 54.58489349 172.05761719 53.92504883 C172.6172113 53.3632341 173.17680542 52.80141937 173.75335693 52.22257996 C178.62713921 47.69440032 178.62713921 47.69440032 182.69921875 47.45947266 C183.60671875 47.52134766 184.51421875 47.58322266 185.44921875 47.64697266 C185.44921875 48.30697266 185.44921875 48.96697266 185.44921875 49.64697266 C185.98804688 49.86998047 186.526875 50.09298828 187.08203125 50.32275391 C190.21823661 52.07716581 192.71252339 54.39917698 195.32421875 56.83447266 C195.86014648 57.32915039 196.39607422 57.82382812 196.94824219 58.33349609 C200.22679853 61.39627908 203.20860473 64.557677 206.03515625 68.04541016 C207.66742342 69.89411054 209.44140783 71.42994334 211.32421875 73.02197266 C214.3040155 75.54856838 216.89429868 78.19128081 219.44921875 81.14697266 C221.9857225 84.08058071 224.55099174 86.70511976 227.51171875 89.20947266 C231.55856264 92.63927302 235.29871598 96.36425796 238.44921875 100.64697266 C238.44921875 101.30697266 238.44921875 101.96697266 238.44921875 102.64697266 C239.10921875 102.64697266 239.76921875 102.64697266 240.44921875 102.64697266 C240.87808321 106.51209133 240.77516266 108.18759026 238.48901367 111.40966797 C237.58256104 112.33875977 236.6761084 113.26785156 235.7421875 114.22509766 C235.25002243 114.73695618 234.75785736 115.2488147 234.2507782 115.77618408 C232.66556785 117.41557702 231.05941097 119.03214012 229.44921875 120.64697266 C228.39614917 121.71874923 227.34357459 122.79101241 226.29150391 123.86376953 C223.13768473 127.06460979 219.95194454 130.23248624 216.76171875 133.39697266 C215.65536035 134.49829551 214.54923955 135.5998571 213.44335938 136.70166016 C210.78136228 139.35283851 208.11622386 142.00083111 205.44921875 144.64697266 C206.10921875 146.95697266 206.76921875 149.26697266 207.44921875 151.64697266 C208.10921875 151.64697266 208.76921875 151.64697266 209.44921875 151.64697266 C222.44921875 177.06632749 222.44921875 177.06632749 222.44921875 182.64697266 C223.10921875 182.64697266 223.76921875 182.64697266 224.44921875 182.64697266 C225.60309684 186.49877684 226.74586603 190.35379234 227.88671875 194.20947266 C228.37495117 195.83852539 228.37495117 195.83852539 228.87304688 197.50048828 C229.18564453 198.56074219 229.49824219 199.62099609 229.8203125 200.71337891 C230.1083374 201.68218994 230.3963623 202.65100098 230.69311523 203.64916992 C231.52947486 206.96517244 232.01777732 210.25654669 232.44921875 213.64697266 C233.0645195 213.63809021 233.67982025 213.62920776 234.31376648 213.62005615 C240.72137151 213.53151994 247.1288026 213.47121222 253.53686523 213.42724609 C255.92788756 213.40713848 258.31886076 213.37984836 260.7097168 213.34521484 C264.14774706 213.29666115 267.58512679 213.27399491 271.0234375 213.25634766 C272.09132004 213.23570251 273.15920258 213.21505737 274.25944519 213.19378662 C275.7604351 213.19333344 275.7604351 213.19333344 277.29174805 213.19287109 C278.16888962 213.18398865 279.04603119 213.1751062 279.94975281 213.16595459 C283.47402892 213.84419567 285.03913244 214.9919235 287.44921875 217.64697266 C287.95539491 220.36974055 288.13505975 222.47615746 288.09619141 225.19775391 C288.104953 225.95269135 288.1137146 226.70762878 288.1227417 227.48544312 C288.14472309 229.97737344 288.13018911 232.46752477 288.11328125 234.95947266 C288.11664979 236.69295594 288.12150272 238.42643691 288.1277771 240.15991211 C288.13514666 243.79157007 288.12444069 247.42261282 288.10107422 251.05419922 C288.07258582 255.70859239 288.08898943 260.36154412 288.11893654 265.0158844 C288.13700759 268.59504043 288.1312525 272.1738549 288.11829758 275.75302124 C288.114963 277.46902639 288.1190525 279.1850626 288.13069534 280.90103149 C288.14340169 283.30025308 288.1240341 285.69714345 288.09619141 288.09619141 C288.10631256 288.80488373 288.11643372 289.51357605 288.12686157 290.2437439 C288.04956327 293.84037849 287.67893598 295.39390681 285.23112488 298.09051514 C282.24706826 299.76007448 280.67436892 300.13532861 277.29174805 300.10107422 C276.2910881 300.10077209 275.29042816 300.10046997 274.25944519 300.10015869 C273.19156265 300.07951355 272.12368011 300.05886841 271.0234375 300.03759766 C269.92070999 300.03193787 268.81798248 300.02627808 267.68183899 300.02044678 C264.16635383 299.99809016 260.65189488 299.94789287 257.13671875 299.89697266 C254.75066578 299.87690683 252.36459681 299.85865621 249.97851562 299.84228516 C244.13506765 299.79822767 238.29221652 299.73132184 232.44921875 299.64697266 C232.26093506 300.63842285 232.07265137 301.62987305 231.87866211 302.65136719 C230.57836676 309.39311414 229.25990162 316.02067006 227.01171875 322.52197266 C226.62113281 323.67439453 226.23054688 324.82681641 225.828125 326.01416016 C222.65177565 334.38244598 218.71693983 342.43767337 214.88671875 350.52197266 C214.40525391 351.55322266 213.92378906 352.58447266 213.42773438 353.64697266 C212.72487305 355.12810547 212.72487305 355.12810547 212.0078125 356.63916016 C211.58814209 357.52974121 211.16847168 358.42032227 210.73608398 359.33789062 C209.44921875 361.64697266 209.44921875 361.64697266 207.85180664 363.20996094 C206.08888453 365.01615059 205.74660923 366.151382 205.44921875 368.64697266 C206.40985798 370.33573895 206.40985798 370.33573895 208.02871704 371.80082703 C208.62593567 372.39913834 209.2231543 372.99744965 209.83847046 373.6138916 C210.50746368 374.25862427 211.17645691 374.90335693 211.86572266 375.56762695 C212.55980225 376.25601151 213.25388184 376.94439606 213.96899414 377.65364075 C215.48206261 379.15099952 217.00092743 380.64251805 218.52476883 382.12891197 C220.94026522 384.48532107 223.3403224 386.85650234 225.73690796 389.23213196 C230.83553869 394.28034276 235.95417845 399.30799229 241.07421875 404.33447266 C246.9865359 410.14271146 252.8904252 415.95920147 258.77878952 421.79172707 C261.13729264 424.12068494 263.50795579 426.43674726 265.87954712 428.75236511 C267.33904558 430.1941203 268.79800705 431.63641935 270.25634766 433.0793457 C270.9131955 433.71395721 271.57004333 434.34856873 272.24679565 435.00241089 C281.24751182 443.9778143 285.70648409 454.46359085 285.82421875 467.08447266 C285.69117418 478.70579039 282.5609126 488.25953678 275.44921875 497.64697266 C264.56097101 507.7457402 253.17333578 511.19194194 238.59765625 510.92431641 C225.25890392 510.30966963 215.05856601 502.80438739 206.09692383 493.52416992 C205.42249741 492.83893753 204.74807098 492.15370514 204.0532074 491.44770813 C202.60460529 489.97448839 201.15939596 488.49792606 199.71732521 487.01831245 C197.43429724 484.67806262 195.14002076 482.34939699 192.84220886 480.02366638 C186.31610873 473.41539622 179.8060651 466.79156319 173.31469727 460.14916992 C169.33159188 456.07500602 165.33172947 452.01794671 161.32077599 447.97120476 C159.79792921 446.42787188 158.28168705 444.87799327 156.77222633 443.32156563 C154.66828243 441.15291051 152.54379864 439.00656995 150.41333008 436.86401367 C149.79448944 436.21529297 149.1756488 435.56657227 148.53805542 434.89819336 C146.89627525 433.27127093 145.41986648 431.85486561 143.44921875 430.64697266 C140.10309473 430.58554628 140.10309473 430.58554628 137.44921875 431.64697266 C137.11921875 432.63697266 136.78921875 433.62697266 136.44921875 434.64697266 C134.56665039 435.85791016 134.56665039 435.85791016 132.109375 437.02197266 C130.76069336 437.66392578 130.76069336 437.66392578 129.38476562 438.31884766 C127.96260742 438.97626953 127.96260742 438.97626953 126.51171875 439.64697266 C125.59841797 440.08525391 124.68511719 440.52353516 123.74414062 440.97509766 C117.77323173 443.78096001 111.82206858 445.94454718 105.44921875 447.64697266 C105.44921875 448.30697266 105.44921875 448.96697266 105.44921875 449.64697266 C101.59741457 450.80085075 97.74239906 451.94361994 93.88671875 453.08447266 C92.25766602 453.57270508 92.25766602 453.57270508 90.59570312 454.07080078 C89.53544922 454.38339844 88.47519531 454.69599609 87.3828125 455.01806641 C85.92959595 455.45010376 85.92959595 455.45010376 84.44702148 455.89086914 C81.13101896 456.72722876 77.83964472 457.21553123 74.44921875 457.64697266 C74.4581012 458.26227341 74.46698364 458.87757416 74.47613525 459.51152039 C74.56467146 465.91912542 74.62497919 472.32655651 74.66894531 478.73461914 C74.68905293 481.12564147 74.71634305 483.51661467 74.75097656 485.9074707 C74.79953026 489.34550096 74.82219649 492.7828807 74.83984375 496.22119141 C74.86048889 497.28907394 74.88113403 498.35695648 74.90240479 499.4571991 C74.90270691 500.45785904 74.90300903 501.45851898 74.90332031 502.48950195 C74.91220276 503.36664352 74.92108521 504.2437851 74.93023682 505.14750671 C74.25199574 508.67178283 73.10426791 510.23688635 70.44921875 512.64697266 C67.72645086 513.15314881 65.62003394 513.33281366 62.8984375 513.29394531 C62.14350006 513.30270691 61.38856262 513.31146851 60.61074829 513.32049561 C58.11881797 513.34247699 55.62866664 513.32794301 53.13671875 513.31103516 C51.40323547 513.31440369 49.66975449 513.31925663 47.9362793 513.32553101 C44.30462134 513.33290057 40.67357859 513.3221946 37.04199219 513.29882812 C32.38759902 513.27033973 27.73464729 513.28674334 23.08030701 513.31669044 C19.50115097 513.3347615 15.92233651 513.32900641 12.34317017 513.31605148 C10.62716501 513.31271691 8.91112881 513.31680641 7.19515991 513.32844925 C4.79593832 513.3411556 2.39904796 513.321788 0 513.29394531 C-0.70869232 513.30406647 -1.41738464 513.31418762 -2.14755249 513.32461548 C-5.74418709 513.24731718 -7.2977154 512.87668989 -9.99432373 510.42887878 C-11.66388307 507.44482217 -12.0391372 505.87212283 -12.00488281 502.48950195 C-12.00458069 501.48884201 -12.00427856 500.48818207 -12.00396729 499.4571991 C-11.98332214 498.38931656 -11.962677 497.32143402 -11.94140625 496.22119141 C-11.93574646 495.1184639 -11.93008667 494.01573639 -11.92425537 492.8795929 C-11.90189875 489.36410773 -11.85170146 485.84964879 -11.80078125 482.33447266 C-11.78071543 479.94841969 -11.7624648 477.56235071 -11.74609375 475.17626953 C-11.70203626 469.33282155 -11.63513043 463.48997043 -11.55078125 457.64697266 C-12.52990479 457.46158936 -13.50902832 457.27620605 -14.51782227 457.08520508 C-21.62462528 455.71690105 -28.61474651 454.25991755 -35.48828125 451.95947266 C-36.18373047 451.73453125 -36.87917969 451.50958984 -37.59570312 451.27783203 C-39.24983065 450.74166656 -40.90072689 450.19554526 -42.55078125 449.64697266 C-42.55078125 448.98697266 -42.55078125 448.32697266 -42.55078125 447.64697266 C-43.28127686 447.5209668 -44.01177246 447.39496094 -44.7644043 447.26513672 C-49.23175787 446.27404417 -53.21159859 444.28493431 -57.36328125 442.39697266 C-58.22759766 442.01412109 -59.09191406 441.63126953 -59.98242188 441.23681641 C-64.79636754 439.06418281 -69.28383306 436.71545995 -73.6706543 433.76904297 C-75.87896389 432.45111141 -78.14743145 431.55155641 -80.55078125 430.64697266 C-80.94279724 431.04120926 -81.33481323 431.43544586 -81.7387085 431.84162903 C-85.82374156 435.9488063 -89.91230674 440.05244294 -94.00292969 444.15405273 C-95.52857651 445.68472453 -97.0533241 447.21629316 -98.57714844 448.7487793 C-100.76911726 450.95289397 -102.96431239 453.15375053 -105.16015625 455.35400391 C-105.83947205 456.03848099 -106.51878784 456.72295807 -107.21868896 457.42817688 C-107.8590509 458.06861435 -108.49941284 458.70905182 -109.15917969 459.36889648 C-109.7187738 459.93071121 -110.27836792 460.49252594 -110.85491943 461.07136536 C-115.72870171 465.59954499 -115.72870171 465.59954499 -119.80078125 465.83447266 C-120.70828125 465.77259766 -121.61578125 465.71072266 -122.55078125 465.64697266 C-122.55078125 464.98697266 -122.55078125 464.32697266 -122.55078125 463.64697266 C-123.35902344 463.31246094 -123.35902344 463.31246094 -124.18359375 462.97119141 C-127.31979911 461.2167795 -129.81408589 458.89476833 -132.42578125 456.45947266 C-133.22967285 455.71745605 -133.22967285 455.71745605 -134.04980469 454.96044922 C-137.32836103 451.89766624 -140.31016723 448.73626832 -143.13671875 445.24853516 C-144.76898592 443.39983477 -146.54297033 441.86400197 -148.42578125 440.27197266 C-151.405578 437.74537693 -153.99586118 435.1026645 -156.55078125 432.14697266 C-159.087285 429.2133646 -161.65255424 426.58882556 -164.61328125 424.08447266 C-168.66012514 420.65467229 -172.40027848 416.92968735 -175.55078125 412.64697266 C-175.55078125 411.98697266 -175.55078125 411.32697266 -175.55078125 410.64697266 C-176.21078125 410.64697266 -176.87078125 410.64697266 -177.55078125 410.64697266 C-177.97964571 406.78185398 -177.87672516 405.10635505 -175.59057617 401.88427734 C-174.68412354 400.95518555 -173.7776709 400.02609375 -172.84375 399.06884766 C-172.35158493 398.55698914 -171.85941986 398.04513062 -171.3523407 397.51776123 C-169.76713035 395.8783683 -168.16097347 394.2618052 -166.55078125 392.64697266 C-165.49771167 391.57519608 -164.44513709 390.50293291 -163.39306641 389.43017578 C-160.23924723 386.22933552 -157.05350704 383.06145907 -153.86328125 379.89697266 C-152.75692285 378.7956498 -151.65080205 377.69408821 -150.54492188 376.59228516 C-147.88292478 373.94110681 -145.21778636 371.29311421 -142.55078125 368.64697266 C-143.54078125 365.18197266 -143.54078125 365.18197266 -144.55078125 361.64697266 C-145.21078125 361.64697266 -145.87078125 361.64697266 -146.55078125 361.64697266 C-148.34508411 357.91906883 -150.13575821 354.18943317 -151.92578125 350.45947266 C-152.43367188 349.404375 -152.9415625 348.34927734 -153.46484375 347.26220703 C-153.9546875 346.240625 -154.44453125 345.21904297 -154.94921875 344.16650391 C-155.62476807 342.7604187 -155.62476807 342.7604187 -156.31396484 341.32592773 C-159.55078125 334.31495529 -159.55078125 334.31495529 -159.55078125 330.64697266 C-160.21078125 330.64697266 -160.87078125 330.64697266 -161.55078125 330.64697266 C-162.70465934 326.79516847 -163.84742853 322.94015297 -164.98828125 319.08447266 C-165.31376953 317.9984375 -165.63925781 316.91240234 -165.97460938 315.79345703 C-166.44350586 314.20307617 -166.44350586 314.20307617 -166.921875 312.58056641 C-167.2098999 311.61175537 -167.4979248 310.64294434 -167.79467773 309.64477539 C-168.63103736 306.32877287 -169.11933982 303.03739863 -169.55078125 299.64697266 C-170.166082 299.6558551 -170.78138275 299.66473755 -171.41532898 299.67388916 C-177.82293401 299.76242537 -184.2303651 299.82273309 -190.63842773 299.86669922 C-193.02945006 299.88680683 -195.42042326 299.91409695 -197.8112793 299.94873047 C-201.24930956 299.99728417 -204.68668929 300.0199504 -208.125 300.03759766 C-209.72682381 300.06856537 -209.72682381 300.06856537 -211.36100769 300.10015869 C-212.8619976 300.10061188 -212.8619976 300.10061188 -214.39331055 300.10107422 C-215.27045212 300.10995667 -216.14759369 300.11883911 -217.05131531 300.12799072 C-220.57559142 299.44974964 -222.14069494 298.30202182 -224.55078125 295.64697266 C-225.05695741 292.92420476 -225.23662225 290.81778785 -225.19775391 288.09619141 C-225.2065155 287.34125397 -225.2152771 286.58631653 -225.2243042 285.8085022 C-225.24628559 283.31657188 -225.23175161 280.82642054 -225.21484375 278.33447266 C-225.21821229 276.60098938 -225.22306522 274.8675084 -225.2293396 273.1340332 C-225.23670916 269.50237524 -225.22600319 265.8713325 -225.20263672 262.23974609 C-225.17414832 257.58535292 -225.19055193 252.9324012 -225.22049904 248.27806091 C-225.23857009 244.69890488 -225.232815 241.12009041 -225.21986008 237.54092407 C-225.2165255 235.82491892 -225.220615 234.10888271 -225.23225784 232.39291382 C-225.24496419 229.99369223 -225.2255966 227.59680187 -225.19775391 225.19775391 C-225.20787506 224.48906158 -225.21799622 223.78036926 -225.22842407 223.05020142 C-225.15112577 219.45356682 -224.78049848 217.90003851 -222.33268738 215.20343018 C-219.34863076 213.53387084 -217.77593142 213.15861671 -214.39331055 213.19287109 C-213.3926506 213.19317322 -212.39199066 213.19347534 -211.36100769 213.19378662 C-209.75918388 213.22475433 -209.75918388 213.22475433 -208.125 213.25634766 C-207.02227249 213.26200745 -205.91954498 213.26766724 -204.78340149 213.27349854 C-201.26791633 213.29585516 -197.75345738 213.34605244 -194.23828125 213.39697266 C-191.85222828 213.41703848 -189.46615931 213.4352891 -187.08007812 213.45166016 C-181.23663015 213.49571764 -175.39377902 213.56262348 -169.55078125 213.64697266 C-169.36539795 212.66784912 -169.18001465 211.68872559 -168.98901367 210.67993164 C-167.62070964 203.57312862 -166.16372614 196.5830074 -163.86328125 189.70947266 C-163.63833984 189.01402344 -163.41339844 188.31857422 -163.18164062 187.60205078 C-162.64547515 185.94792326 -162.09935385 184.29702701 -161.55078125 182.64697266 C-160.89078125 182.64697266 -160.23078125 182.64697266 -159.55078125 182.64697266 C-159.46441406 182.01533203 -159.37804687 181.38369141 -159.2890625 180.73291016 C-158.24569553 176.37174665 -156.49424247 172.38939896 -154.73828125 168.27197266 C-154.39474609 167.44697266 -154.05121094 166.62197266 -153.69726562 165.77197266 C-151.61310396 160.8450614 -149.30240278 156.23506968 -146.55078125 151.64697266 C-145.89078125 151.64697266 -145.23078125 151.64697266 -144.55078125 151.64697266 C-143.89078125 149.33697266 -143.23078125 147.02697266 -142.55078125 144.64697266 C-142.94501785 144.25495667 -143.33925446 143.86294067 -143.74543762 143.45904541 C-147.85261489 139.37401234 -151.95625153 135.28544717 -156.05786133 131.19482422 C-157.58853312 129.6691774 -159.12010175 128.1444298 -160.65258789 126.62060547 C-162.85670257 124.42863664 -165.05755912 122.23344152 -167.2578125 120.03759766 C-167.94228958 119.35828186 -168.62676666 118.67896606 -169.33198547 117.97906494 C-169.97242294 117.338703 -170.61286041 116.69834106 -171.27270508 116.03857422 C-171.83451981 115.4789801 -172.39633453 114.91938599 -172.97517395 114.34283447 C-177.50335358 109.46905219 -177.50335358 109.46905219 -177.73828125 105.39697266 C-177.64546875 104.03572266 -177.64546875 104.03572266 -177.55078125 102.64697266 C-176.89078125 102.64697266 -176.23078125 102.64697266 -175.55078125 102.64697266 C-175.30585938 102.08623047 -175.0609375 101.52548828 -174.80859375 100.94775391 C-170.99671892 93.97510087 -164.45973826 88.41940785 -158.4453125 83.35400391 C-156.48447712 81.58723059 -154.81557442 79.72483123 -153.11328125 77.70947266 C-150.60892835 74.74874565 -147.98438931 72.18347641 -145.05078125 69.64697266 C-142.13925811 67.12889859 -139.53282524 64.58865443 -137.05078125 61.64697266 C-133.30218648 57.22240179 -129.15978883 53.17647744 -124.55078125 49.64697266 C-123.89078125 49.64697266 -123.23078125 49.64697266 -122.55078125 49.64697266 C-122.55078125 48.98697266 -122.55078125 48.32697266 -122.55078125 47.64697266 C-118.68566257 47.2181082 -117.01016364 47.32102875 -113.78808594 49.60717773 C-112.85899414 50.51363037 -111.92990234 51.42008301 -110.97265625 52.35400391 C-110.46079773 52.84616898 -109.94893921 53.33833405 -109.42156982 53.84541321 C-107.78217689 55.43062356 -106.16561379 57.03678044 -104.55078125 58.64697266 C-103.47900468 59.70004224 -102.4067415 60.75261681 -101.33398438 61.8046875 C-98.13314411 64.95850667 -94.96526766 68.14424687 -91.80078125 71.33447266 C-90.6994584 72.44083106 -89.5978968 73.54695185 -88.49609375 74.65283203 C-85.8449154 77.31482913 -83.1969228 79.97996754 -80.55078125 82.64697266 C-77.43318065 81.47281139 -74.70442477 80.21542188 -71.9453125 78.35400391 C-66.94639234 75.1579345 -61.64214672 72.76135835 -56.23828125 70.33447266 C-55.25021484 69.88007812 -54.26214844 69.42568359 -53.24414062 68.95751953 C-52.29732422 68.52890625 -51.35050781 68.10029297 -50.375 67.65869141 C-49.51994873 67.27156982 -48.66489746 66.88444824 -47.78393555 66.4855957 C-45.55078125 65.64697266 -45.55078125 65.64697266 -42.55078125 65.64697266 C-42.55078125 64.98697266 -42.55078125 64.32697266 -42.55078125 63.64697266 C-38.69897707 62.49309457 -34.84396156 61.35032537 -30.98828125 60.20947266 C-29.90224609 59.88398437 -28.81621094 59.55849609 -27.69726562 59.22314453 C-26.63701172 58.91054688 -25.57675781 58.59794922 -24.484375 58.27587891 C-23.51556396 57.987854 -22.54675293 57.6998291 -21.54858398 57.40307617 C-18.23258146 56.56671655 -14.94120722 56.07841408 -11.55078125 55.64697266 C-11.5596637 55.03167191 -11.56854614 54.41637115 -11.57769775 53.78242493 C-11.66623396 47.3748199 -11.72654169 40.96738881 -11.77050781 34.55932617 C-11.79061543 32.16830385 -11.81790555 29.77733065 -11.85253906 27.38647461 C-11.90109276 23.94844435 -11.92375899 20.51106462 -11.94140625 17.07275391 C-11.96205139 16.00487137 -11.98269653 14.93698883 -12.00396729 13.83674622 C-12.00426941 12.83608627 -12.00457153 11.83542633 -12.00488281 10.80444336 C-12.01376526 9.92730179 -12.02264771 9.05016022 -12.03179932 8.1464386 C-10.68317976 1.13874205 -6.43893001 -0.09195726 0 0 Z M6.44921875 18.64697266 C6.23917068 34.63763497 6.23917068 34.63763497 6.0612793 50.62866211 C6.02899949 52.63087854 5.99562722 54.63307778 5.9609375 56.63525391 C5.9546936 57.67790405 5.94844971 58.7205542 5.9420166 59.7947998 C5.92207642 60.78927124 5.90213623 61.78374268 5.8815918 62.80834961 C5.86493721 64.10407646 5.86493721 64.10407646 5.84794617 65.42597961 C5.36334586 68.12530215 4.58424184 68.97821089 2.44921875 70.64697266 C-0.83710328 72.1883779 -4.1019132 73.09685679 -7.640625 73.86572266 C-8.59001953 74.07583984 -9.53941406 74.28595703 -10.51757812 74.50244141 C-11.49791016 74.71513672 -12.47824219 74.92783203 -13.48828125 75.14697266 C-22.12529094 77.00848685 -22.12529094 77.00848685 -30.55078125 79.64697266 C-30.55078125 80.30697266 -30.55078125 80.96697266 -30.55078125 81.64697266 C-31.09460449 81.7463916 -31.63842773 81.84581055 -32.19873047 81.94824219 C-38.07750924 83.12450115 -43.24360174 85.01552962 -48.67578125 87.52197266 C-49.43503906 87.86099609 -50.19429687 88.20001953 -50.9765625 88.54931641 C-55.66576014 90.67196525 -60.12083334 93.02660559 -64.55078125 95.64697266 C-64.55078125 96.30697266 -64.55078125 96.96697266 -64.55078125 97.64697266 C-65.27394531 97.92154297 -65.99710938 98.19611328 -66.7421875 98.47900391 C-69.44851113 99.60444308 -71.92384806 100.92059085 -74.48828125 102.33447266 C-77.53020763 103.84643607 -79.31694381 104.63321751 -82.73828125 104.83447266 C-89.15375985 102.12571502 -93.32035204 96.85488361 -97.734375 91.65087891 C-100.1443346 88.99214928 -102.82954336 86.75639072 -105.56640625 84.44384766 C-108.27807105 81.98840316 -110.58674297 79.26352397 -112.91015625 76.44384766 C-114.63710349 74.55242926 -116.46090566 73.11897198 -118.55078125 71.64697266 C-121.5502203 72.99270152 -123.63154304 74.48234367 -125.94238281 76.81152344 C-126.58274475 77.45203644 -127.22310669 78.09254944 -127.88287354 78.75247192 C-128.56218933 79.44211029 -129.24150513 80.13174866 -129.94140625 80.84228516 C-130.6460199 81.5497287 -131.35063354 82.25717224 -132.07659912 82.98605347 C-134.32273515 85.24337127 -136.56181134 87.50754899 -138.80078125 89.77197266 C-140.32375842 91.30498219 -141.84719064 92.83753981 -143.37109375 94.36962891 C-147.1029494 98.12351838 -150.82903476 101.8830618 -154.55078125 105.64697266 C-153.76614502 106.42637207 -152.98150879 107.20577148 -152.1730957 108.00878906 C-149.91730215 110.27823373 -147.81943346 112.59469197 -145.73828125 115.02197266 C-142.56779844 118.62668669 -139.22744526 121.7310497 -135.56640625 124.82275391 C-132.59666407 127.51048569 -130.01853849 130.49956082 -127.41015625 133.53369141 C-125.55944999 135.6974303 -125.55944999 135.6974303 -123.38671875 137.72119141 C-121.55078125 139.64697266 -121.55078125 139.64697266 -120.42578125 142.77197266 C-120.58685383 147.76522266 -122.46176551 150.43255972 -125.203125 154.51025391 C-126.72860435 156.50787722 -126.72860435 156.50787722 -126.55078125 158.64697266 C-127.21078125 158.97697266 -127.87078125 159.30697266 -128.55078125 159.64697266 C-135.1772865 169.43117877 -139.45652408 180.22032196 -143.609375 191.21875 C-144.23984266 192.84495108 -144.89916134 194.46024298 -145.5859375 196.06347656 C-148.70933094 203.40257378 -150.18198897 210.78855264 -151.6171875 218.60791016 C-151.81183594 219.58759766 -152.00648438 220.56728516 -152.20703125 221.57666016 C-152.37009766 222.45563965 -152.53316406 223.33461914 -152.70117188 224.24023438 C-153.77293477 227.27627994 -155.08294392 228.5919952 -157.55078125 230.64697266 C-159.92999268 231.16595459 -159.92999268 231.16595459 -162.59472656 231.19287109 C-163.60937988 231.21269043 -164.6240332 231.23250977 -165.66943359 231.25292969 C-166.72855957 231.25405762 -167.78768555 231.25518555 -168.87890625 231.25634766 C-169.85778809 231.27197754 -170.83666992 231.28760742 -171.84521484 231.30371094 C-175.4968246 231.35625615 -179.14886219 231.37456824 -182.80078125 231.39697266 C-195.05203125 231.52072266 -195.05203125 231.52072266 -207.55078125 231.64697266 C-207.55078125 248.14697266 -207.55078125 264.64697266 -207.55078125 281.64697266 C-191.27605356 281.81741281 -191.27605356 281.81741281 -175.00097656 281.94482422 C-172.96026342 281.97418927 -170.91957054 282.00501421 -168.87890625 282.03759766 C-167.81978027 282.03872559 -166.7606543 282.03985352 -165.66943359 282.04101562 C-164.65478027 282.06083496 -163.64012695 282.0806543 -162.59472656 282.10107422 C-161.71536438 282.10995667 -160.8360022 282.11883911 -159.92999268 282.12799072 C-156.77897781 282.81532762 -155.56969605 284.18719011 -153.55078125 286.64697266 C-152.73632812 289.02758789 -152.73632812 289.02758789 -152.26953125 291.70556641 C-151.975625 293.2234375 -151.975625 293.2234375 -151.67578125 294.77197266 C-151.46953125 295.86509766 -151.26328125 296.95822266 -151.05078125 298.08447266 C-148.85523365 308.59685001 -145.6937523 318.28053893 -141.55078125 328.14697266 C-141.05255859 329.34378662 -140.55433594 330.54060059 -140.04101562 331.77368164 C-137.35262982 338.0282306 -134.40737057 343.89587368 -130.75 349.64111328 C-129.55078125 351.64697266 -129.55078125 351.64697266 -128.55078125 354.64697266 C-127.89078125 354.64697266 -127.23078125 354.64697266 -126.55078125 354.64697266 C-126.30328125 355.32759766 -126.05578125 356.00822266 -125.80078125 356.70947266 C-124.78850746 359.08831607 -123.75683847 360.88582785 -122.36328125 363.02197266 C-120.72738826 365.85096054 -120.54808729 366.80322233 -120.48828125 370.27197266 C-121.7730219 374.35291353 -123.47754946 375.69259513 -126.55078125 378.64697266 C-127.57581894 379.74099202 -128.59239312 380.84298626 -129.6015625 381.95166016 C-134.79385979 387.63673212 -139.89917569 393.18122556 -145.828125 398.11572266 C-148.72797103 400.69336358 -151.10058732 403.64548509 -153.55078125 406.64697266 C-152.20505238 409.6464117 -150.71541024 411.72773445 -148.38623047 414.03857422 C-147.74571747 414.67893616 -147.10520447 415.3192981 -146.44528198 415.97906494 C-145.41082443 416.99803864 -145.41082443 416.99803864 -144.35546875 418.03759766 C-143.64802521 418.7422113 -142.94058167 419.44682495 -142.21170044 420.17279053 C-139.95438263 422.41892655 -137.69020492 424.65800274 -135.42578125 426.89697266 C-133.89277172 428.41994983 -132.3602141 429.94338204 -130.828125 431.46728516 C-127.07423552 435.19914081 -123.31469211 438.92522617 -119.55078125 442.64697266 C-118.44087689 441.71081117 -117.33314869 440.77206933 -116.22631836 439.83227539 C-115.60921494 439.30979721 -114.99211151 438.78731903 -114.35630798 438.24900818 C-111.71622515 435.90647489 -109.45276561 433.35486285 -107.11328125 430.70947266 C-103.38877197 426.54904835 -99.54450653 422.74591039 -95.25390625 419.17041016 C-93.59133609 417.68324877 -92.28481734 416.16027897 -90.92578125 414.39697266 C-88.28163424 411.33532875 -86.36434822 409.97004691 -82.55078125 408.64697266 C-77.10030472 408.52309819 -73.15412768 411.51602988 -68.72265625 414.36962891 C-66.68339862 415.81595678 -66.68339862 415.81595678 -64.55078125 415.64697266 C-64.55078125 416.30697266 -64.55078125 416.96697266 -64.55078125 417.64697266 C-56.82742638 422.01910171 -49.12701039 426.03710689 -40.80078125 429.14697266 C-40.12208984 429.40172363 -39.44339844 429.65647461 -38.74414062 429.91894531 C-35.87276434 430.95680092 -33.62828025 431.64697266 -30.55078125 431.64697266 C-30.55078125 432.30697266 -30.55078125 432.96697266 -30.55078125 433.64697266 C-28.05207771 434.40153164 -25.55221735 435.1515544 -23.05078125 435.89697266 C-22.2913623 436.12368652 -21.53194336 436.35040039 -20.74951172 436.58398438 C-14.76264479 438.3470109 -8.74131533 439.8873968 -2.64257812 441.21435547 C0.94327946 442.04711642 3.19636194 442.69298419 5.44921875 445.64697266 C5.84794617 447.8679657 5.84794617 447.8679657 5.8815918 450.4855957 C5.90153198 451.48006714 5.92147217 452.47453857 5.9420166 453.49914551 C5.9482605 454.54179565 5.95450439 455.5844458 5.9609375 456.65869141 C5.97757446 457.61892212 5.99421143 458.57915283 6.01135254 459.56848145 C6.06920552 463.15692216 6.10141749 466.74573924 6.13671875 470.33447266 C6.23984375 478.35759766 6.34296875 486.38072266 6.44921875 494.64697266 C22.94921875 494.64697266 39.44921875 494.64697266 56.44921875 494.64697266 C56.65926682 478.65631034 56.65926682 478.65631034 56.8371582 462.6652832 C56.86943801 460.66306678 56.90281028 458.66086753 56.9375 456.65869141 C56.9437439 455.61604126 56.94998779 454.57339111 56.9564209 453.49914551 C56.98633118 452.00743835 56.98633118 452.00743835 57.0168457 450.4855957 C57.02794876 449.6217778 57.03905182 448.7579599 57.05049133 447.8679657 C57.53796722 445.15262557 58.26577133 444.29119594 60.44921875 442.64697266 C62.84196098 441.90399402 65.1355762 441.30326924 67.57421875 440.77197266 C69.0201992 440.4323562 70.4654933 440.08980678 71.91015625 439.74462891 C72.65749023 439.56689941 73.40482422 439.38916992 74.17480469 439.20605469 C84.93696584 436.56056853 95.36297395 433.26291292 105.44921875 428.64697266 C106.2062207 428.30585449 106.96322266 427.96473633 107.74316406 427.61328125 C110.31771792 426.44940775 112.88437693 425.26958315 115.44921875 424.08447266 C116.27534668 423.70838867 117.10147461 423.33230469 117.95263672 422.94482422 C122.12243617 420.9856967 125.43665314 419.2571396 128.44921875 415.64697266 C123.94561221 410.29057051 119.26844618 405.16088505 114.38671875 400.14697266 C113.69255859 399.40705078 112.99839844 398.66712891 112.28320312 397.90478516 C111.26516602 396.86451172 111.26516602 396.86451172 110.2265625 395.80322266 C109.62062256 395.17222656 109.01468262 394.54123047 108.39038086 393.89111328 C106.4780319 392.38735955 106.4780319 392.38735955 103.93505859 392.86157227 C100.57012163 393.92472314 97.35782665 395.27971209 94.13671875 396.70947266 C93.49154297 396.99113281 92.84636719 397.27279297 92.18164062 397.56298828 C90.60223517 398.25324696 89.02545382 398.94950464 87.44921875 399.64697266 C87.44921875 400.30697266 87.44921875 400.96697266 87.44921875 401.64697266 C80.57616204 403.17669025 73.70186405 404.70051011 66.82421875 406.20947266 C65.82648438 406.43054688 64.82875 406.65162109 63.80078125 406.87939453 C62.82625 407.09273438 61.85171875 407.30607422 60.84765625 407.52587891 C59.97802246 407.71738525 59.10838867 407.9088916 58.21240234 408.10620117 C49.52308878 409.80675158 40.95070897 409.88895447 32.13671875 409.89697266 C30.99147232 409.89848328 30.99147232 409.89848328 29.8230896 409.90002441 C18.41718297 409.88983241 7.57407202 409.3533293 -3.55078125 406.64697266 C-4.22077148 406.49180176 -4.89076172 406.33663086 -5.58105469 406.17675781 C-19.27971711 402.9847417 -31.2333944 396.91367841 -43.83984375 390.80517578 C-44.9175 390.28503906 -45.99515625 389.76490234 -47.10546875 389.22900391 C-48.07983887 388.75696533 -49.05420898 388.28492676 -50.05810547 387.79858398 C-52.59507863 386.57064686 -52.59507863 386.57064686 -55.55078125 385.64697266 C-55.55078125 384.98697266 -55.55078125 384.32697266 -55.55078125 383.64697266 C-56.98324178 382.31403096 -56.98324178 382.31403096 -58.875 381.00244141 C-59.92397461 380.23383789 -59.92397461 380.23383789 -60.99414062 379.44970703 C-62.10499023 378.65016602 -62.10499023 378.65016602 -63.23828125 377.83447266 C-68.03782776 374.36455923 -72.4535338 370.9545093 -76.55078125 366.64697266 C-77.53786712 365.68731978 -78.52896665 364.73178299 -79.5234375 363.77978516 C-80.55345488 362.77725235 -81.5834021 361.77464746 -82.61328125 360.77197266 C-83.12955078 360.28083984 -83.64582031 359.78970703 -84.17773438 359.28369141 C-87.83284048 355.69842809 -90.08669405 352.12901759 -92.55078125 347.64697266 C-93.72717399 346.24454812 -94.93529278 344.86803461 -96.17578125 343.52197266 C-102.14260496 336.28133264 -105.60144471 327.56679785 -109.42431641 319.06860352 C-110.42917292 316.90840157 -111.51947631 314.83135404 -112.65234375 312.73681641 C-115.1985461 307.68761075 -116.40080662 302.31719976 -117.67578125 296.83447266 C-118.0637085 295.18330444 -118.0637085 295.18330444 -118.45947266 293.4987793 C-124.81211943 265.46869072 -123.17367742 238.55559485 -116.06201172 210.88330078 C-115.58232228 208.78494584 -115.27173377 206.73642355 -115.0234375 204.60009766 C-114.86746094 203.62556641 -114.71148437 202.65103516 -114.55078125 201.64697266 C-113.89078125 201.31697266 -113.23078125 200.98697266 -112.55078125 200.64697266 C-111.51228342 198.87705696 -111.51228342 198.87705696 -110.5625 196.70947266 C-109.99692383 195.489375 -109.99692383 195.489375 -109.41992188 194.24462891 C-109.02998047 193.38740234 -108.64003906 192.53017578 -108.23828125 191.64697266 C-100.11735557 173.91098164 -89.48105447 159.30109508 -75.55078125 145.64697266 C-74.79539063 144.86580078 -74.04 144.08462891 -73.26171875 143.27978516 C-70.2554697 140.36017152 -67.10354317 137.78111658 -63.80078125 135.20947266 C-63.23101562 134.75765625 -62.66125 134.30583984 -62.07421875 133.84033203 C-54.21874277 127.68687585 -46.16775367 122.72134026 -37.11328125 118.52197266 C-36.23607422 118.10560547 -35.35886719 117.68923828 -34.45507812 117.26025391 C1.386941 100.40895825 38.94499701 99.75361699 76.95019531 109.04541016 C80.77188009 109.96536241 84.60949473 110.80581608 88.44921875 111.64697266 C88.44921875 112.30697266 88.44921875 112.96697266 88.44921875 113.64697266 C89.63257813 114.15486328 90.8159375 114.66275391 92.03515625 115.18603516 C99.87457018 118.58842039 107.51951187 121.92896956 114.69921875 126.61572266 C116.39785657 127.81620343 116.39785657 127.81620343 118.44921875 127.64697266 C118.44921875 128.30697266 118.44921875 128.96697266 118.44921875 129.64697266 C119.89700737 131.02892195 119.89700737 131.02892195 121.80859375 132.39697266 C122.51242187 132.92291016 123.21625 133.44884766 123.94140625 133.99072266 C124.68648438 134.53728516 125.4315625 135.08384766 126.19921875 135.64697266 C126.92882812 136.19353516 127.6584375 136.74009766 128.41015625 137.30322266 C132.35604515 140.26908461 132.35604515 140.26908461 136.6328125 142.7043457 C139.01942732 143.94288331 139.29217324 145.2508523 140.44921875 147.64697266 C141.98997881 149.25146919 143.5791298 150.81011624 145.19921875 152.33447266 C149.10242989 156.15356286 152.22207318 159.89533621 155.09765625 164.52197266 C156.39554141 166.56257823 157.80786747 168.39072401 159.32421875 170.27197266 C166.58283712 179.8227863 171.67682812 191.32980078 175.44921875 202.64697266 C176.10921875 202.64697266 176.76921875 202.64697266 177.44921875 202.64697266 C177.69671875 203.90509766 177.94421875 205.16322266 178.19921875 206.45947266 C178.913262 210.05537394 179.66064982 213.64234386 180.4375 217.22509766 C180.70191895 218.45329224 180.70191895 218.45329224 180.97167969 219.70629883 C181.32415132 221.34006541 181.68011323 222.97308402 182.04003906 224.60522461 C184.28860426 235.06711825 184.69004992 245.26504756 184.69921875 255.95947266 C184.69989349 256.66806427 184.70056824 257.37665588 184.70126343 258.10671997 C184.6758882 274.93476492 182.6043108 290.31197188 177.4375 306.33837891 C176.30611572 309.55054986 176.30611572 309.55054986 176.44921875 312.64697266 C175.78921875 312.64697266 175.12921875 312.64697266 174.44921875 312.64697266 C173.247384 315.22447361 172.06264989 317.80768427 170.88671875 320.39697266 C170.54447266 321.12658203 170.20222656 321.85619141 169.84960938 322.60791016 C169.37104492 323.67138672 169.37104492 323.67138672 168.8828125 324.75634766 C168.58431396 325.40571289 168.28581543 326.05507813 167.97827148 326.72412109 C167.29256328 329.21633974 167.43049122 330.26017519 168.44921875 332.64697266 C170.5203043 335.13254813 170.5203043 335.13254813 173.140625 337.63134766 C173.605327 338.09180481 174.07002899 338.55226196 174.54881287 339.02667236 C176.02953694 340.49065077 177.52036394 341.94383306 179.01171875 343.39697266 C180.01956539 344.38976715 181.02673508 345.38324936 182.03320312 346.37744141 C184.49741336 348.80863738 186.97079204 351.23026134 189.44921875 353.64697266 C193.48878451 349.81630191 193.48878451 349.81630191 196.4765625 345.18603516 C196.79077148 344.55729492 197.10498047 343.92855469 197.42871094 343.28076172 C197.74485352 342.61786133 198.06099609 341.95496094 198.38671875 341.27197266 C198.72735352 340.57297852 199.06798828 339.87398438 199.41894531 339.15380859 C202.79392607 332.12233509 205.72597237 324.95244797 208.44921875 317.64697266 C208.81789063 316.67759766 209.1865625 315.70822266 209.56640625 314.70947266 C212.09359222 307.65686065 213.61261799 300.51464063 214.87939453 293.14404297 C215.09958252 291.96986816 215.09958252 291.96986816 215.32421875 290.77197266 C215.44539063 290.07330078 215.5665625 289.37462891 215.69140625 288.65478516 C216.73759838 285.88291528 218.18961732 284.54863308 220.44921875 282.64697266 C222.82843018 282.12799072 222.82843018 282.12799072 225.49316406 282.10107422 C226.50781738 282.08125488 227.5224707 282.06143555 228.56787109 282.04101562 C229.62699707 282.0398877 230.68612305 282.03875977 231.77734375 282.03759766 C232.75622559 282.02196777 233.73510742 282.00633789 234.74365234 281.99023438 C238.3952621 281.93768916 242.04729969 281.91937707 245.69921875 281.89697266 C253.86671875 281.81447266 262.03421875 281.73197266 270.44921875 281.64697266 C270.44921875 265.14697266 270.44921875 248.64697266 270.44921875 231.64697266 C254.17449106 231.4765325 254.17449106 231.4765325 237.89941406 231.34912109 C235.85870092 231.31975604 233.81800804 231.2889311 231.77734375 231.25634766 C230.71821777 231.25521973 229.6590918 231.2540918 228.56787109 231.25292969 C227.55321777 231.23311035 226.53856445 231.21329102 225.49316406 231.19287109 C224.61380188 231.18398865 223.7344397 231.1751062 222.82843018 231.16595459 C219.67331467 230.47772322 218.46807602 229.11348166 216.44921875 226.64697266 C215.55541992 224.07592773 215.55541992 224.07592773 214.9921875 221.16650391 C214.77054932 220.09319824 214.54891113 219.01989258 214.32055664 217.9140625 C214.09489014 216.77404785 213.86922363 215.6340332 213.63671875 214.45947266 C211.45870869 204.29076135 208.70971127 195.04364197 204.34912109 185.61914062 C203.40085572 183.54098336 202.5083488 181.44489877 201.625 179.33837891 C197.44848126 167.39204772 197.44848126 167.39204772 189.44921875 158.64697266 C188.76575193 156.98712467 188.1033356 155.3186046 187.44921875 153.64697266 C186.72616179 152.51803614 185.9966061 151.39324408 185.26171875 150.27197266 C183.62582576 147.44298477 183.44652479 146.49072298 183.38671875 143.02197266 C184.6714594 138.94103178 186.37598696 137.60135018 189.44921875 134.64697266 C190.47425644 133.55295329 191.49083062 132.45095905 192.5 131.34228516 C197.69229729 125.65721319 202.79761319 120.11271975 208.7265625 115.17822266 C211.62640853 112.60058174 213.99902482 109.64846022 216.44921875 106.64697266 C213.20268222 99.53926404 207.3535019 94.45907343 201.484375 89.49462891 C198.55842597 86.83824908 196.061884 83.85567075 193.48046875 80.86962891 C190.39484349 77.49324281 186.96948609 74.55868314 183.44921875 71.64697266 C178.01985815 73.08866728 175.22233802 76.78606738 171.63671875 80.83447266 C167.3345409 85.58031259 163.06640803 90.07479302 158.1171875 94.15869141 C156.28595035 95.79265242 154.80368404 97.55240727 153.26171875 99.45947266 C150.90567271 102.2854578 149.17817919 103.90118057 145.44921875 104.64697266 C139.96081489 104.64697266 136.09004045 101.80204724 131.62109375 98.92431641 C129.58183612 97.47798853 129.58183612 97.47798853 127.44921875 97.64697266 C127.44921875 96.98697266 127.44921875 96.32697266 127.44921875 95.64697266 C117.48654939 89.98970466 107.42732847 85.4433414 96.67578125 81.49414062 C95.13331254 80.90725834 93.6024039 80.28941697 92.08203125 79.64746094 C85.84969707 77.01896659 79.68945704 75.39002194 73.07421875 74.02197266 C71.14871942 73.61795022 69.22418919 73.20927449 67.30078125 72.79541016 C66.04515381 72.5351001 66.04515381 72.5351001 64.76416016 72.26953125 C62.42804362 71.64127801 60.52367487 70.88888269 58.44921875 69.64697266 C57.2396848 67.22790475 57.29241967 65.62530957 57.24389648 62.921875 C57.2237146 61.92728271 57.20353271 60.93269043 57.18273926 59.90795898 C57.16626343 58.86019287 57.1497876 57.81242676 57.1328125 56.73291016 C57.10483582 55.29105347 57.10483582 55.29105347 57.07629395 53.82006836 C57.00786731 50.22079884 56.94780103 46.62137431 56.88671875 43.02197266 C56.74234375 34.97822266 56.59796875 26.93447266 56.44921875 18.64697266 C39.94921875 18.64697266 23.44921875 18.64697266 6.44921875 18.64697266 Z M-13.55078125 127.64697266 C-13.55078125 128.30697266 -13.55078125 128.96697266 -13.55078125 129.64697266 C-14.70578125 129.81197266 -15.86078125 129.97697266 -17.05078125 130.14697266 C-21.98609755 131.22976065 -26.25275055 133.26683912 -30.73828125 135.52197266 C-31.75341797 136.03147461 -31.75341797 136.03147461 -32.7890625 136.55126953 C-47.48799928 144.11689875 -61.02277246 154.91596643 -71.55078125 167.64697266 C-72.17726562 168.38560547 -72.80375 169.12423828 -73.44921875 169.88525391 C-83.36664199 181.86064046 -90.05790166 194.13030484 -95.70654297 208.55200195 C-96.46158419 210.42563086 -97.29801584 212.26598092 -98.14453125 214.10009766 C-99.88567157 218.49164046 -100.79832242 222.82999989 -101.67578125 227.45947266 C-101.84464844 228.29800781 -102.01351562 229.13654297 -102.1875 230.00048828 C-107.63619761 257.90897487 -104.42032787 286.78718709 -92.55078125 312.64697266 C-92.27250488 313.26330566 -91.99422852 313.87963867 -91.70751953 314.51464844 C-85.93835103 327.16688113 -78.53126516 337.45008688 -69.21875 347.76806641 C-67.84976084 349.310183 -66.5491458 350.912738 -65.26953125 352.52978516 C-62.4896127 355.8758 -59.3137625 358.45778907 -55.86328125 361.08447266 C-54.93418945 361.79941895 -54.93418945 361.79941895 -53.98632812 362.52880859 C-52.18100604 363.91039446 -50.3671144 365.27991287 -48.55078125 366.64697266 C-47.24173828 367.64664063 -47.24173828 367.64664063 -45.90625 368.66650391 C-25.6715307 383.53214346 0.47544306 391.81330525 25.44921875 392.64697266 C26.34769531 392.68693359 27.24617187 392.72689453 28.171875 392.76806641 C48.51190042 393.24369286 74.86124041 390.39552563 91.44921875 377.64697266 C85.73209625 371.83684252 80.00400573 366.03783928 74.26190186 360.25240707 C71.59545335 357.56515476 68.93282458 354.87434094 66.27880859 352.17480469 C63.71356806 349.56584824 61.13845188 346.96701458 58.556427 344.37467194 C57.5769943 343.38789384 56.60106651 342.39762314 55.62887573 341.40370941 C47.68000382 333.28449471 41.12125485 327.98154413 29.44921875 327.64697266 C26.76117843 327.64442668 24.07919707 327.69236702 21.39208984 327.76269531 C9.07733011 328.0695727 -2.8147732 327.17544387 -14.35546875 322.51416016 C-16.62241695 321.46327636 -16.62241695 321.46327636 -19.55078125 321.64697266 C-19.55078125 320.98697266 -19.55078125 320.32697266 -19.55078125 319.64697266 C-20.21722656 319.30666016 -20.88367188 318.96634766 -21.5703125 318.61572266 C-33.55736511 312.31204184 -42.36758639 305.4876803 -50.55078125 294.64697266 C-51.20820313 293.87869141 -51.865625 293.11041016 -52.54296875 292.31884766 C-55.08461773 288.93657547 -56.88582601 285.37627127 -58.73828125 281.58447266 C-59.09341797 280.87742187 -59.44855469 280.17037109 -59.81445312 279.44189453 C-61.42649446 276.18416394 -62.75795871 273.21049096 -63.55078125 269.64697266 C-64.21078125 269.64697266 -64.87078125 269.64697266 -65.55078125 269.64697266 C-65.77864583 267.75895182 -66.00651042 265.87093099 -66.234375 263.98291016 C-66.46632739 262.27047151 -66.74803793 260.56457768 -67.05786133 258.86450195 C-69.94145011 240.04190833 -68.20609576 220.26718853 -58.55078125 203.64697266 C-55.39139539 201.54071542 -53.43510147 201.09916804 -49.6640625 201.20947266 C-43.46701231 202.49241096 -39.31273794 209.00170535 -35.43359375 213.57666016 C-33.42929036 215.78056223 -31.30384877 217.69940582 -29.05078125 219.64697266 C-25.46249758 222.75035313 -22.41700943 226.02773926 -19.36328125 229.64697266 C-16.78238371 232.49485959 -13.90276045 234.93487064 -10.95703125 237.39697266 C-8.55078125 239.64697266 -8.55078125 239.64697266 -7.14819336 241.66064453 C-4.67123063 245.07151926 -2.9598047 247.32379091 1.25927734 248.29150391 C4.5028699 248.43347763 7.64652847 248.34696066 10.88671875 248.14697266 C11.99982422 248.11087891 13.11292969 248.07478516 14.25976562 248.03759766 C16.99317972 247.94374653 19.71937288 247.81263024 22.44921875 247.64697266 C22.68355416 243.81468734 22.82428383 239.98425948 22.94921875 236.14697266 C23.01625 235.06931641 23.08328125 233.99166016 23.15234375 232.88134766 C23.32101833 226.67773307 23.32101833 226.67773307 20.75805664 221.18603516 C18.74774513 219.1611209 16.70749246 217.38765353 14.44921875 215.64697266 C13.25961187 214.64947994 12.0717165 213.64993655 10.88671875 212.64697266 C10.31566406 212.17001953 9.74460937 211.69306641 9.15625 211.20166016 C7.29307159 209.50476083 5.70185326 207.69520057 4.07421875 205.77197266 C1.54762302 202.7921759 -1.09508941 200.20189272 -4.05078125 197.64697266 C-7.6757857 194.51349423 -10.76520953 191.19620265 -13.84765625 187.53759766 C-16.08708382 185.0516276 -18.56264561 182.96480351 -21.16796875 180.87353516 C-22.99661104 179.25151911 -23.49261508 178.02836602 -23.859375 175.62353516 C-23.99252908 173.194482 -23.97614801 171.04449441 -23.55078125 168.64697266 C-21.3923068 166.48849821 -20.2674511 165.81270785 -17.55078125 164.64697266 C-16.205 164.01662109 -16.205 164.01662109 -14.83203125 163.37353516 C-4.04066104 158.56191906 5.69433711 157.31515213 17.44921875 157.39697266 C18.56039062 157.38923828 19.6715625 157.38150391 20.81640625 157.37353516 C26.85925524 157.38775362 32.44501703 157.80701027 38.328125 159.21826172 C40.74200751 159.77904717 40.74200751 159.77904717 44.44921875 159.64697266 C44.44921875 160.30697266 44.44921875 160.96697266 44.44921875 161.64697266 C45.47660156 162.07107422 46.50398437 162.49517578 47.5625 162.93212891 C66.72611649 170.97170351 83.51939857 182.18530475 92.44921875 201.64697266 C93.10148438 202.73880859 93.75375 203.83064453 94.42578125 204.95556641 C96.60467583 208.71860238 97.90701247 212.55377714 99.13671875 216.70947266 C99.34876953 217.39074219 99.56082031 218.07201172 99.77929688 218.77392578 C101.60919022 224.7831339 102.5893117 230.32493524 102.4765625 236.60400391 C102.46431641 237.71710938 102.45207031 238.83021484 102.43945312 239.97705078 C102.40447334 242.28701205 102.36545211 244.59691587 102.32226562 246.90673828 C102.18388946 261.01296709 105.0620471 269.25102643 114.98583984 279.52416992 C116.72376313 281.26162463 118.46974731 282.99104431 120.22265625 284.71337891 C121.14640045 285.63287827 122.07014465 286.55237762 123.0218811 287.4997406 C125.45157034 289.91809628 127.89013576 292.3272966 130.33081055 294.73455811 C132.83024553 297.20304128 135.32097499 299.68027605 137.8125 302.15673828 C142.68302908 306.99530665 147.56301294 311.82423715 152.44921875 316.64697266 C154.97064461 314.1255468 155.65211123 311.80175907 156.88671875 308.45947266 C158.16270319 305.02351457 159.44434623 301.65756509 160.9765625 298.32666016 C162.73924577 293.92228976 163.68954886 289.60707972 164.57421875 284.95947266 C164.83187012 283.63109375 164.83187012 283.63109375 165.09472656 282.27587891 C166.32428389 275.74370638 167.22751176 269.29818226 167.44921875 262.64697266 C167.48917969 261.73689453 167.52914063 260.82681641 167.5703125 259.88916016 C168.1989805 232.74549482 160.96824377 202.51971155 144.44921875 180.64697266 C143.68996094 179.60927734 142.93070313 178.57158203 142.1484375 177.50244141 C133.22021307 165.46897735 123.58315517 155.41958259 111.44921875 146.64697266 C110.21751953 145.70724609 110.21751953 145.70724609 108.9609375 144.74853516 C99.4882731 137.71169874 88.24171917 131.33161557 76.44921875 129.64697266 C76.44921875 128.98697266 76.44921875 128.32697266 76.44921875 127.64697266 C45.60945015 118.77757708 17.28898735 118.77757708 -13.55078125 127.64697266 Z M3.75 177.19384766 C3.32074219 177.67337891 2.89148438 178.15291016 2.44921875 178.64697266 C2.89800888 179.09354218 3.34679901 179.54011169 3.80918884 180.00021362 C8.46750921 184.63646013 13.12234517 189.27618364 17.77514648 193.91796875 C19.51350676 195.65129124 21.25276226 197.38371637 22.99291992 199.11523438 C25.4898122 201.60003689 27.98349789 204.08801802 30.4765625 206.57666016 C31.25885727 207.35379364 32.04115204 208.13092712 32.84715271 208.93161011 C33.56782425 209.65220612 34.28849579 210.37280212 35.03100586 211.11523438 C35.66832138 211.75032928 36.3056369 212.38542419 36.96226501 213.0397644 C39.37434857 215.64692056 39.58180966 217.39772431 39.6262207 220.84960938 C39.64547356 222.15138626 39.64547356 222.15138626 39.66511536 223.47946167 C39.67250229 224.41903717 39.67988922 225.35861267 39.6875 226.32666016 C39.69557175 227.29096954 39.70364349 228.25527893 39.71195984 229.24880981 C39.72580355 231.29150594 39.73652442 233.33422522 39.74438477 235.37695312 C39.76161176 238.50256047 39.80549696 241.62711406 39.84960938 244.75244141 C39.85973492 246.73550653 39.86825146 248.71858066 39.875 250.70166016 C39.89250809 251.63718719 39.91001617 252.57271423 39.92805481 253.53659058 C39.91544386 257.30472552 39.86309767 259.89352636 38.03100586 263.22875977 C34.02438499 265.42965439 30.2202482 265.2772322 25.71484375 265.28369141 C24.76285095 265.29463333 23.81085815 265.30557526 22.83001709 265.31684875 C20.81609505 265.33270649 18.80206502 265.33791245 16.78808594 265.33325195 C13.72275897 265.33446335 10.66224793 265.3941465 7.59765625 265.45751953 C5.63673037 265.46566517 3.67578636 265.47033397 1.71484375 265.47119141 C0.80623596 265.49477219 -0.10237183 265.51835297 -1.03851318 265.54264832 C-7.20910842 265.45456348 -10.3005199 263.95783046 -14.67462158 259.6257782 C-15.29375427 258.97277237 -15.91288696 258.31976654 -16.55078125 257.64697266 C-17.7699862 256.46256718 -18.99067363 255.27968569 -20.21289062 254.09838867 C-21.44267446 252.86845003 -22.66982048 251.63586914 -23.89453125 250.40087891 C-24.54909302 249.74490219 -25.20365479 249.08892548 -25.87805176 248.41307068 C-27.93801948 246.34757121 -29.99445491 244.2785967 -32.05078125 242.20947266 C-33.45940175 240.79582832 -34.86825392 239.3824148 -36.27734375 237.96923828 C-39.70450258 234.53114116 -43.12850144 231.08992609 -46.55078125 227.64697266 C-49.18314391 229.94656329 -49.52531959 230.48347243 -50.09765625 234.15869141 C-50.18243415 235.54968319 -50.24932615 236.94185002 -50.30078125 238.33447266 C-50.33461914 239.05836182 -50.36845703 239.78225098 -50.40332031 240.52807617 C-50.73322258 248.93774 -49.56314053 255.81931787 -46.55078125 263.64697266 C-46.11121094 264.84708984 -45.67164063 266.04720703 -45.21875 267.28369141 C-39.06607385 283.19874371 -28.95935474 294.21668578 -14.11328125 302.58447266 C-11.55125063 303.83848017 -11.55125063 303.83848017 -8.55078125 303.64697266 C-8.55078125 304.30697266 -8.55078125 304.96697266 -8.55078125 305.64697266 C3.4755897 310.54660526 16.3939816 310.77552272 29.19921875 310.45947266 C40.73412504 310.2313605 49.9637993 312.72588729 59.44921875 319.64697266 C61.28515625 321.54150391 61.28515625 321.54150391 62.82421875 323.45947266 C65.18493115 326.27157402 67.57755178 328.72059438 70.38671875 331.08447266 C73.34744576 333.58882556 75.912715 336.2133646 78.44921875 339.14697266 C80.96729282 342.0584958 83.50753698 344.66492866 86.44921875 347.14697266 C90.17306294 350.28896619 93.26696314 353.77998961 96.44921875 357.45947266 C98.34660513 359.53473901 100.30222303 361.33544502 102.44921875 363.14697266 C106.17306294 366.28896619 109.26696314 369.77998961 112.44921875 373.45947266 C114.34660513 375.53473901 116.30222303 377.33544502 118.44921875 379.14697266 C122.17306294 382.28896619 125.26696314 385.77998961 128.44921875 389.45947266 C130.34660513 391.53473901 132.30222303 393.33544502 134.44921875 395.14697266 C138.17306294 398.28896619 141.26696314 401.77998961 144.44921875 405.45947266 C146.34660513 407.53473901 148.30222303 409.33544502 150.44921875 411.14697266 C154.17306294 414.28896619 157.26696314 417.77998961 160.44921875 421.45947266 C162.34660513 423.53473901 164.30222303 425.33544502 166.44921875 427.14697266 C170.17306294 430.28896619 173.26696314 433.77998961 176.44921875 437.45947266 C178.34660513 439.53473901 180.30222303 441.33544502 182.44921875 443.14697266 C186.17306294 446.28896619 189.26696314 449.77998961 192.44921875 453.45947266 C194.34660513 455.53473901 196.30222303 457.33544502 198.44921875 459.14697266 C202.17166453 462.28778628 205.26472111 465.77703507 208.4453125 469.45556641 C210.94600955 472.19024681 213.68422343 474.51560012 216.51953125 476.89306641 C218.53126965 478.72154928 220.17545819 480.66246943 221.88671875 482.77197266 C226.85107972 488.54318237 232.3136125 491.63224051 239.88671875 492.64697266 C247.11696372 492.98067627 253.52068771 491.45488253 259.32421875 487.02197266 C264.58586587 481.9961069 267.07053595 475.14021522 267.53125 467.95556641 C267.13333834 456.75719535 260.31234737 449.13845804 252.4375 441.78759766 C250.88899425 440.36965649 249.3303316 438.96490577 247.76098633 437.57006836 C244.2198497 434.41501044 241.12564213 431.0997008 238.0859375 427.47119141 C236.3466031 425.53260151 234.50004276 423.89012564 232.51171875 422.20947266 C229.55099174 419.70511976 226.9857225 417.08058071 224.44921875 414.14697266 C221.93114468 411.23544951 219.39090052 408.62901665 216.44921875 406.14697266 C212.72537456 403.00497912 209.63147436 399.51395571 206.44921875 395.83447266 C204.55183237 393.7592063 202.59621447 391.95850029 200.44921875 390.14697266 C197.50753698 387.66492866 194.96729282 385.0584958 192.44921875 382.14697266 C189.94958863 379.25753667 187.43438054 376.66913852 184.51171875 374.20947266 C180.49595655 370.82240121 177.13927809 367.00061404 173.67578125 363.06103516 C171.07734405 360.24378219 168.27478945 357.8222555 165.34765625 355.35791016 C162.7148357 352.98512127 160.51296507 350.31298589 158.2265625 347.61181641 C156.43256414 345.62856108 154.55408264 343.93333925 152.51171875 342.20947266 C149.55099174 339.70511976 146.9857225 337.08058071 144.44921875 334.14697266 C141.93114468 331.23544951 139.39090052 328.62901665 136.44921875 326.14697266 C132.72537456 323.00497912 129.63147436 319.51395571 126.44921875 315.83447266 C124.55183237 313.7592063 122.59621447 311.95850029 120.44921875 310.14697266 C117.50753698 307.66492866 114.96729282 305.0584958 112.44921875 302.14697266 C109.94958863 299.25753667 107.43438054 296.66913852 104.51171875 294.20947266 C94.95574742 286.00789097 87.97811481 277.2616853 85.44921875 264.64697266 C85.34610679 262.28782081 85.29432343 259.92625318 85.2734375 257.56494141 C85.25019396 256.14240131 85.22607495 254.7198753 85.20117188 253.29736328 C85.16648032 251.08413884 85.13694668 248.87141864 85.12329102 246.65795898 C85.04332234 235.78590973 84.41386797 224.5762711 79.44921875 214.64697266 C78.78921875 214.64697266 78.12921875 214.64697266 77.44921875 214.64697266 C77.28421875 213.71884766 77.11921875 212.79072266 76.94921875 211.83447266 C74.71947542 203.9742264 68.74834042 197.5377149 62.44921875 192.64697266 C61.67835938 191.82455078 60.9075 191.00212891 60.11328125 190.15478516 C56.93205382 187.16013998 53.73021271 185.41017166 49.82421875 183.52197266 C49.12288818 183.17577881 48.42155762 182.82958496 47.69897461 182.47290039 C42.72040119 180.08402714 37.79141671 178.33500826 32.390625 177.11962891 C30.44921875 176.64697266 30.44921875 176.64697266 29.44921875 175.64697266 C15.88825654 173.50514537 15.88825654 173.50514537 3.75 177.19384766 Z " fill="#F7921C" transform="translate(224.55078125,-0.64697265625)"/>
<path d="M0 0 C4.88501666 3.38631252 8.69445409 7.69595768 12.4453125 12.2578125 C14.13396727 14.15012412 15.93775582 15.73927242 17.875 17.375 C20.85479675 19.90159573 23.44507993 22.54430816 26 25.5 C28.51807407 28.41152314 31.05831823 31.01795601 34 33.5 C37.72384419 36.64199353 40.81774439 40.13301695 44 43.8125 C45.89738638 45.88776635 47.85300428 47.68847236 50 49.5 C53.72384419 52.64199353 56.81774439 56.13301695 60 59.8125 C61.89738638 61.88776635 63.85300428 63.68847236 66 65.5 C69.72384419 68.64199353 72.81774439 72.13301695 76 75.8125 C77.89738638 77.88776635 79.85300428 79.68847236 82 81.5 C84.94168177 83.98204399 87.48192593 86.58847686 90 89.5 C94.34409496 94.51965303 99.17979422 98.83061094 104.4375 102.875 C106.92929718 106.26384416 107.3329601 109.84909737 107 114 C105.23496686 116.92143417 104.04152365 118.47923817 101 120 C97.92211349 120.51298109 95.82148801 120.4665652 93.07421875 118.90625 C87.45149262 114.80111403 82.32911664 110.00531179 78.0625 104.5 C76.22437232 102.27196644 74.44289563 100.6065097 72.25 98.75 C69.23199291 96.17910507 66.59171594 93.49986019 64 90.5 C61.48192593 87.58847686 58.94168177 84.98204399 56 82.5 C52.27615581 79.35800647 49.18225561 75.86698305 46 72.1875 C44.10261362 70.11223365 42.14699572 68.31152764 40 66.5 C36.27615581 63.35800647 33.18225561 59.86698305 30 56.1875 C28.10261362 54.11223365 26.14699572 52.31152764 24 50.5 C20.27615581 47.35800647 17.18225561 43.86698305 14 40.1875 C12.10261362 38.11223365 10.14699572 36.31152764 8 34.5 C4.28366526 31.36434257 1.19342873 27.88447167 -1.9765625 24.20703125 C-4.55324746 21.39655441 -7.37200155 18.99669198 -10.3359375 16.60546875 C-12.18669228 14.81988139 -13.09409957 13.40200872 -14 11 C-14 7.8599842 -13.99890292 5.87331486 -13 3 C-8.73605101 -1.1624264 -5.62970347 -1.84421321 0 0 Z " fill="#F7921C" transform="translate(339,326)"/>
<path d="M0 0 C4.35407736 2.90271824 8.15991866 6.59445214 11 11 C11.62869315 15.95095859 11.77903011 17.86686529 8.9375 22 C6 24 6 24 2.75 24.75 C-3.35324366 23.52935127 -7.68974178 19.63732849 -11.73828125 15.015625 C-13.77328446 11.76466012 -13.7082696 8.70889566 -13 5 C-9.30172432 0.19224162 -5.9823332 -0.77191396 0 0 Z " fill="#F7921C" transform="translate(308,295)"/>
<path d="M0 0 C4.92986715 2.56763914 9.14954434 6.19411231 12 11 C12.84158988 14.13954807 12.59438158 15.64984925 12 19 C9.43123387 22.8531492 7.81316608 23.80704534 3.3125 24.875 C-2.81129477 24.54777433 -7.07319947 19.24063838 -11 15 C-12.55024464 11.89951072 -12.28992015 9.42105782 -12 6 C-8.59177699 0.77405806 -6.21972759 -0.59805073 0 0 Z " fill="#F7921C" transform="translate(464,452)"/>
</svg>
